<?xml version="1.0" encoding="utf-8"?>
<svg xmlns="http://www.w3.org/2000/svg" xmlns:xlink="http://www.w3.org/1999/xlink" width="600" height="400" viewBox="0 0 2400 1600">
<defs>
  <clipPath id="clip740">
    <rect x="0" y="0" width="2400" height="1600"/>
  </clipPath>
</defs>
<path clip-path="url(#clip740)" d="M0 1600 L2400 1600 L2400 0 L0 0  Z" fill="#ffffff" fill-rule="evenodd" fill-opacity="1"/>
<defs>
  <clipPath id="clip741">
    <rect x="480" y="0" width="1681" height="1600"/>
  </clipPath>
</defs>
<path clip-path="url(#clip740)" d="M193.936 1423.18 L2352.76 1423.18 L2352.76 47.2441 L193.936 47.2441  Z" fill="#ffffff" fill-rule="evenodd" fill-opacity="1"/>
<defs>
  <clipPath id="clip742">
    <rect x="193" y="47" width="2160" height="1377"/>
  </clipPath>
</defs>
<polyline clip-path="url(#clip742)" style="stroke:#000000; stroke-linecap:round; stroke-linejoin:round; stroke-width:2; stroke-opacity:0.1; fill:none" points="255.035,1423.18 255.035,47.2441 "/>
<polyline clip-path="url(#clip742)" style="stroke:#000000; stroke-linecap:round; stroke-linejoin:round; stroke-width:2; stroke-opacity:0.1; fill:none" points="764.19,1423.18 764.19,47.2441 "/>
<polyline clip-path="url(#clip742)" style="stroke:#000000; stroke-linecap:round; stroke-linejoin:round; stroke-width:2; stroke-opacity:0.1; fill:none" points="1273.35,1423.18 1273.35,47.2441 "/>
<polyline clip-path="url(#clip742)" style="stroke:#000000; stroke-linecap:round; stroke-linejoin:round; stroke-width:2; stroke-opacity:0.1; fill:none" points="1782.5,1423.18 1782.5,47.2441 "/>
<polyline clip-path="url(#clip742)" style="stroke:#000000; stroke-linecap:round; stroke-linejoin:round; stroke-width:2; stroke-opacity:0.1; fill:none" points="2291.66,1423.18 2291.66,47.2441 "/>
<polyline clip-path="url(#clip740)" style="stroke:#000000; stroke-linecap:round; stroke-linejoin:round; stroke-width:4; stroke-opacity:1; fill:none" points="193.936,1423.18 2352.76,1423.18 "/>
<polyline clip-path="url(#clip740)" style="stroke:#000000; stroke-linecap:round; stroke-linejoin:round; stroke-width:4; stroke-opacity:1; fill:none" points="255.035,1423.18 255.035,1404.28 "/>
<polyline clip-path="url(#clip740)" style="stroke:#000000; stroke-linecap:round; stroke-linejoin:round; stroke-width:4; stroke-opacity:1; fill:none" points="764.19,1423.18 764.19,1404.28 "/>
<polyline clip-path="url(#clip740)" style="stroke:#000000; stroke-linecap:round; stroke-linejoin:round; stroke-width:4; stroke-opacity:1; fill:none" points="1273.35,1423.18 1273.35,1404.28 "/>
<polyline clip-path="url(#clip740)" style="stroke:#000000; stroke-linecap:round; stroke-linejoin:round; stroke-width:4; stroke-opacity:1; fill:none" points="1782.5,1423.18 1782.5,1404.28 "/>
<polyline clip-path="url(#clip740)" style="stroke:#000000; stroke-linecap:round; stroke-linejoin:round; stroke-width:4; stroke-opacity:1; fill:none" points="2291.66,1423.18 2291.66,1404.28 "/>
<path clip-path="url(#clip740)" d="M232.419 1454.1 Q228.808 1454.1 226.979 1457.66 Q225.174 1461.2 225.174 1468.33 Q225.174 1475.44 226.979 1479.01 Q228.808 1482.55 232.419 1482.55 Q236.053 1482.55 237.859 1479.01 Q239.688 1475.44 239.688 1468.33 Q239.688 1461.2 237.859 1457.66 Q236.053 1454.1 232.419 1454.1 M232.419 1450.39 Q238.229 1450.39 241.285 1455 Q244.363 1459.58 244.363 1468.33 Q244.363 1477.06 241.285 1481.67 Q238.229 1486.25 232.419 1486.25 Q226.609 1486.25 223.53 1481.67 Q220.475 1477.06 220.475 1468.33 Q220.475 1459.58 223.53 1455 Q226.609 1450.39 232.419 1450.39 Z" fill="#000000" fill-rule="nonzero" fill-opacity="1" /><path clip-path="url(#clip740)" d="M252.581 1479.7 L257.465 1479.7 L257.465 1485.58 L252.581 1485.58 L252.581 1479.7 Z" fill="#000000" fill-rule="nonzero" fill-opacity="1" /><path clip-path="url(#clip740)" d="M277.65 1454.1 Q274.039 1454.1 272.211 1457.66 Q270.405 1461.2 270.405 1468.33 Q270.405 1475.44 272.211 1479.01 Q274.039 1482.55 277.65 1482.55 Q281.285 1482.55 283.09 1479.01 Q284.919 1475.44 284.919 1468.33 Q284.919 1461.2 283.09 1457.66 Q281.285 1454.1 277.65 1454.1 M277.65 1450.39 Q283.46 1450.39 286.516 1455 Q289.595 1459.58 289.595 1468.33 Q289.595 1477.06 286.516 1481.67 Q283.46 1486.25 277.65 1486.25 Q271.84 1486.25 268.761 1481.67 Q265.706 1477.06 265.706 1468.33 Q265.706 1459.58 268.761 1455 Q271.84 1450.39 277.65 1450.39 Z" fill="#000000" fill-rule="nonzero" fill-opacity="1" /><path clip-path="url(#clip740)" d="M735.927 1481.64 L752.246 1481.64 L752.246 1485.58 L730.302 1485.58 L730.302 1481.64 Q732.964 1478.89 737.547 1474.26 Q742.153 1469.61 743.334 1468.27 Q745.579 1465.74 746.459 1464.01 Q747.362 1462.25 747.362 1460.56 Q747.362 1457.8 745.417 1456.07 Q743.496 1454.33 740.394 1454.33 Q738.195 1454.33 735.741 1455.09 Q733.311 1455.86 730.533 1457.41 L730.533 1452.69 Q733.357 1451.55 735.811 1450.97 Q738.265 1450.39 740.302 1450.39 Q745.672 1450.39 748.866 1453.08 Q752.061 1455.77 752.061 1460.26 Q752.061 1462.39 751.251 1464.31 Q750.464 1466.2 748.357 1468.8 Q747.778 1469.47 744.677 1472.69 Q741.575 1475.88 735.927 1481.64 Z" fill="#000000" fill-rule="nonzero" fill-opacity="1" /><path clip-path="url(#clip740)" d="M762.061 1479.7 L766.945 1479.7 L766.945 1485.58 L762.061 1485.58 L762.061 1479.7 Z" fill="#000000" fill-rule="nonzero" fill-opacity="1" /><path clip-path="url(#clip740)" d="M777.176 1451.02 L795.533 1451.02 L795.533 1454.96 L781.459 1454.96 L781.459 1463.43 Q782.477 1463.08 783.496 1462.92 Q784.514 1462.73 785.533 1462.73 Q791.32 1462.73 794.699 1465.9 Q798.079 1469.08 798.079 1474.49 Q798.079 1480.07 794.607 1483.17 Q791.135 1486.25 784.815 1486.25 Q782.639 1486.25 780.371 1485.88 Q778.125 1485.51 775.718 1484.77 L775.718 1480.07 Q777.801 1481.2 780.024 1481.76 Q782.246 1482.32 784.723 1482.32 Q788.727 1482.32 791.065 1480.21 Q793.403 1478.1 793.403 1474.49 Q793.403 1470.88 791.065 1468.77 Q788.727 1466.67 784.723 1466.67 Q782.848 1466.67 780.973 1467.08 Q779.121 1467.5 777.176 1468.38 L777.176 1451.02 Z" fill="#000000" fill-rule="nonzero" fill-opacity="1" /><path clip-path="url(#clip740)" d="M1240.51 1451.02 L1258.87 1451.02 L1258.87 1454.96 L1244.79 1454.96 L1244.79 1463.43 Q1245.81 1463.08 1246.83 1462.92 Q1247.85 1462.73 1248.87 1462.73 Q1254.65 1462.73 1258.03 1465.9 Q1261.41 1469.08 1261.41 1474.49 Q1261.41 1480.07 1257.94 1483.17 Q1254.47 1486.25 1248.15 1486.25 Q1245.97 1486.25 1243.7 1485.88 Q1241.46 1485.51 1239.05 1484.77 L1239.05 1480.07 Q1241.14 1481.2 1243.36 1481.76 Q1245.58 1482.32 1248.06 1482.32 Q1252.06 1482.32 1254.4 1480.21 Q1256.74 1478.1 1256.74 1474.49 Q1256.74 1470.88 1254.4 1468.77 Q1252.06 1466.67 1248.06 1466.67 Q1246.18 1466.67 1244.31 1467.08 Q1242.45 1467.5 1240.51 1468.38 L1240.51 1451.02 Z" fill="#000000" fill-rule="nonzero" fill-opacity="1" /><path clip-path="url(#clip740)" d="M1270.63 1479.7 L1275.51 1479.7 L1275.51 1485.58 L1270.63 1485.58 L1270.63 1479.7 Z" fill="#000000" fill-rule="nonzero" fill-opacity="1" /><path clip-path="url(#clip740)" d="M1295.7 1454.1 Q1292.08 1454.1 1290.26 1457.66 Q1288.45 1461.2 1288.45 1468.33 Q1288.45 1475.44 1290.26 1479.01 Q1292.08 1482.55 1295.7 1482.55 Q1299.33 1482.55 1301.14 1479.01 Q1302.96 1475.44 1302.96 1468.33 Q1302.96 1461.2 1301.14 1457.66 Q1299.33 1454.1 1295.7 1454.1 M1295.7 1450.39 Q1301.51 1450.39 1304.56 1455 Q1307.64 1459.58 1307.64 1468.33 Q1307.64 1477.06 1304.56 1481.67 Q1301.51 1486.25 1295.7 1486.25 Q1289.89 1486.25 1286.81 1481.67 Q1283.75 1477.06 1283.75 1468.33 Q1283.75 1459.58 1286.81 1455 Q1289.89 1450.39 1295.7 1450.39 Z" fill="#000000" fill-rule="nonzero" fill-opacity="1" /><path clip-path="url(#clip740)" d="M1748.82 1451.02 L1771.04 1451.02 L1771.04 1453.01 L1758.5 1485.58 L1753.61 1485.58 L1765.42 1454.96 L1748.82 1454.96 L1748.82 1451.02 Z" fill="#000000" fill-rule="nonzero" fill-opacity="1" /><path clip-path="url(#clip740)" d="M1780.16 1479.7 L1785.05 1479.7 L1785.05 1485.58 L1780.16 1485.58 L1780.16 1479.7 Z" fill="#000000" fill-rule="nonzero" fill-opacity="1" /><path clip-path="url(#clip740)" d="M1795.28 1451.02 L1813.64 1451.02 L1813.64 1454.96 L1799.56 1454.96 L1799.56 1463.43 Q1800.58 1463.08 1801.6 1462.92 Q1802.62 1462.73 1803.64 1462.73 Q1809.42 1462.73 1812.8 1465.9 Q1816.18 1469.08 1816.18 1474.49 Q1816.18 1480.07 1812.71 1483.17 Q1809.24 1486.25 1802.92 1486.25 Q1800.74 1486.25 1798.47 1485.88 Q1796.23 1485.51 1793.82 1484.77 L1793.82 1480.07 Q1795.9 1481.2 1798.13 1481.76 Q1800.35 1482.32 1802.83 1482.32 Q1806.83 1482.32 1809.17 1480.21 Q1811.51 1478.1 1811.51 1474.49 Q1811.51 1470.88 1809.17 1468.77 Q1806.83 1466.67 1802.83 1466.67 Q1800.95 1466.67 1799.08 1467.08 Q1797.22 1467.5 1795.28 1468.38 L1795.28 1451.02 Z" fill="#000000" fill-rule="nonzero" fill-opacity="1" /><path clip-path="url(#clip740)" d="M2243.73 1481.64 L2251.37 1481.64 L2251.37 1455.28 L2243.06 1456.95 L2243.06 1452.69 L2251.32 1451.02 L2256 1451.02 L2256 1481.64 L2263.64 1481.64 L2263.64 1485.58 L2243.73 1485.58 L2243.73 1481.64 Z" fill="#000000" fill-rule="nonzero" fill-opacity="1" /><path clip-path="url(#clip740)" d="M2283.08 1454.1 Q2279.47 1454.1 2277.64 1457.66 Q2275.84 1461.2 2275.84 1468.33 Q2275.84 1475.44 2277.64 1479.01 Q2279.47 1482.55 2283.08 1482.55 Q2286.72 1482.55 2288.52 1479.01 Q2290.35 1475.44 2290.35 1468.33 Q2290.35 1461.2 2288.52 1457.66 Q2286.72 1454.1 2283.08 1454.1 M2283.08 1450.39 Q2288.89 1450.39 2291.95 1455 Q2295.03 1459.58 2295.03 1468.33 Q2295.03 1477.06 2291.95 1481.67 Q2288.89 1486.25 2283.08 1486.25 Q2277.27 1486.25 2274.19 1481.67 Q2271.14 1477.06 2271.14 1468.33 Q2271.14 1459.58 2274.19 1455 Q2277.27 1450.39 2283.08 1450.39 Z" fill="#000000" fill-rule="nonzero" fill-opacity="1" /><path clip-path="url(#clip740)" d="M2303.24 1479.7 L2308.13 1479.7 L2308.13 1485.58 L2303.24 1485.58 L2303.24 1479.7 Z" fill="#000000" fill-rule="nonzero" fill-opacity="1" /><path clip-path="url(#clip740)" d="M2328.31 1454.1 Q2324.7 1454.1 2322.87 1457.66 Q2321.07 1461.2 2321.07 1468.33 Q2321.07 1475.44 2322.87 1479.01 Q2324.7 1482.55 2328.31 1482.55 Q2331.95 1482.55 2333.75 1479.01 Q2335.58 1475.44 2335.58 1468.33 Q2335.58 1461.2 2333.75 1457.66 Q2331.95 1454.1 2328.31 1454.1 M2328.31 1450.39 Q2334.12 1450.39 2337.18 1455 Q2340.26 1459.58 2340.26 1468.33 Q2340.26 1477.06 2337.18 1481.67 Q2334.12 1486.25 2328.31 1486.25 Q2322.5 1486.25 2319.42 1481.67 Q2316.37 1477.06 2316.37 1468.33 Q2316.37 1459.58 2319.42 1455 Q2322.5 1450.39 2328.31 1450.39 Z" fill="#000000" fill-rule="nonzero" fill-opacity="1" /><path clip-path="url(#clip740)" d="M1272.41 1522.27 L1272.41 1532.4 L1284.47 1532.4 L1284.47 1536.95 L1272.41 1536.95 L1272.41 1556.3 Q1272.41 1560.66 1273.58 1561.9 Q1274.79 1563.14 1278.45 1563.14 L1284.47 1563.14 L1284.47 1568.04 L1278.45 1568.04 Q1271.67 1568.04 1269.1 1565.53 Q1266.52 1562.98 1266.52 1556.3 L1266.52 1536.95 L1262.22 1536.95 L1262.22 1532.4 L1266.52 1532.4 L1266.52 1522.27 L1272.41 1522.27 Z" fill="#000000" fill-rule="nonzero" fill-opacity="1" /><polyline clip-path="url(#clip742)" style="stroke:#000000; stroke-linecap:round; stroke-linejoin:round; stroke-width:2; stroke-opacity:0.1; fill:none" points="193.936,1384.24 2352.76,1384.24 "/>
<polyline clip-path="url(#clip742)" style="stroke:#000000; stroke-linecap:round; stroke-linejoin:round; stroke-width:2; stroke-opacity:0.1; fill:none" points="193.936,1059.73 2352.76,1059.73 "/>
<polyline clip-path="url(#clip742)" style="stroke:#000000; stroke-linecap:round; stroke-linejoin:round; stroke-width:2; stroke-opacity:0.1; fill:none" points="193.936,735.212 2352.76,735.212 "/>
<polyline clip-path="url(#clip742)" style="stroke:#000000; stroke-linecap:round; stroke-linejoin:round; stroke-width:2; stroke-opacity:0.1; fill:none" points="193.936,410.699 2352.76,410.699 "/>
<polyline clip-path="url(#clip742)" style="stroke:#000000; stroke-linecap:round; stroke-linejoin:round; stroke-width:2; stroke-opacity:0.1; fill:none" points="193.936,86.1857 2352.76,86.1857 "/>
<polyline clip-path="url(#clip740)" style="stroke:#000000; stroke-linecap:round; stroke-linejoin:round; stroke-width:4; stroke-opacity:1; fill:none" points="193.936,1423.18 193.936,47.2441 "/>
<polyline clip-path="url(#clip740)" style="stroke:#000000; stroke-linecap:round; stroke-linejoin:round; stroke-width:4; stroke-opacity:1; fill:none" points="193.936,1384.24 212.834,1384.24 "/>
<polyline clip-path="url(#clip740)" style="stroke:#000000; stroke-linecap:round; stroke-linejoin:round; stroke-width:4; stroke-opacity:1; fill:none" points="193.936,1059.73 212.834,1059.73 "/>
<polyline clip-path="url(#clip740)" style="stroke:#000000; stroke-linecap:round; stroke-linejoin:round; stroke-width:4; stroke-opacity:1; fill:none" points="193.936,735.212 212.834,735.212 "/>
<polyline clip-path="url(#clip740)" style="stroke:#000000; stroke-linecap:round; stroke-linejoin:round; stroke-width:4; stroke-opacity:1; fill:none" points="193.936,410.699 212.834,410.699 "/>
<polyline clip-path="url(#clip740)" style="stroke:#000000; stroke-linecap:round; stroke-linejoin:round; stroke-width:4; stroke-opacity:1; fill:none" points="193.936,86.1857 212.834,86.1857 "/>
<path clip-path="url(#clip740)" d="M50.9921 1384.69 L80.6679 1384.69 L80.6679 1388.63 L50.9921 1388.63 L50.9921 1384.69 Z" fill="#000000" fill-rule="nonzero" fill-opacity="1" /><path clip-path="url(#clip740)" d="M91.5706 1397.58 L99.2095 1397.58 L99.2095 1371.22 L90.8993 1372.88 L90.8993 1368.63 L99.1632 1366.96 L103.839 1366.96 L103.839 1397.58 L111.478 1397.58 L111.478 1401.52 L91.5706 1401.52 L91.5706 1397.58 Z" fill="#000000" fill-rule="nonzero" fill-opacity="1" /><path clip-path="url(#clip740)" d="M120.922 1395.64 L125.807 1395.64 L125.807 1401.52 L120.922 1401.52 L120.922 1395.64 Z" fill="#000000" fill-rule="nonzero" fill-opacity="1" /><path clip-path="url(#clip740)" d="M145.992 1370.04 Q142.381 1370.04 140.552 1373.6 Q138.746 1377.14 138.746 1384.27 Q138.746 1391.38 140.552 1394.94 Q142.381 1398.49 145.992 1398.49 Q149.626 1398.49 151.431 1394.94 Q153.26 1391.38 153.26 1384.27 Q153.26 1377.14 151.431 1373.6 Q149.626 1370.04 145.992 1370.04 M145.992 1366.33 Q151.802 1366.33 154.857 1370.94 Q157.936 1375.52 157.936 1384.27 Q157.936 1393 154.857 1397.61 Q151.802 1402.19 145.992 1402.19 Q140.181 1402.19 137.103 1397.61 Q134.047 1393 134.047 1384.27 Q134.047 1375.52 137.103 1370.94 Q140.181 1366.33 145.992 1366.33 Z" fill="#000000" fill-rule="nonzero" fill-opacity="1" /><path clip-path="url(#clip740)" d="M51.9875 1060.18 L81.6633 1060.18 L81.6633 1064.11 L51.9875 1064.11 L51.9875 1060.18 Z" fill="#000000" fill-rule="nonzero" fill-opacity="1" /><path clip-path="url(#clip740)" d="M101.756 1045.52 Q98.1447 1045.52 96.316 1049.09 Q94.5104 1052.63 94.5104 1059.76 Q94.5104 1066.87 96.316 1070.43 Q98.1447 1073.97 101.756 1073.97 Q105.39 1073.97 107.196 1070.43 Q109.024 1066.87 109.024 1059.76 Q109.024 1052.63 107.196 1049.09 Q105.39 1045.52 101.756 1045.52 M101.756 1041.82 Q107.566 1041.82 110.621 1046.43 Q113.7 1051.01 113.7 1059.76 Q113.7 1068.49 110.621 1073.09 Q107.566 1077.68 101.756 1077.68 Q95.9456 1077.68 92.8669 1073.09 Q89.8114 1068.49 89.8114 1059.76 Q89.8114 1051.01 92.8669 1046.43 Q95.9456 1041.82 101.756 1041.82 Z" fill="#000000" fill-rule="nonzero" fill-opacity="1" /><path clip-path="url(#clip740)" d="M121.918 1071.13 L126.802 1071.13 L126.802 1077.01 L121.918 1077.01 L121.918 1071.13 Z" fill="#000000" fill-rule="nonzero" fill-opacity="1" /><path clip-path="url(#clip740)" d="M137.033 1042.45 L155.39 1042.45 L155.39 1046.38 L141.316 1046.38 L141.316 1054.85 Q142.334 1054.51 143.353 1054.34 Q144.371 1054.16 145.39 1054.16 Q151.177 1054.16 154.556 1057.33 Q157.936 1060.5 157.936 1065.92 Q157.936 1071.5 154.464 1074.6 Q150.992 1077.68 144.672 1077.68 Q142.496 1077.68 140.228 1077.31 Q137.982 1076.94 135.575 1076.2 L135.575 1071.5 Q137.658 1072.63 139.881 1073.19 Q142.103 1073.74 144.58 1073.74 Q148.584 1073.74 150.922 1071.64 Q153.26 1069.53 153.26 1065.92 Q153.26 1062.31 150.922 1060.2 Q148.584 1058.09 144.58 1058.09 Q142.705 1058.09 140.83 1058.51 Q138.978 1058.93 137.033 1059.81 L137.033 1042.45 Z" fill="#000000" fill-rule="nonzero" fill-opacity="1" /><path clip-path="url(#clip740)" d="M100.76 721.011 Q97.1493 721.011 95.3206 724.576 Q93.515 728.117 93.515 735.247 Q93.515 742.353 95.3206 745.918 Q97.1493 749.46 100.76 749.46 Q104.395 749.46 106.2 745.918 Q108.029 742.353 108.029 735.247 Q108.029 728.117 106.2 724.576 Q104.395 721.011 100.76 721.011 M100.76 717.307 Q106.571 717.307 109.626 721.914 Q112.705 726.497 112.705 735.247 Q112.705 743.974 109.626 748.58 Q106.571 753.164 100.76 753.164 Q94.9502 753.164 91.8715 748.58 Q88.816 743.974 88.816 735.247 Q88.816 726.497 91.8715 721.914 Q94.9502 717.307 100.76 717.307 Z" fill="#000000" fill-rule="nonzero" fill-opacity="1" /><path clip-path="url(#clip740)" d="M120.922 746.613 L125.807 746.613 L125.807 752.492 L120.922 752.492 L120.922 746.613 Z" fill="#000000" fill-rule="nonzero" fill-opacity="1" /><path clip-path="url(#clip740)" d="M145.992 721.011 Q142.381 721.011 140.552 724.576 Q138.746 728.117 138.746 735.247 Q138.746 742.353 140.552 745.918 Q142.381 749.46 145.992 749.46 Q149.626 749.46 151.431 745.918 Q153.26 742.353 153.26 735.247 Q153.26 728.117 151.431 724.576 Q149.626 721.011 145.992 721.011 M145.992 717.307 Q151.802 717.307 154.857 721.914 Q157.936 726.497 157.936 735.247 Q157.936 743.974 154.857 748.58 Q151.802 753.164 145.992 753.164 Q140.181 753.164 137.103 748.58 Q134.047 743.974 134.047 735.247 Q134.047 726.497 137.103 721.914 Q140.181 717.307 145.992 717.307 Z" fill="#000000" fill-rule="nonzero" fill-opacity="1" /><path clip-path="url(#clip740)" d="M101.756 396.498 Q98.1447 396.498 96.316 400.062 Q94.5104 403.604 94.5104 410.734 Q94.5104 417.84 96.316 421.405 Q98.1447 424.947 101.756 424.947 Q105.39 424.947 107.196 421.405 Q109.024 417.84 109.024 410.734 Q109.024 403.604 107.196 400.062 Q105.39 396.498 101.756 396.498 M101.756 392.794 Q107.566 392.794 110.621 397.4 Q113.7 401.984 113.7 410.734 Q113.7 419.46 110.621 424.067 Q107.566 428.65 101.756 428.65 Q95.9456 428.65 92.8669 424.067 Q89.8114 419.46 89.8114 410.734 Q89.8114 401.984 92.8669 397.4 Q95.9456 392.794 101.756 392.794 Z" fill="#000000" fill-rule="nonzero" fill-opacity="1" /><path clip-path="url(#clip740)" d="M121.918 422.099 L126.802 422.099 L126.802 427.979 L121.918 427.979 L121.918 422.099 Z" fill="#000000" fill-rule="nonzero" fill-opacity="1" /><path clip-path="url(#clip740)" d="M137.033 393.419 L155.39 393.419 L155.39 397.354 L141.316 397.354 L141.316 405.826 Q142.334 405.479 143.353 405.317 Q144.371 405.132 145.39 405.132 Q151.177 405.132 154.556 408.303 Q157.936 411.474 157.936 416.891 Q157.936 422.47 154.464 425.572 Q150.992 428.65 144.672 428.65 Q142.496 428.65 140.228 428.28 Q137.982 427.91 135.575 427.169 L135.575 422.47 Q137.658 423.604 139.881 424.16 Q142.103 424.715 144.58 424.715 Q148.584 424.715 150.922 422.609 Q153.26 420.502 153.26 416.891 Q153.26 413.28 150.922 411.174 Q148.584 409.067 144.58 409.067 Q142.705 409.067 140.83 409.484 Q138.978 409.9 137.033 410.78 L137.033 393.419 Z" fill="#000000" fill-rule="nonzero" fill-opacity="1" /><path clip-path="url(#clip740)" d="M91.5706 99.5305 L99.2095 99.5305 L99.2095 73.1649 L90.8993 74.8316 L90.8993 70.5723 L99.1632 68.9057 L103.839 68.9057 L103.839 99.5305 L111.478 99.5305 L111.478 103.466 L91.5706 103.466 L91.5706 99.5305 Z" fill="#000000" fill-rule="nonzero" fill-opacity="1" /><path clip-path="url(#clip740)" d="M120.922 97.5861 L125.807 97.5861 L125.807 103.466 L120.922 103.466 L120.922 97.5861 Z" fill="#000000" fill-rule="nonzero" fill-opacity="1" /><path clip-path="url(#clip740)" d="M145.992 71.9844 Q142.381 71.9844 140.552 75.5492 Q138.746 79.0908 138.746 86.2204 Q138.746 93.3268 140.552 96.8916 Q142.381 100.433 145.992 100.433 Q149.626 100.433 151.431 96.8916 Q153.26 93.3268 153.26 86.2204 Q153.26 79.0908 151.431 75.5492 Q149.626 71.9844 145.992 71.9844 M145.992 68.2807 Q151.802 68.2807 154.857 72.8871 Q157.936 77.4704 157.936 86.2204 Q157.936 94.9472 154.857 99.5537 Q151.802 104.137 145.992 104.137 Q140.181 104.137 137.103 99.5537 Q134.047 94.9472 134.047 86.2204 Q134.047 77.4704 137.103 72.8871 Q140.181 68.2807 145.992 68.2807 Z" fill="#000000" fill-rule="nonzero" fill-opacity="1" /><polyline clip-path="url(#clip742)" style="stroke:#009af9; stroke-linecap:round; stroke-linejoin:round; stroke-width:4; stroke-opacity:1; fill:none" points="255.035,86.1857 257.071,86.1857 259.108,86.1857 261.145,86.1857 263.181,86.1859 265.218,86.1862 267.254,86.1868 269.291,86.1877 271.328,86.1891 273.364,86.1911 275.401,86.1939 277.438,86.1977 279.474,86.2026 281.511,86.209 283.547,86.217 285.584,86.227 287.621,86.2391 289.657,86.2537 291.694,86.2711 293.731,86.2917 295.767,86.3159 297.804,86.3439 299.84,86.3762 301.877,86.4132 303.914,86.4554 305.95,86.5031 307.987,86.557 310.023,86.6175 312.06,86.685 314.097,86.7602 316.133,86.8435 318.17,86.9356 320.207,87.037 322.243,87.1484 324.28,87.2704 326.316,87.4036 328.353,87.5487 330.39,87.7064 332.426,87.8774 334.463,88.0624 336.5,88.2621 338.536,88.4774 340.573,88.7089 342.609,88.9576 344.646,89.2241 346.683,89.5093 348.719,89.8141 350.756,90.1394 352.793,90.486 354.829,90.8548 356.866,91.2468 358.902,91.6628 360.939,92.1039 362.976,92.5709 365.012,93.065 367.049,93.587 369.086,94.138 371.122,94.7189 373.159,95.331 375.195,95.9752 377.232,96.6525 379.269,97.3641 381.305,98.111 383.342,98.8945 385.379,99.7155 387.415,100.575 389.452,101.475 391.488,102.415 393.525,103.398 395.562,104.424 397.598,105.495 399.635,106.612 401.671,107.775 403.708,108.986 405.745,110.247 407.781,111.559 409.818,112.922 411.855,114.338 413.891,115.809 415.928,117.335 417.964,118.918 420.001,120.558 422.038,122.258 424.074,124.019 426.111,125.841 428.148,127.726 430.184,129.675 432.221,131.689 434.257,133.77 436.294,135.919 438.331,138.137 440.367,140.425 442.404,142.785 444.441,145.217 446.477,147.723 448.514,150.303 450.55,152.96 452.587,155.694 454.624,158.506 456.66,161.398 458.697,164.37 460.734,167.423 462.77,170.559 464.807,173.779 466.843,177.083 468.88,180.472 470.917,183.948 472.953,187.511 474.99,191.163 477.027,194.903 479.063,198.733 481.1,202.653 483.136,206.665 485.173,210.769 487.21,214.966 489.246,219.256 491.283,223.64 493.32,228.118 495.356,232.691 497.393,237.36 499.429,242.124 501.466,246.985 503.503,251.942 505.539,256.995 507.576,262.146 509.612,267.394 511.649,272.739 513.686,278.182 515.722,283.722 517.759,289.359 519.796,295.093 521.832,300.925 523.869,306.853 525.905,312.878 527.942,318.998 529.979,325.215 532.015,331.527 534.052,337.934 536.089,344.435 538.125,351.03 540.162,357.717 542.198,364.497 544.235,371.368 546.272,378.329 548.308,385.38 550.345,392.519 552.382,399.746 554.418,407.058 556.455,414.456 558.491,421.937 560.528,429.5 562.565,437.144 564.601,444.868 566.638,452.67 568.675,460.548 570.711,468.5 572.748,476.526 574.784,484.622 576.821,492.788 578.858,501.022 580.894,509.321 582.931,517.683 584.968,526.107 587.004,534.59 589.041,543.131 591.077,551.727 593.114,560.375 595.151,569.074 597.187,577.821 599.224,586.614 601.261,595.45 603.297,604.327 605.334,613.243 607.37,622.194 609.407,631.179 611.444,640.195 613.48,649.239 615.517,658.308 617.553,667.401 619.59,676.513 621.627,685.644 623.663,694.789 625.7,703.946 627.737,713.112 629.773,722.285 631.81,731.462 633.846,740.64 635.883,749.817 637.92,758.989 639.956,768.154 641.993,777.309 644.03,786.451 646.066,795.578 648.103,804.687 650.139,813.776 652.176,822.841 654.213,831.88 656.249,840.89 658.286,849.869 660.323,858.814 662.359,867.723 664.396,876.593 666.432,885.421 668.469,894.206 670.506,902.945 672.542,911.634 674.579,920.273 676.616,928.859 678.652,937.389 680.689,945.862 682.725,954.275 684.762,962.626 686.799,970.913 688.835,979.134 690.872,987.287 692.909,995.371 694.945,1003.38 696.982,1011.32 699.018,1019.19 701.055,1026.97 703.092,1034.68 705.128,1042.31 707.165,1049.86 709.202,1057.33 711.238,1064.71 713.275,1072.01 715.311,1079.22 717.348,1086.34 719.385,1093.37 721.421,1100.32 723.458,1107.17 725.494,1113.94 727.531,1120.61 729.568,1127.18 731.604,1133.67 733.641,1140.06 735.678,1146.35 737.714,1152.55 739.751,1158.65 741.787,1164.66 743.824,1170.57 745.861,1176.39 747.897,1182.1 749.934,1187.72 751.971,1193.24 754.007,1198.67 756.044,1204 758.08,1209.23 760.117,1214.36 762.154,1219.4 764.19,1224.33 766.227,1229.18 768.264,1233.92 770.3,1238.58 772.337,1243.13 774.373,1247.59 776.41,1251.96 778.447,1256.23 780.483,1260.41 782.52,1264.5 784.557,1268.49 786.593,1272.4 788.63,1276.21 790.666,1279.94 792.703,1283.57 794.74,1287.12 796.776,1290.58 798.813,1293.95 800.85,1297.24 802.886,1300.44 804.923,1303.56 806.959,1306.6 808.996,1309.56 811.033,1312.44 813.069,1315.23 815.106,1317.95 817.142,1320.6 819.179,1323.16 821.216,1325.66 823.252,1328.08 825.289,1330.42 827.326,1332.7 829.362,1334.9 831.399,1337.04 833.435,1339.11 835.472,1341.11 837.509,1343.05 839.545,1344.92 841.582,1346.73 843.619,1348.48 845.655,1350.17 847.692,1351.8 849.728,1353.37 851.765,1354.89 853.802,1356.35 855.838,1357.75 857.875,1359.11 859.912,1360.41 861.948,1361.66 863.985,1362.86 866.021,1364.02 868.058,1365.13 870.095,1366.19 872.131,1367.21 874.168,1368.18 876.205,1369.12 878.241,1370.01 880.278,1370.86 882.314,1371.68 884.351,1372.45 886.388,1373.19 888.424,1373.9 890.461,1374.57 892.498,1375.21 894.534,1375.81 896.571,1376.39 898.607,1376.93 900.644,1377.45 902.681,1377.94 904.717,1378.4 906.754,1378.84 908.791,1379.25 910.827,1379.64 912.864,1380 914.9,1380.35 916.937,1380.67 918.974,1380.97 921.01,1381.25 923.047,1381.51 925.083,1381.76 927.12,1381.99 929.157,1382.2 931.193,1382.4 933.23,1382.58 935.267,1382.75 937.303,1382.9 939.34,1383.05 941.376,1383.18 943.413,1383.3 945.45,1383.41 947.486,1383.51 949.523,1383.6 951.56,1383.68 953.596,1383.75 955.633,1383.82 957.669,1383.88 959.706,1383.93 961.743,1383.98 963.779,1384.02 965.816,1384.05 967.853,1384.09 969.889,1384.11 971.926,1384.14 973.962,1384.16 975.999,1384.17 978.036,1384.19 980.072,1384.2 982.109,1384.21 984.146,1384.22 986.182,1384.22 988.219,1384.23 990.255,1384.23 992.292,1384.23 994.329,1384.24 996.365,1384.24 998.402,1384.24 1000.44,1384.24 1002.48,1384.24 1004.51,1384.24 1006.55,1384.24 1008.59,1384.24 1010.62,1384.24 1012.66,1384.24 1014.69,1384.24 1016.73,1384.24 1018.77,1384.24 1020.8,1384.24 1022.84,1384.24 1024.88,1384.24 1026.91,1384.23 1028.95,1384.23 1030.99,1384.23 1033.02,1384.23 1035.06,1384.22 1037.1,1384.21 1039.13,1384.21 1041.17,1384.19 1043.21,1384.18 1045.24,1384.17 1047.28,1384.15 1049.32,1384.13 1051.35,1384.1 1053.39,1384.07 1055.43,1384.04 1057.46,1384 1059.5,1383.96 1061.54,1383.91 1063.57,1383.86 1065.61,1383.79 1067.65,1383.73 1069.68,1383.65 1071.72,1383.56 1073.76,1383.47 1075.79,1383.37 1077.83,1383.25 1079.87,1383.13 1081.9,1382.99 1083.94,1382.85 1085.98,1382.69 1088.01,1382.51 1090.05,1382.33 1092.09,1382.12 1094.12,1381.91 1096.16,1381.67 1098.2,1381.42 1100.23,1381.15 1102.27,1380.86 1104.31,1380.55 1106.34,1380.22 1108.38,1379.87 1110.42,1379.5 1112.45,1379.1 1114.49,1378.68 1116.53,1378.24 1118.56,1377.76 1120.6,1377.27 1122.64,1376.74 1124.67,1376.18 1126.71,1375.59 1128.75,1374.98 1130.78,1374.33 1132.82,1373.64 1134.86,1372.93 1136.89,1372.17 1138.93,1371.38 1140.97,1370.55 1143,1369.69 1145.04,1368.78 1147.08,1367.83 1149.11,1366.84 1151.15,1365.81 1153.19,1364.73 1155.22,1363.6 1157.26,1362.43 1159.3,1361.21 1161.33,1359.94 1163.37,1358.62 1165.4,1357.25 1167.44,1355.82 1169.48,1354.34 1171.51,1352.8 1173.55,1351.21 1175.59,1349.56 1177.62,1347.85 1179.66,1346.08 1181.7,1344.24 1183.73,1342.35 1185.77,1340.38 1187.81,1338.36 1189.84,1336.26 1191.88,1334.1 1193.92,1331.87 1195.95,1329.57 1197.99,1327.2 1200.03,1324.75 1202.06,1322.23 1204.1,1319.64 1206.14,1316.97 1208.17,1314.22 1210.21,1311.39 1212.25,1308.49 1214.28,1305.5 1216.32,1302.43 1218.36,1299.28 1220.39,1296.05 1222.43,1292.73 1224.47,1289.32 1226.5,1285.83 1228.54,1282.25 1230.58,1278.58 1232.61,1274.83 1234.65,1270.98 1236.69,1267.04 1238.72,1263.01 1240.76,1258.89 1242.8,1254.68 1244.83,1250.37 1246.87,1245.97 1248.91,1241.47 1250.94,1236.88 1252.98,1232.2 1255.02,1227.42 1257.05,1222.54 1259.09,1217.56 1261.13,1212.49 1263.16,1207.32 1265.2,1202.06 1267.24,1196.69 1269.27,1191.23 1271.31,1185.68 1273.35,1180.02 1275.38,1174.27 1277.42,1168.42 1279.46,1162.47 1281.49,1156.43 1283.53,1150.29 1285.57,1144.06 1287.6,1137.73 1289.64,1131.31 1291.68,1124.79 1293.71,1118.18 1295.75,1111.47 1297.79,1104.67 1299.82,1097.79 1301.86,1090.81 1303.9,1083.74 1305.93,1076.59 1307.97,1069.34 1310.01,1062.02 1312.04,1054.6 1314.08,1047.11 1316.12,1039.53 1318.15,1031.87 1320.19,1024.13 1322.22,1016.32 1324.26,1008.42 1326.3,1000.46 1328.33,992.42 1330.37,984.311 1332.41,976.132 1334.44,967.886 1336.48,959.576 1338.52,951.202 1340.55,942.767 1342.59,934.273 1344.63,925.722 1346.66,917.117 1348.7,908.459 1350.74,899.751 1352.77,890.996 1354.81,882.195 1356.85,873.351 1358.88,864.466 1360.92,855.544 1362.96,846.586 1364.99,837.595 1367.03,828.574 1369.07,819.525 1371.1,810.452 1373.14,801.355 1375.18,792.239 1377.21,783.106 1379.25,773.959 1381.29,764.8 1383.32,755.632 1385.36,746.458 1387.4,737.281 1389.43,728.103 1391.47,718.927 1393.51,709.756 1395.54,700.593 1397.58,691.44 1399.62,682.3 1401.65,673.176 1403.69,664.07 1405.73,654.986 1407.76,645.926 1409.8,636.892 1411.84,627.887 1413.87,618.914 1415.91,609.975 1417.95,601.073 1419.98,592.211 1422.02,583.39 1424.06,574.614 1426.09,565.884 1428.13,557.204 1430.17,548.574 1432.2,539.999 1434.24,531.479 1436.28,523.017 1438.31,514.616 1440.35,506.276 1442.39,498.001 1444.42,489.792 1446.46,481.651 1448.5,473.58 1450.53,465.582 1452.57,457.656 1454.61,449.806 1456.64,442.033 1458.68,434.338 1460.72,426.723 1462.75,419.19 1464.79,411.739 1466.83,404.373 1468.86,397.091 1470.9,389.897 1472.93,382.79 1474.97,375.772 1477.01,368.844 1479.04,362.006 1481.08,355.26 1483.12,348.606 1485.15,342.046 1487.19,335.579 1489.23,329.207 1491.26,322.93 1493.3,316.748 1495.34,310.663 1497.37,304.673 1499.41,298.78 1501.45,292.985 1503.48,287.286 1505.52,281.684 1507.56,276.18 1509.59,270.773 1511.63,265.464 1513.67,260.251 1515.7,255.136 1517.74,250.118 1519.78,245.196 1521.81,240.371 1523.85,235.641 1525.89,231.008 1527.92,226.469 1529.96,222.026 1532,217.677 1534.03,213.421 1536.07,209.258 1538.11,205.188 1540.14,201.21 1542.18,197.322 1544.22,193.525 1546.25,189.818 1548.29,186.199 1550.33,182.668 1552.36,179.224 1554.4,175.866 1556.44,172.593 1558.47,169.404 1560.51,166.298 1562.55,163.275 1564.58,160.332 1566.62,157.47 1568.66,154.686 1570.69,151.981 1572.73,149.352 1574.77,146.799 1576.8,144.32 1578.84,141.915 1580.88,139.581 1582.91,137.319 1584.95,135.127 1586.99,133.003 1589.02,130.946 1591.06,128.956 1593.1,127.03 1595.13,125.168 1597.17,123.369 1599.21,121.631 1601.24,119.953 1603.28,118.333 1605.32,116.772 1607.35,115.266 1609.39,113.816 1611.43,112.419 1613.46,111.075 1615.5,109.782 1617.54,108.539 1619.57,107.345 1621.61,106.199 1623.65,105.1 1625.68,104.046 1627.72,103.035 1629.75,102.068 1631.79,101.143 1633.83,100.258 1635.86,99.4123 1637.9,98.6052 1639.94,97.8352 1641.97,97.1013 1644.01,96.4024 1646.05,95.7373 1648.08,95.105 1650.12,94.5044 1652.16,93.9345 1654.19,93.3943 1656.23,92.8826 1658.27,92.3986 1660.3,91.9411 1662.34,91.5093 1664.38,91.1022 1666.41,90.7188 1668.45,90.3582 1670.49,90.0195 1672.52,89.7018 1674.56,89.4042 1676.6,89.1259 1678.63,88.866 1680.67,88.6238 1682.71,88.3983 1684.74,88.1888 1686.78,87.9945 1688.82,87.8147 1690.85,87.6487 1692.89,87.4956 1694.93,87.355 1696.96,87.2259 1699,87.1079 1701.04,87.0002 1703.07,86.9022 1705.11,86.8134 1707.15,86.7331 1709.18,86.6608 1711.22,86.5959 1713.26,86.5379 1715.29,86.4863 1717.33,86.4406 1719.37,86.4004 1721.4,86.3651 1723.44,86.3344 1725.48,86.3079 1727.51,86.2851 1729.55,86.2657 1731.59,86.2493 1733.62,86.2356 1735.66,86.2243 1737.7,86.2151 1739.73,86.2077 1741.77,86.2019 1743.81,86.1974 1745.84,86.194 1747.88,86.1915 1749.92,86.1897 1751.95,86.1885 1753.99,86.1877 1756.03,86.1873 1758.06,86.187 1760.1,86.1869 1762.14,86.1869 1764.17,86.1869 1766.21,86.1869 1768.25,86.1869 1770.28,86.1869 1772.32,86.187 1774.36,86.1872 1776.39,86.1876 1778.43,86.1882 1780.46,86.1893 1782.5,86.1909 1784.54,86.1932 1786.57,86.1963 1788.61,86.2005 1790.65,86.206 1792.68,86.213 1794.72,86.2217 1796.76,86.2324 1798.79,86.2454 1800.83,86.261 1802.87,86.2796 1804.9,86.3014 1806.94,86.3269 1808.98,86.3565 1811.01,86.3905 1813.05,86.4293 1815.09,86.4735 1817.12,86.5235 1819.16,86.5797 1821.2,86.6427 1823.23,86.713 1825.27,86.7911 1827.31,86.8776 1829.34,86.973 1831.38,87.0781 1833.42,87.1933 1835.45,87.3193 1837.49,87.4568 1839.53,87.6065 1841.56,87.769 1843.6,87.945 1845.64,88.1354 1847.67,88.3407 1849.71,88.5619 1851.75,88.7996 1853.78,89.0547 1855.82,89.328 1857.86,89.6203 1859.89,89.9326 1861.93,90.2656 1863.97,90.6202 1866,90.9974 1868.04,91.3981 1870.08,91.8233 1872.11,92.2738 1874.15,92.7506 1876.19,93.2548 1878.22,93.7873 1880.26,94.3492 1882.3,94.9415 1884.33,95.5652 1886.37,96.2214 1888.41,96.9112 1890.44,97.6357 1892.48,98.3959 1894.52,99.193 1896.55,100.028 1898.59,100.902 1900.63,101.817 1902.66,102.773 1904.7,103.771 1906.74,104.814 1908.77,105.901 1910.81,107.035 1912.85,108.216 1914.88,109.445 1916.92,110.724 1918.96,112.055 1920.99,113.437 1923.03,114.873 1925.07,116.364 1927.1,117.911 1929.14,119.515 1931.18,121.177 1933.21,122.899 1935.25,124.682 1937.28,126.527 1939.32,128.435 1941.36,130.408 1943.39,132.447 1945.43,134.553 1947.47,136.727 1949.5,138.97 1951.54,141.284 1953.58,143.67 1955.61,146.13 1957.65,148.663 1959.69,151.271 1961.72,153.956 1963.76,156.719 1965.8,159.56 1967.83,162.481 1969.87,165.483 1971.91,168.566 1973.94,171.733 1975.98,174.983 1978.02,178.319 1980.05,181.74 1982.09,185.247 1984.13,188.843 1986.16,192.526 1988.2,196.3 1990.24,200.163 1992.27,204.117 1994.31,208.162 1996.35,212.3 1998.38,216.531 2000.42,220.855 2002.46,225.274 2004.49,229.787 2006.53,234.395 2008.57,239.098 2010.6,243.898 2012.64,248.794 2014.68,253.786 2016.71,258.876 2018.75,264.062 2020.79,269.346 2022.82,274.727 2024.86,280.205 2026.9,285.781 2028.93,291.453 2030.97,297.223 2033.01,303.09 2035.04,309.054 2037.08,315.114 2039.12,321.27 2041.15,327.522 2043.19,333.869 2045.23,340.31 2047.26,346.846 2049.3,353.474 2051.34,360.196 2053.37,367.009 2055.41,373.913 2057.45,380.907 2059.48,387.991 2061.52,395.162 2063.56,402.42 2065.59,409.764 2067.63,417.192 2069.67,424.704 2071.7,432.297 2073.74,439.97 2075.78,447.723 2077.81,455.553 2079.85,463.458 2081.89,471.438 2083.92,479.489 2085.96,487.612 2087.99,495.803 2090.03,504.06 2092.07,512.383 2094.1,520.768 2096.14,529.214 2098.18,537.718 2100.21,546.279 2102.25,554.895 2104.29,563.562 2106.32,572.278 2108.36,581.043 2110.4,589.852 2112.43,598.703 2114.47,607.595 2116.51,616.524 2118.54,625.488 2120.58,634.484 2122.62,643.511 2124.65,652.564 2126.69,661.642 2128.73,670.742 2130.76,679.862 2132.8,688.998 2134.84,698.147 2136.87,707.308 2138.91,716.477 2140.95,725.652 2142.98,734.83 2145.02,744.007 2147.06,753.183 2149.09,762.352 2151.13,771.514 2153.17,780.665 2155.2,789.802 2157.24,798.923 2159.28,808.024 2161.31,817.105 2163.35,826.16 2165.39,835.189 2167.42,844.188 2169.46,853.155 2171.5,862.087 2173.53,870.982 2175.57,879.837 2177.61,888.649 2179.64,897.417 2181.68,906.138 2183.72,914.809 2185.75,923.429 2187.79,931.994 2189.83,940.504 2191.86,948.955 2193.9,957.345 2195.94,965.673 2197.97,973.936 2200.01,982.132 2202.05,990.261 2204.08,998.318 2206.12,1006.3 2208.16,1014.22 2210.19,1022.05 2212.23,1029.81 2214.27,1037.49 2216.3,1045.09 2218.34,1052.61 2220.38,1060.04 2222.41,1067.4 2224.45,1074.66 2226.49,1081.84 2228.52,1088.93 2230.56,1095.93 2232.6,1102.84 2234.63,1109.66 2236.67,1116.39 2238.71,1123.03 2240.74,1129.57 2242.78,1136.02 2244.81,1142.38 2246.85,1148.64 2248.89,1154.8 2250.92,1160.87 2252.96,1166.84 2255,1172.72 2257.03,1178.49 2259.07,1184.17 2261.11,1189.76 2263.14,1195.24 2265.18,1200.63 2267.22,1205.92 2269.25,1211.12 2271.29,1216.22 2273.33,1221.22 2275.36,1226.12 2277.4,1230.93 2279.44,1235.64 2281.47,1240.26 2283.51,1244.78 2285.55,1249.2 2287.58,1253.54 2289.62,1257.77 2291.66,1261.92 "/>
<polyline clip-path="url(#clip742)" style="stroke:#e26f46; stroke-linecap:round; stroke-linejoin:round; stroke-width:4; stroke-opacity:1; fill:none" points="255.035,735.212 257.071,735.245 259.108,735.342 261.145,735.504 263.181,735.731 265.218,736.024 267.254,736.381 269.291,736.802 271.328,737.289 273.364,737.841 275.401,738.457 277.438,739.139 279.474,739.885 281.511,740.696 283.547,741.573 285.584,742.514 287.621,743.52 289.657,744.59 291.694,745.726 293.731,746.926 295.767,748.192 297.804,749.522 299.84,750.917 301.877,752.377 303.914,753.901 305.95,755.49 307.987,757.144 310.023,758.863 312.06,760.646 314.097,762.494 316.133,764.407 318.17,766.384 320.207,768.425 322.243,770.531 324.28,772.701 326.316,774.935 328.353,777.234 330.39,779.596 332.426,782.023 334.463,784.514 336.5,787.068 338.536,789.686 340.573,792.367 342.609,795.112 344.646,797.92 346.683,800.791 348.719,803.726 350.756,806.722 352.793,809.782 354.829,812.903 356.866,816.087 358.902,819.333 360.939,822.64 362.976,826.009 365.012,829.439 367.049,832.929 369.086,836.48 371.122,840.091 373.159,843.762 375.195,847.493 377.232,851.282 379.269,855.131 381.305,859.037 383.342,863.001 385.379,867.023 387.415,871.102 389.452,875.236 391.488,879.427 393.525,883.673 395.562,887.974 397.598,892.329 399.635,896.737 401.671,901.198 403.708,905.711 405.745,910.276 407.781,914.891 409.818,919.557 411.855,924.272 413.891,929.035 415.928,933.845 417.964,938.702 420.001,943.605 422.038,948.553 424.074,953.545 426.111,958.579 428.148,963.655 430.184,968.772 432.221,973.929 434.257,979.125 436.294,984.357 438.331,989.626 440.367,994.93 442.404,1000.27 444.441,1005.64 446.477,1011.04 448.514,1016.47 450.55,1021.93 452.587,1027.42 454.624,1032.93 456.66,1038.46 458.697,1044.02 460.734,1049.6 462.77,1055.2 464.807,1060.81 466.843,1066.44 468.88,1072.09 470.917,1077.75 472.953,1083.42 474.99,1089.09 477.027,1094.78 479.063,1100.47 481.1,1106.16 483.136,1111.85 485.173,1117.55 487.21,1123.24 489.246,1128.92 491.283,1134.6 493.32,1140.27 495.356,1145.93 497.393,1151.58 499.429,1157.21 501.466,1162.82 503.503,1168.42 505.539,1173.99 507.576,1179.54 509.612,1185.06 511.649,1190.55 513.686,1196.02 515.722,1201.45 517.759,1206.84 519.796,1212.19 521.832,1217.51 523.869,1222.78 525.905,1228.01 527.942,1233.19 529.979,1238.32 532.015,1243.4 534.052,1248.42 536.089,1253.39 538.125,1258.3 540.162,1263.14 542.198,1267.93 544.235,1272.64 546.272,1277.29 548.308,1281.87 550.345,1286.37 552.382,1290.8 554.418,1295.15 556.455,1299.42 558.491,1303.61 560.528,1307.71 562.565,1311.73 564.601,1315.65 566.638,1319.49 568.675,1323.24 570.711,1326.88 572.748,1330.44 574.784,1333.89 576.821,1337.24 578.858,1340.49 580.894,1343.64 582.931,1346.68 584.968,1349.61 587.004,1352.43 589.041,1355.14 591.077,1357.74 593.114,1360.23 595.151,1362.59 597.187,1364.85 599.224,1366.98 601.261,1368.99 603.297,1370.88 605.334,1372.65 607.37,1374.3 609.407,1375.83 611.444,1377.23 613.48,1378.5 615.517,1379.65 617.553,1380.67 619.59,1381.56 621.627,1382.32 623.663,1382.96 625.7,1383.46 627.737,1383.84 629.773,1384.09 631.81,1384.21 633.846,1384.2 635.883,1384.05 637.92,1383.78 639.956,1383.38 641.993,1382.85 644.03,1382.19 646.066,1381.4 648.103,1380.49 650.139,1379.45 652.176,1378.28 654.213,1376.98 656.249,1375.56 658.286,1374.01 660.323,1372.34 662.359,1370.55 664.396,1368.63 666.432,1366.6 668.469,1364.44 670.506,1362.17 672.542,1359.78 674.579,1357.28 676.616,1354.66 678.652,1351.92 680.689,1349.08 682.725,1346.13 684.762,1343.07 686.799,1339.91 688.835,1336.64 690.872,1333.27 692.909,1329.79 694.945,1326.22 696.982,1322.56 699.018,1318.8 701.055,1314.94 703.092,1311 705.128,1306.96 707.165,1302.85 709.202,1298.64 711.238,1294.36 713.275,1289.99 715.311,1285.55 717.348,1281.03 719.385,1276.45 721.421,1271.79 723.458,1267.06 725.494,1262.26 727.531,1257.4 729.568,1252.49 731.604,1247.51 733.641,1242.47 735.678,1237.39 737.714,1232.25 739.751,1227.06 741.787,1221.82 743.824,1216.54 745.861,1211.22 747.897,1205.86 749.934,1200.46 751.971,1195.02 754.007,1189.55 756.044,1184.05 758.08,1178.53 760.117,1172.97 762.154,1167.4 764.19,1161.8 766.227,1156.18 768.264,1150.55 770.3,1144.9 772.337,1139.24 774.373,1133.57 776.41,1127.88 778.447,1122.2 780.483,1116.51 782.52,1110.81 784.557,1105.12 786.593,1099.43 788.63,1093.74 790.666,1088.05 792.703,1082.38 794.74,1076.71 796.776,1071.06 798.813,1065.41 800.85,1059.78 802.886,1054.17 804.923,1048.58 806.959,1043 808.996,1037.45 811.033,1031.92 813.069,1026.41 815.106,1020.93 817.142,1015.48 819.179,1010.05 821.216,1004.65 823.252,999.29 825.289,993.959 827.326,988.661 829.362,983.399 831.399,978.173 833.435,972.984 835.472,967.835 837.509,962.725 839.545,957.656 841.582,952.63 843.619,947.646 845.655,942.706 847.692,937.812 849.728,932.963 851.765,928.161 853.802,923.407 855.838,918.701 857.875,914.045 859.912,909.439 861.948,904.883 863.985,900.38 866.021,895.928 868.058,891.53 870.095,887.185 872.131,882.894 874.168,878.658 876.205,874.477 878.241,870.353 880.278,866.285 882.314,862.274 884.351,858.32 886.388,854.424 888.424,850.587 890.461,846.808 892.498,843.088 894.534,839.428 896.571,835.828 898.607,832.288 900.644,828.808 902.681,825.39 904.717,822.032 906.754,818.736 908.791,815.502 910.827,812.33 912.864,809.219 914.9,806.171 916.937,803.186 918.974,800.263 921.01,797.404 923.047,794.607 925.083,791.874 927.12,789.204 929.157,786.598 931.193,784.055 933.23,781.576 935.267,779.161 937.303,776.81 939.34,774.524 941.376,772.301 943.413,770.143 945.45,768.049 947.486,766.019 949.523,764.054 951.56,762.153 953.596,760.317 955.633,758.546 957.669,756.839 959.706,755.197 961.743,753.619 963.779,752.107 965.816,750.659 967.853,749.276 969.889,747.957 971.926,746.704 973.962,745.515 975.999,744.392 978.036,743.333 980.072,742.339 982.109,741.41 984.146,740.545 986.182,739.746 988.219,739.011 990.255,738.342 992.292,737.737 994.329,737.197 996.365,736.722 998.402,736.312 1000.44,735.967 1002.48,735.687 1004.51,735.472 1006.55,735.322 1008.59,735.236 1010.62,735.215 1012.66,735.26 1014.69,735.369 1016.73,735.543 1018.77,735.782 1020.8,736.086 1022.84,736.455 1024.88,736.889 1026.91,737.387 1028.95,737.951 1030.99,738.579 1033.02,739.273 1035.06,740.031 1037.1,740.854 1039.13,741.742 1041.17,742.695 1043.21,743.713 1045.24,744.795 1047.28,745.943 1049.32,747.155 1051.35,748.432 1053.39,749.774 1055.43,751.181 1057.46,752.653 1059.5,754.189 1061.54,755.79 1063.57,757.456 1065.61,759.187 1067.65,760.982 1069.68,762.841 1071.72,764.766 1073.76,766.754 1075.79,768.808 1077.83,770.925 1079.87,773.107 1081.9,775.353 1083.94,777.664 1085.98,780.038 1088.01,782.476 1090.05,784.978 1092.09,787.544 1094.12,790.174 1096.16,792.867 1098.2,795.623 1100.23,798.443 1102.27,801.326 1104.31,804.271 1106.34,807.28 1108.38,810.35 1110.42,813.484 1112.45,816.679 1114.49,819.936 1116.53,823.254 1118.56,826.634 1120.6,830.075 1122.64,833.577 1124.67,837.139 1126.71,840.761 1128.75,844.443 1130.78,848.184 1132.82,851.984 1134.86,855.843 1136.89,859.76 1138.93,863.735 1140.97,867.767 1143,871.856 1145.04,876.001 1147.08,880.202 1149.11,884.458 1151.15,888.769 1153.19,893.133 1155.22,897.551 1157.26,902.022 1159.3,906.545 1161.33,911.119 1163.37,915.744 1165.4,920.418 1167.44,925.142 1169.48,929.913 1171.51,934.732 1173.55,939.598 1175.59,944.509 1177.62,949.465 1179.66,954.465 1181.7,959.507 1183.73,964.591 1185.77,969.715 1187.81,974.879 1189.84,980.081 1191.88,985.321 1193.92,990.596 1195.95,995.906 1197.99,1001.25 1200.03,1006.63 1202.06,1012.03 1204.1,1017.47 1206.14,1022.93 1208.17,1028.42 1210.21,1033.94 1212.25,1039.48 1214.28,1045.04 1216.32,1050.62 1218.36,1056.22 1220.39,1061.84 1222.43,1067.48 1224.47,1073.12 1226.5,1078.78 1228.54,1084.46 1230.58,1090.13 1232.61,1095.82 1234.65,1101.51 1236.69,1107.2 1238.72,1112.9 1240.76,1118.59 1242.8,1124.28 1244.83,1129.97 1246.87,1135.64 1248.91,1141.31 1250.94,1146.97 1252.98,1152.61 1255.02,1158.24 1257.05,1163.85 1259.09,1169.44 1261.13,1175.01 1263.16,1180.55 1265.2,1186.07 1267.24,1191.56 1269.27,1197.01 1271.31,1202.44 1273.35,1207.82 1275.38,1213.17 1277.42,1218.48 1279.46,1223.74 1281.49,1228.96 1283.53,1234.13 1285.57,1239.25 1287.6,1244.32 1289.64,1249.34 1291.68,1254.29 1293.71,1259.19 1295.75,1264.02 1297.79,1268.8 1299.82,1273.5 1301.86,1278.13 1303.9,1282.7 1305.93,1287.19 1307.97,1291.6 1310.01,1295.94 1312.04,1300.19 1314.08,1304.36 1316.12,1308.45 1318.15,1312.45 1320.19,1316.36 1322.22,1320.18 1324.26,1323.91 1326.3,1327.54 1328.33,1331.08 1330.37,1334.51 1332.41,1337.85 1334.44,1341.08 1336.48,1344.2 1338.52,1347.22 1340.55,1350.14 1342.59,1352.94 1344.63,1355.63 1346.66,1358.21 1348.7,1360.67 1350.74,1363.01 1352.77,1365.24 1354.81,1367.36 1356.85,1369.35 1358.88,1371.22 1360.92,1372.97 1362.96,1374.59 1364.99,1376.09 1367.03,1377.47 1369.07,1378.72 1371.1,1379.84 1373.14,1380.84 1375.18,1381.71 1377.21,1382.45 1379.25,1383.06 1381.29,1383.54 1383.32,1383.9 1385.36,1384.12 1387.4,1384.21 1389.43,1384.18 1391.47,1384.01 1393.51,1383.72 1395.54,1383.29 1397.58,1382.74 1399.62,1382.06 1401.65,1381.25 1403.69,1380.31 1405.73,1379.24 1407.76,1378.05 1409.8,1376.73 1411.84,1375.28 1413.87,1373.71 1415.91,1372.02 1417.95,1370.2 1419.98,1368.27 1422.02,1366.21 1424.06,1364.03 1426.09,1361.74 1428.13,1359.33 1430.17,1356.8 1432.2,1354.16 1434.24,1351.41 1436.28,1348.55 1438.31,1345.58 1440.35,1342.5 1442.39,1339.32 1444.42,1336.03 1446.46,1332.64 1448.5,1329.15 1450.53,1325.56 1452.57,1321.87 1454.61,1318.1 1456.64,1314.23 1458.68,1310.26 1460.72,1306.22 1462.75,1302.08 1464.79,1297.86 1466.83,1293.56 1468.86,1289.19 1470.9,1284.73 1472.93,1280.2 1474.97,1275.6 1477.01,1270.92 1479.04,1266.18 1481.08,1261.38 1483.12,1256.51 1485.15,1251.58 1487.19,1246.59 1489.23,1241.55 1491.26,1236.45 1493.3,1231.3 1495.34,1226.1 1497.37,1220.86 1499.41,1215.57 1501.45,1210.24 1503.48,1204.87 1505.52,1199.46 1507.56,1194.02 1509.59,1188.55 1511.63,1183.04 1513.67,1177.51 1515.7,1171.95 1517.74,1166.37 1519.78,1160.77 1521.81,1155.15 1523.85,1149.51 1525.89,1143.86 1527.92,1138.2 1529.96,1132.53 1532,1126.84 1534.03,1121.16 1536.07,1115.46 1538.11,1109.77 1540.14,1104.08 1542.18,1098.38 1544.22,1092.7 1546.25,1087.01 1548.29,1081.34 1550.33,1075.67 1552.36,1070.02 1554.4,1064.38 1556.44,1058.76 1558.47,1053.15 1560.51,1047.56 1562.55,1041.98 1564.58,1036.43 1566.62,1030.91 1568.66,1025.41 1570.69,1019.93 1572.73,1014.48 1574.77,1009.06 1576.8,1003.67 1578.84,998.312 1580.88,992.986 1582.91,987.695 1584.95,982.439 1586.99,977.22 1589.02,972.039 1591.06,966.896 1593.1,961.794 1595.13,956.733 1597.17,951.714 1599.21,946.738 1601.24,941.807 1603.28,936.921 1605.32,932.081 1607.35,927.287 1609.39,922.542 1611.43,917.845 1613.46,913.198 1615.5,908.601 1617.54,904.055 1619.57,899.561 1621.61,895.119 1623.65,890.73 1625.68,886.395 1627.72,882.115 1629.75,877.889 1631.79,873.719 1633.83,869.604 1635.86,865.547 1637.9,861.546 1639.94,857.603 1641.97,853.718 1644.01,849.891 1646.05,846.123 1648.08,842.414 1650.12,838.765 1652.16,835.176 1654.19,831.647 1656.23,828.179 1658.27,824.771 1660.3,821.425 1662.34,818.141 1664.38,814.917 1666.41,811.756 1668.45,808.658 1670.49,805.621 1672.52,802.647 1674.56,799.736 1676.6,796.888 1678.63,794.103 1680.67,791.381 1682.71,788.723 1684.74,786.129 1686.78,783.598 1688.82,781.131 1690.85,778.727 1692.89,776.388 1694.93,774.113 1696.96,771.902 1699,769.756 1701.04,767.674 1703.07,765.656 1705.11,763.703 1707.15,761.814 1709.18,759.99 1711.22,758.23 1713.26,756.535 1715.29,754.905 1717.33,753.339 1719.37,751.838 1721.4,750.402 1723.44,749.031 1725.48,747.725 1727.51,746.483 1729.55,745.307 1731.59,744.195 1733.62,743.148 1735.66,742.166 1737.7,741.248 1739.73,740.396 1741.77,739.608 1743.81,738.886 1745.84,738.228 1747.88,737.635 1749.92,737.108 1751.95,736.645 1753.99,736.246 1756.03,735.913 1758.06,735.645 1760.1,735.442 1762.14,735.303 1764.17,735.23 1766.21,735.221 1768.25,735.277 1770.28,735.398 1772.32,735.584 1774.36,735.835 1776.39,736.151 1778.43,736.532 1780.46,736.978 1782.5,737.488 1784.54,738.064 1786.57,738.704 1788.61,739.409 1790.65,740.179 1792.68,741.014 1794.72,741.914 1796.76,742.879 1798.79,743.909 1800.83,745.003 1802.87,746.163 1804.9,747.387 1806.94,748.676 1808.98,750.03 1811.01,751.449 1813.05,752.932 1815.09,754.48 1817.12,756.093 1819.16,757.771 1821.2,759.513 1823.23,761.32 1825.27,763.192 1827.31,765.128 1829.34,767.128 1831.38,769.193 1833.42,771.323 1835.45,773.517 1837.49,775.774 1839.53,778.096 1841.56,780.483 1843.6,782.933 1845.64,785.447 1847.67,788.024 1849.71,790.665 1851.75,793.37 1853.78,796.138 1855.82,798.969 1857.86,801.864 1859.89,804.821 1861.93,807.841 1863.97,810.923 1866,814.067 1868.04,817.274 1870.08,820.542 1872.11,823.872 1874.15,827.263 1876.19,830.715 1878.22,834.228 1880.26,837.801 1882.3,841.434 1884.33,845.127 1886.37,848.879 1888.41,852.69 1890.44,856.56 1892.48,860.487 1894.52,864.473 1896.55,868.515 1898.59,872.615 1900.63,876.77 1902.66,880.981 1904.7,885.247 1906.74,889.568 1908.77,893.942 1910.81,898.37 1912.85,902.85 1914.88,907.382 1916.92,911.966 1918.96,916.599 1920.99,921.283 1923.03,926.015 1925.07,930.796 1927.1,935.624 1929.14,940.498 1931.18,945.417 1933.21,950.381 1935.25,955.389 1937.28,960.439 1939.32,965.53 1941.36,970.662 1943.39,975.833 1945.43,981.042 1947.47,986.288 1949.5,991.57 1951.54,996.886 1953.58,1002.24 1955.61,1007.62 1957.65,1013.03 1959.69,1018.47 1961.72,1023.94 1963.76,1029.44 1965.8,1034.96 1967.83,1040.5 1969.87,1046.07 1971.91,1051.65 1973.94,1057.26 1975.98,1062.88 1978.02,1068.51 1980.05,1074.16 1982.09,1079.83 1984.13,1085.5 1986.16,1091.18 1988.2,1096.86 1990.24,1102.56 1992.27,1108.25 1994.31,1113.94 1996.35,1119.64 1998.38,1125.33 2000.42,1131.01 2002.46,1136.69 2004.49,1142.35 2006.53,1148.01 2008.57,1153.65 2010.6,1159.27 2012.64,1164.88 2014.68,1170.47 2016.71,1176.03 2018.75,1181.57 2020.79,1187.08 2022.82,1192.56 2024.86,1198.01 2026.9,1203.43 2028.93,1208.81 2030.97,1214.15 2033.01,1219.45 2035.04,1224.71 2037.08,1229.92 2039.12,1235.08 2041.15,1240.19 2043.19,1245.25 2045.23,1250.25 2047.26,1255.2 2049.3,1260.08 2051.34,1264.91 2053.37,1269.66 2055.41,1274.36 2057.45,1278.98 2059.48,1283.53 2061.52,1288 2063.56,1292.4 2065.59,1296.72 2067.63,1300.96 2069.67,1305.12 2071.7,1309.19 2073.74,1313.18 2075.78,1317.07 2077.81,1320.87 2079.85,1324.58 2081.89,1328.2 2083.92,1331.72 2085.96,1335.13 2087.99,1338.45 2090.03,1341.66 2092.07,1344.77 2094.1,1347.77 2096.14,1350.66 2098.18,1353.44 2100.21,1356.11 2102.25,1358.67 2104.29,1361.11 2106.32,1363.43 2108.36,1365.64 2110.4,1367.73 2112.43,1369.7 2114.47,1371.55 2116.51,1373.27 2118.54,1374.87 2120.58,1376.35 2122.62,1377.71 2124.65,1378.93 2126.69,1380.03 2128.73,1381.01 2130.76,1381.85 2132.8,1382.57 2134.84,1383.16 2136.87,1383.62 2138.91,1383.95 2140.95,1384.15 2142.98,1384.22 2145.02,1384.16 2147.06,1383.97 2149.09,1383.65 2151.13,1383.2 2153.17,1382.62 2155.2,1381.92 2157.24,1381.08 2159.28,1380.12 2161.31,1379.03 2163.35,1377.81 2165.39,1376.47 2167.42,1375 2169.46,1373.41 2171.5,1371.7 2173.53,1369.86 2175.57,1367.9 2177.61,1365.82 2179.64,1363.62 2181.68,1361.31 2183.72,1358.87 2185.75,1356.33 2187.79,1353.67 2189.83,1350.89 2191.86,1348.01 2193.9,1345.02 2195.94,1341.92 2197.97,1338.72 2200.01,1335.41 2202.05,1332 2204.08,1328.5 2206.12,1324.89 2208.16,1321.19 2210.19,1317.39 2212.23,1313.5 2214.27,1309.53 2216.3,1305.46 2218.34,1301.31 2220.38,1297.08 2222.41,1292.77 2224.45,1288.37 2226.49,1283.9 2228.52,1279.36 2230.56,1274.74 2232.6,1270.06 2234.63,1265.3 2236.67,1260.49 2238.71,1255.61 2240.74,1250.67 2242.78,1245.67 2244.81,1240.61 2246.85,1235.51 2248.89,1230.35 2250.92,1225.14 2252.96,1219.89 2255,1214.59 2257.03,1209.25 2259.07,1203.88 2261.11,1198.46 2263.14,1193.02 2265.18,1187.54 2267.22,1182.03 2269.25,1176.49 2271.29,1170.93 2273.33,1165.35 2275.36,1159.74 2277.4,1154.12 2279.44,1148.48 2281.47,1142.82 2283.51,1137.16 2285.55,1131.48 2287.58,1125.8 2289.62,1120.11 2291.66,1114.42 "/>
<path clip-path="url(#clip740)" d="M2039.68 248.629 L2280.8 248.629 L2280.8 93.1086 L2039.68 93.1086  Z" fill="#ffffff" fill-rule="evenodd" fill-opacity="1"/>
<polyline clip-path="url(#clip740)" style="stroke:#000000; stroke-linecap:round; stroke-linejoin:round; stroke-width:4; stroke-opacity:1; fill:none" points="2039.68,248.629 2280.8,248.629 2280.8,93.1086 2039.68,93.1086 2039.68,248.629 "/>
<polyline clip-path="url(#clip740)" style="stroke:#009af9; stroke-linecap:round; stroke-linejoin:round; stroke-width:4; stroke-opacity:1; fill:none" points="2063.67,144.949 2207.59,144.949 "/>
<path clip-path="url(#clip740)" d="M2256.23 136.303 L2246.85 148.919 L2256.72 162.229 L2251.69 162.229 L2244.15 152.043 L2236.6 162.229 L2231.58 162.229 L2241.65 148.664 L2232.43 136.303 L2237.46 136.303 L2244.33 145.539 L2251.21 136.303 L2256.23 136.303 Z" fill="#000000" fill-rule="nonzero" fill-opacity="1" /><polyline clip-path="url(#clip740)" style="stroke:#e26f46; stroke-linecap:round; stroke-linejoin:round; stroke-width:4; stroke-opacity:1; fill:none" points="2063.67,196.789 2207.59,196.789 "/>
<path clip-path="url(#clip740)" d="M2245.42 216.476 Q2243.61 221.106 2241.9 222.518 Q2240.19 223.93 2237.32 223.93 L2233.91 223.93 L2233.91 220.365 L2236.41 220.365 Q2238.17 220.365 2239.15 219.532 Q2240.12 218.698 2241.3 215.596 L2242.06 213.652 L2231.58 188.143 L2236.09 188.143 L2244.19 208.421 L2252.29 188.143 L2256.81 188.143 L2245.42 216.476 Z" fill="#000000" fill-rule="nonzero" fill-opacity="1" /></svg>
