<?xml version="1.0" encoding="utf-8" standalone="no"?>
<!DOCTYPE svg PUBLIC "-//W3C//DTD SVG 1.1//EN"
  "http://www.w3.org/Graphics/SVG/1.1/DTD/svg11.dtd">
<svg xmlns:xlink="http://www.w3.org/1999/xlink" width="432pt" height="288pt" viewBox="0 0 432 288" xmlns="http://www.w3.org/2000/svg" version="1.1">
 <metadata>
  <rdf:RDF xmlns:dc="http://purl.org/dc/elements/1.1/" xmlns:cc="http://creativecommons.org/ns#" xmlns:rdf="http://www.w3.org/1999/02/22-rdf-syntax-ns#">
   <cc:Work>
    <dc:type rdf:resource="http://purl.org/dc/dcmitype/StillImage"/>
    <dc:date>2022-06-07T05:30:41.630272</dc:date>
    <dc:format>image/svg+xml</dc:format>
    <dc:creator>
     <cc:Agent>
      <dc:title>Matplotlib v3.5.2, https://matplotlib.org/</dc:title>
     </cc:Agent>
    </dc:creator>
   </cc:Work>
  </rdf:RDF>
 </metadata>
 <defs>
  <style type="text/css">*{stroke-linejoin: round; stroke-linecap: butt}</style>
 </defs>
 <g id="figure_1">
  <g id="patch_1">
   <path d="M 0 288 
L 432 288 
L 432 0 
L 0 0 
z
" style="fill: #ffffff"/>
  </g>
  <g id="axes_1">
   <g id="patch_2">
    <path d="M 26.644609 258.225354 
L 429.165354 258.225354 
L 429.165354 2.834646 
L 26.644609 2.834646 
z
" style="fill: #ffffff"/>
   </g>
   <g id="matplotlib.axis_1">
    <g id="xtick_1">
     <g id="line2d_1">
      <path d="M 38.036706 258.225354 
L 38.036706 2.834646 
" clip-path="url(#p64c0610235)" style="fill: none; stroke: #000000; stroke-opacity: 0.1; stroke-width: 0.5; stroke-linecap: square"/>
     </g>
     <g id="line2d_2">
      <defs>
       <path id="m0b9fca946c" d="M 0 0 
L 0 -2.5 
" style="stroke: #000000; stroke-width: 0.5"/>
      </defs>
      <g>
       <use xlink:href="#m0b9fca946c" x="38.036706" y="258.225354" style="stroke: #000000; stroke-width: 0.5"/>
      </g>
     </g>
     <g id="text_1">
      <!-- $0.0$ -->
      <g transform="translate(31.636706 267.804104)scale(0.08 -0.08)">
       <defs>
        <path id="DejaVuSans-30" d="M 2034 4250 
Q 1547 4250 1301 3770 
Q 1056 3291 1056 2328 
Q 1056 1369 1301 889 
Q 1547 409 2034 409 
Q 2525 409 2770 889 
Q 3016 1369 3016 2328 
Q 3016 3291 2770 3770 
Q 2525 4250 2034 4250 
z
M 2034 4750 
Q 2819 4750 3233 4129 
Q 3647 3509 3647 2328 
Q 3647 1150 3233 529 
Q 2819 -91 2034 -91 
Q 1250 -91 836 529 
Q 422 1150 422 2328 
Q 422 3509 836 4129 
Q 1250 4750 2034 4750 
z
" transform="scale(0.015625)"/>
        <path id="DejaVuSans-2e" d="M 684 794 
L 1344 794 
L 1344 0 
L 684 0 
L 684 794 
z
" transform="scale(0.015625)"/>
       </defs>
       <use xlink:href="#DejaVuSans-30" transform="translate(0 0.78125)"/>
       <use xlink:href="#DejaVuSans-2e" transform="translate(63.623047 0.78125)"/>
       <use xlink:href="#DejaVuSans-30" transform="translate(95.410156 0.78125)"/>
      </g>
     </g>
    </g>
    <g id="xtick_2">
     <g id="line2d_3">
      <path d="M 132.970844 258.225354 
L 132.970844 2.834646 
" clip-path="url(#p64c0610235)" style="fill: none; stroke: #000000; stroke-opacity: 0.1; stroke-width: 0.5; stroke-linecap: square"/>
     </g>
     <g id="line2d_4">
      <g>
       <use xlink:href="#m0b9fca946c" x="132.970844" y="258.225354" style="stroke: #000000; stroke-width: 0.5"/>
      </g>
     </g>
     <g id="text_2">
      <!-- $2.5$ -->
      <g transform="translate(126.570844 267.804104)scale(0.08 -0.08)">
       <defs>
        <path id="DejaVuSans-32" d="M 1228 531 
L 3431 531 
L 3431 0 
L 469 0 
L 469 531 
Q 828 903 1448 1529 
Q 2069 2156 2228 2338 
Q 2531 2678 2651 2914 
Q 2772 3150 2772 3378 
Q 2772 3750 2511 3984 
Q 2250 4219 1831 4219 
Q 1534 4219 1204 4116 
Q 875 4013 500 3803 
L 500 4441 
Q 881 4594 1212 4672 
Q 1544 4750 1819 4750 
Q 2544 4750 2975 4387 
Q 3406 4025 3406 3419 
Q 3406 3131 3298 2873 
Q 3191 2616 2906 2266 
Q 2828 2175 2409 1742 
Q 1991 1309 1228 531 
z
" transform="scale(0.015625)"/>
        <path id="DejaVuSans-35" d="M 691 4666 
L 3169 4666 
L 3169 4134 
L 1269 4134 
L 1269 2991 
Q 1406 3038 1543 3061 
Q 1681 3084 1819 3084 
Q 2600 3084 3056 2656 
Q 3513 2228 3513 1497 
Q 3513 744 3044 326 
Q 2575 -91 1722 -91 
Q 1428 -91 1123 -41 
Q 819 9 494 109 
L 494 744 
Q 775 591 1075 516 
Q 1375 441 1709 441 
Q 2250 441 2565 725 
Q 2881 1009 2881 1497 
Q 2881 1984 2565 2268 
Q 2250 2553 1709 2553 
Q 1456 2553 1204 2497 
Q 953 2441 691 2322 
L 691 4666 
z
" transform="scale(0.015625)"/>
       </defs>
       <use xlink:href="#DejaVuSans-32" transform="translate(0 0.78125)"/>
       <use xlink:href="#DejaVuSans-2e" transform="translate(63.623047 0.78125)"/>
       <use xlink:href="#DejaVuSans-35" transform="translate(95.410156 0.78125)"/>
      </g>
     </g>
    </g>
    <g id="xtick_3">
     <g id="line2d_5">
      <path d="M 227.904982 258.225354 
L 227.904982 2.834646 
" clip-path="url(#p64c0610235)" style="fill: none; stroke: #000000; stroke-opacity: 0.1; stroke-width: 0.5; stroke-linecap: square"/>
     </g>
     <g id="line2d_6">
      <g>
       <use xlink:href="#m0b9fca946c" x="227.904982" y="258.225354" style="stroke: #000000; stroke-width: 0.5"/>
      </g>
     </g>
     <g id="text_3">
      <!-- $5.0$ -->
      <g transform="translate(221.504982 267.804104)scale(0.08 -0.08)">
       <use xlink:href="#DejaVuSans-35" transform="translate(0 0.78125)"/>
       <use xlink:href="#DejaVuSans-2e" transform="translate(63.623047 0.78125)"/>
       <use xlink:href="#DejaVuSans-30" transform="translate(95.410156 0.78125)"/>
      </g>
     </g>
    </g>
    <g id="xtick_4">
     <g id="line2d_7">
      <path d="M 322.83912 258.225354 
L 322.83912 2.834646 
" clip-path="url(#p64c0610235)" style="fill: none; stroke: #000000; stroke-opacity: 0.1; stroke-width: 0.5; stroke-linecap: square"/>
     </g>
     <g id="line2d_8">
      <g>
       <use xlink:href="#m0b9fca946c" x="322.83912" y="258.225354" style="stroke: #000000; stroke-width: 0.5"/>
      </g>
     </g>
     <g id="text_4">
      <!-- $7.5$ -->
      <g transform="translate(316.43912 267.804104)scale(0.08 -0.08)">
       <defs>
        <path id="DejaVuSans-37" d="M 525 4666 
L 3525 4666 
L 3525 4397 
L 1831 0 
L 1172 0 
L 2766 4134 
L 525 4134 
L 525 4666 
z
" transform="scale(0.015625)"/>
       </defs>
       <use xlink:href="#DejaVuSans-37" transform="translate(0 0.09375)"/>
       <use xlink:href="#DejaVuSans-2e" transform="translate(63.623047 0.09375)"/>
       <use xlink:href="#DejaVuSans-35" transform="translate(95.410156 0.09375)"/>
      </g>
     </g>
    </g>
    <g id="xtick_5">
     <g id="line2d_9">
      <path d="M 417.773258 258.225354 
L 417.773258 2.834646 
" clip-path="url(#p64c0610235)" style="fill: none; stroke: #000000; stroke-opacity: 0.1; stroke-width: 0.5; stroke-linecap: square"/>
     </g>
     <g id="line2d_10">
      <g>
       <use xlink:href="#m0b9fca946c" x="417.773258" y="258.225354" style="stroke: #000000; stroke-width: 0.5"/>
      </g>
     </g>
     <g id="text_5">
      <!-- $10.0$ -->
      <g transform="translate(408.853258 267.804104)scale(0.08 -0.08)">
       <defs>
        <path id="DejaVuSans-31" d="M 794 531 
L 1825 531 
L 1825 4091 
L 703 3866 
L 703 4441 
L 1819 4666 
L 2450 4666 
L 2450 531 
L 3481 531 
L 3481 0 
L 794 0 
L 794 531 
z
" transform="scale(0.015625)"/>
       </defs>
       <use xlink:href="#DejaVuSans-31" transform="translate(0 0.78125)"/>
       <use xlink:href="#DejaVuSans-30" transform="translate(63.623047 0.78125)"/>
       <use xlink:href="#DejaVuSans-2e" transform="translate(127.246094 0.78125)"/>
       <use xlink:href="#DejaVuSans-30" transform="translate(159.033203 0.78125)"/>
      </g>
     </g>
    </g>
    <g id="text_6">
     <!-- t -->
     <g transform="translate(225.74881 281.826136)scale(0.11 -0.11)">
      <defs>
       <path id="DejaVuSans-74" d="M 1172 4494 
L 1172 3500 
L 2356 3500 
L 2356 3053 
L 1172 3053 
L 1172 1153 
Q 1172 725 1289 603 
Q 1406 481 1766 481 
L 2356 481 
L 2356 0 
L 1766 0 
Q 1100 0 847 248 
Q 594 497 594 1153 
L 594 3053 
L 172 3053 
L 172 3500 
L 594 3500 
L 594 4494 
L 1172 4494 
z
" transform="scale(0.015625)"/>
      </defs>
      <use xlink:href="#DejaVuSans-74"/>
     </g>
    </g>
   </g>
   <g id="matplotlib.axis_2">
    <g id="ytick_1">
     <g id="line2d_11">
      <path d="M 26.644609 250.997425 
L 429.165354 250.997425 
" clip-path="url(#p64c0610235)" style="fill: none; stroke: #000000; stroke-opacity: 0.1; stroke-width: 0.5; stroke-linecap: square"/>
     </g>
     <g id="line2d_12">
      <defs>
       <path id="m96ad598a3c" d="M 0 0 
L 2.5 0 
" style="stroke: #000000; stroke-width: 0.5"/>
      </defs>
      <g>
       <use xlink:href="#m96ad598a3c" x="26.644609" y="250.997425" style="stroke: #000000; stroke-width: 0.5"/>
      </g>
     </g>
     <g id="text_7">
      <!-- $-1.0$ -->
      <g transform="translate(3.704609 254.0368)scale(0.08 -0.08)">
       <defs>
        <path id="DejaVuSans-2212" d="M 678 2272 
L 4684 2272 
L 4684 1741 
L 678 1741 
L 678 2272 
z
" transform="scale(0.015625)"/>
       </defs>
       <use xlink:href="#DejaVuSans-2212" transform="translate(0 0.78125)"/>
       <use xlink:href="#DejaVuSans-31" transform="translate(83.789062 0.78125)"/>
       <use xlink:href="#DejaVuSans-2e" transform="translate(147.412109 0.78125)"/>
       <use xlink:href="#DejaVuSans-30" transform="translate(179.199219 0.78125)"/>
      </g>
     </g>
    </g>
    <g id="ytick_2">
     <g id="line2d_13">
      <path d="M 26.644609 190.76374 
L 429.165354 190.76374 
" clip-path="url(#p64c0610235)" style="fill: none; stroke: #000000; stroke-opacity: 0.1; stroke-width: 0.5; stroke-linecap: square"/>
     </g>
     <g id="line2d_14">
      <g>
       <use xlink:href="#m96ad598a3c" x="26.644609" y="190.76374" style="stroke: #000000; stroke-width: 0.5"/>
      </g>
     </g>
     <g id="text_8">
      <!-- $-0.5$ -->
      <g transform="translate(3.704609 193.803115)scale(0.08 -0.08)">
       <use xlink:href="#DejaVuSans-2212" transform="translate(0 0.78125)"/>
       <use xlink:href="#DejaVuSans-30" transform="translate(83.789062 0.78125)"/>
       <use xlink:href="#DejaVuSans-2e" transform="translate(147.412109 0.78125)"/>
       <use xlink:href="#DejaVuSans-35" transform="translate(179.199219 0.78125)"/>
      </g>
     </g>
    </g>
    <g id="ytick_3">
     <g id="line2d_15">
      <path d="M 26.644609 130.530055 
L 429.165354 130.530055 
" clip-path="url(#p64c0610235)" style="fill: none; stroke: #000000; stroke-opacity: 0.1; stroke-width: 0.5; stroke-linecap: square"/>
     </g>
     <g id="line2d_16">
      <g>
       <use xlink:href="#m96ad598a3c" x="26.644609" y="130.530055" style="stroke: #000000; stroke-width: 0.5"/>
      </g>
     </g>
     <g id="text_9">
      <!-- $0.0$ -->
      <g transform="translate(10.344609 133.56943)scale(0.08 -0.08)">
       <use xlink:href="#DejaVuSans-30" transform="translate(0 0.78125)"/>
       <use xlink:href="#DejaVuSans-2e" transform="translate(63.623047 0.78125)"/>
       <use xlink:href="#DejaVuSans-30" transform="translate(95.410156 0.78125)"/>
      </g>
     </g>
    </g>
    <g id="ytick_4">
     <g id="line2d_17">
      <path d="M 26.644609 70.29637 
L 429.165354 70.29637 
" clip-path="url(#p64c0610235)" style="fill: none; stroke: #000000; stroke-opacity: 0.1; stroke-width: 0.5; stroke-linecap: square"/>
     </g>
     <g id="line2d_18">
      <g>
       <use xlink:href="#m96ad598a3c" x="26.644609" y="70.29637" style="stroke: #000000; stroke-width: 0.5"/>
      </g>
     </g>
     <g id="text_10">
      <!-- $0.5$ -->
      <g transform="translate(10.344609 73.335745)scale(0.08 -0.08)">
       <use xlink:href="#DejaVuSans-30" transform="translate(0 0.78125)"/>
       <use xlink:href="#DejaVuSans-2e" transform="translate(63.623047 0.78125)"/>
       <use xlink:href="#DejaVuSans-35" transform="translate(95.410156 0.78125)"/>
      </g>
     </g>
    </g>
    <g id="ytick_5">
     <g id="line2d_19">
      <path d="M 26.644609 10.062685 
L 429.165354 10.062685 
" clip-path="url(#p64c0610235)" style="fill: none; stroke: #000000; stroke-opacity: 0.1; stroke-width: 0.5; stroke-linecap: square"/>
     </g>
     <g id="line2d_20">
      <g>
       <use xlink:href="#m96ad598a3c" x="26.644609" y="10.062685" style="stroke: #000000; stroke-width: 0.5"/>
      </g>
     </g>
     <g id="text_11">
      <!-- $1.0$ -->
      <g transform="translate(10.344609 13.10206)scale(0.08 -0.08)">
       <use xlink:href="#DejaVuSans-31" transform="translate(0 0.78125)"/>
       <use xlink:href="#DejaVuSans-2e" transform="translate(63.623047 0.78125)"/>
       <use xlink:href="#DejaVuSans-30" transform="translate(95.410156 0.78125)"/>
      </g>
     </g>
    </g>
   </g>
   <g id="line2d_21">
    <path d="M 38.036706 10.062685 
L 49.049066 10.169315 
L 53.226168 10.448103 
L 56.26406 10.860879 
L 58.922216 11.436456 
L 61.200635 12.137536 
L 63.479055 13.075128 
L 65.377737 14.069915 
L 67.27642 15.28815 
L 69.175103 16.758188 
L 71.073786 18.508696 
L 72.972468 20.568161 
L 74.871151 22.964313 
L 76.769834 25.723498 
L 78.668517 28.869981 
L 80.567199 32.425212 
L 82.465882 36.407058 
L 84.744302 41.767085 
L 87.022721 47.774156 
L 89.30114 54.429522 
L 91.579559 61.720728 
L 94.237715 70.99365 
L 97.275608 82.514626 
L 100.693237 96.472839 
L 104.870339 114.572337 
L 117.401645 169.629203 
L 120.819274 183.239174 
L 123.857166 194.38151 
L 126.515322 203.284909 
L 128.793742 210.241234 
L 131.072161 216.553334 
L 133.35058 222.216181 
L 135.629 227.237735 
L 137.527682 230.946151 
L 139.426365 234.238874 
L 141.325048 237.136138 
L 143.223731 239.661274 
L 145.122413 241.839954 
L 147.021096 243.699481 
L 148.919779 245.268137 
L 150.818462 246.574584 
L 152.717144 247.647343 
L 154.995564 248.66544 
L 157.273983 249.433517 
L 159.932139 250.071492 
L 162.970031 250.537019 
L 166.38766 250.822512 
L 170.944499 250.968947 
L 181.197386 250.997088 
L 189.931326 250.887953 
L 194.108429 250.604772 
L 197.146321 250.186859 
L 199.804477 249.605174 
L 202.082896 248.897512 
L 204.361315 247.951988 
L 206.259998 246.949502 
L 208.158681 245.722539 
L 210.057364 244.242726 
L 211.956046 242.481393 
L 213.854729 240.410071 
L 215.753412 238.001068 
L 217.652095 235.228104 
L 219.550778 232.067001 
L 221.44946 228.49643 
L 223.348143 224.498667 
L 225.626562 219.119029 
L 227.904982 213.092119 
L 230.183401 206.417089 
L 232.46182 199.106828 
L 235.119976 189.813062 
L 238.157869 178.270996 
L 241.575498 164.29379 
L 245.7526 146.179626 
L 257.904169 92.714641 
L 261.321798 79.012201 
L 264.359691 67.770652 
L 267.017847 58.771227 
L 269.676002 50.616671 
L 271.954422 44.324402 
L 274.232841 38.681327 
L 276.51126 33.67911 
L 278.409943 29.986245 
L 280.308626 26.708394 
L 282.207309 23.825195 
L 284.105991 21.31322 
L 286.004674 19.146724 
L 287.903357 17.298357 
L 289.80204 15.739813 
L 291.700722 14.442427 
L 293.599405 13.377692 
L 295.877825 12.367898 
L 298.156244 11.60675 
L 300.8144 10.975249 
L 303.852292 10.515223 
L 307.269921 10.233857 
L 311.82676 10.090296 
L 322.459383 10.063358 
L 330.813587 10.175056 
L 334.990689 10.462688 
L 338.028582 10.885792 
L 340.686738 11.473643 
L 342.965157 12.187944 
L 345.243576 13.141462 
L 347.142259 14.151704 
L 349.040942 15.387455 
L 350.939625 16.877106 
L 352.838307 18.64933 
L 354.73699 20.732576 
L 356.635673 23.154496 
L 358.534356 25.941307 
L 360.433038 29.117094 
L 362.331721 32.703068 
L 364.230404 36.716803 
L 366.508823 42.116115 
L 368.787243 48.162912 
L 371.065662 54.857645 
L 373.344081 62.186981 
L 376.002237 71.501594 
L 379.040129 83.064721 
L 382.457758 97.060853 
L 386.63486 115.189547 
L 398.78643 168.634704 
L 402.204059 182.3165 
L 405.241952 193.535832 
L 407.900107 202.513711 
L 410.558263 210.645536 
L 412.836683 216.91792 
L 415.115102 222.541184 
L 417.393521 227.524034 
L 417.773258 228.293502 
L 417.773258 228.293502 
" clip-path="url(#p64c0610235)" style="fill: none; stroke: #009afa"/>
   </g>
   <g id="line2d_22">
    <path d="M 38.036706 130.530055 
L 39.555652 130.626429 
L 41.074598 130.91555 
L 42.593544 131.397411 
L 44.11249 132.071986 
L 46.011173 133.1861 
L 47.909856 134.600917 
L 49.808539 136.31583 
L 51.707221 138.329769 
L 53.605904 140.641013 
L 55.884324 143.803209 
L 58.162743 147.38303 
L 60.441162 151.370739 
L 63.099318 156.52027 
L 65.757474 162.176772 
L 68.795366 169.210361 
L 72.212995 177.752443 
L 76.390097 188.884035 
L 89.30114 223.91311 
L 91.959296 230.283735 
L 94.237715 235.253573 
L 96.516135 239.674395 
L 98.414817 242.877798 
L 100.3135 245.597015 
L 101.832446 247.397747 
L 103.351393 248.847275 
L 104.870339 249.932037 
L 106.009548 250.49993 
L 107.148758 250.853757 
L 108.287968 250.991613 
L 109.427177 250.912757 
L 110.566387 250.617612 
L 111.705597 250.107769 
L 112.844806 249.385963 
L 114.363753 248.100653 
L 115.882699 246.457583 
L 117.401645 244.472017 
L 118.920591 242.162111 
L 120.819274 238.850426 
L 122.717957 235.109762 
L 124.996376 230.124604 
L 127.654532 223.739699 
L 131.072161 214.861096 
L 136.008736 201.302953 
L 143.223731 181.543323 
L 147.021096 171.818434 
L 150.058988 164.587882 
L 153.096881 157.941592 
L 155.755037 152.657247 
L 158.413193 147.902669 
L 160.691612 144.266664 
L 162.970031 141.047151 
L 165.248451 138.251194 
L 167.147133 136.248175 
L 169.045816 134.544231 
L 170.944499 133.140413 
L 172.843182 132.037313 
L 174.741864 131.235224 
L 176.260811 130.810365 
L 177.779757 130.578249 
L 179.298703 130.538881 
L 180.817649 130.69226 
L 182.336595 131.038386 
L 183.855542 131.577247 
L 185.754224 132.521798 
L 187.652907 133.767251 
L 189.55159 135.313188 
L 191.450273 137.158821 
L 193.348955 139.302822 
L 195.247638 141.743113 
L 197.526058 145.058173 
L 199.804477 148.787705 
L 202.082896 152.920679 
L 204.741052 158.231933 
L 207.399208 164.038897 
L 210.4371 171.226026 
L 213.854729 179.909959 
L 218.031831 191.156752 
L 229.044191 221.207408 
L 232.082084 228.68421 
L 234.74024 234.607294 
L 237.018659 239.107979 
L 238.917342 242.386411 
L 240.816024 245.187501 
L 242.334971 247.057992 
L 243.853917 248.580433 
L 245.372863 249.740618 
L 246.512073 250.36631 
L 247.651282 250.778653 
L 248.790492 250.975431 
L 249.929702 250.955583 
L 251.068911 250.719216 
L 252.208121 250.267604 
L 253.347331 249.603173 
L 254.48654 248.729476 
L 256.005487 247.247196 
L 257.524433 245.415111 
L 259.043379 243.250102 
L 260.942062 240.105765 
L 262.840744 236.515457 
L 265.119164 231.686361 
L 267.77732 225.448041 
L 270.815212 217.704053 
L 274.992314 206.380675 
L 284.865465 179.364531 
L 288.283093 170.715478 
L 291.320986 163.566437 
L 294.358878 157.012621 
L 297.017034 151.815861 
L 299.295453 147.785809 
L 301.573873 144.162407 
L 303.852292 140.955757 
L 306.130711 138.172835 
L 308.029394 136.180764 
L 309.928077 134.487818 
L 311.82676 133.095025 
L 313.725442 132.002966 
L 315.624125 131.211925 
L 317.143071 130.795906 
L 318.662018 130.57263 
L 320.180964 130.542102 
L 321.69991 130.704322 
L 323.218856 131.059288 
L 324.737802 131.606988 
L 326.636485 132.562584 
L 328.535168 133.819071 
L 330.433851 135.376021 
L 332.332534 137.232629 
L 334.231216 139.387542 
L 336.129899 141.838652 
L 338.408318 145.166513 
L 340.686738 148.908561 
L 342.965157 153.053652 
L 345.623313 158.378353 
L 348.281469 164.197767 
L 351.319361 171.397508 
L 354.73699 180.092932 
L 358.914092 191.348721 
L 369.926452 221.385984 
L 372.964345 228.847727 
L 375.6225 234.753445 
L 377.90092 239.236289 
L 379.799603 242.497938 
L 381.698285 245.280695 
L 383.217232 247.135552 
L 384.736178 248.641641 
L 386.255124 249.784898 
L 387.394334 250.397609 
L 388.533543 250.796805 
L 389.672753 250.980337 
L 390.811963 250.947217 
L 391.951172 250.697624 
L 393.090382 250.232902 
L 394.229592 249.555547 
L 395.368801 248.66918 
L 396.887747 247.170514 
L 398.406694 245.322755 
L 399.92564 243.142917 
L 401.824323 239.981406 
L 403.723005 236.375618 
L 406.001425 231.530386 
L 408.659581 225.276811 
L 411.697473 217.520226 
L 415.874575 206.187778 
L 417.773258 200.91534 
L 417.773258 200.91534 
" clip-path="url(#p64c0610235)" style="fill: none; stroke: #e36f47"/>
   </g>
   <g id="patch_3">
    <path d="M 26.644609 258.225354 
L 26.644609 2.834646 
" style="fill: none; stroke: #000000; stroke-linejoin: miter; stroke-linecap: square"/>
   </g>
   <g id="patch_4">
    <path d="M 26.644609 258.225354 
L 429.165354 258.225354 
" style="fill: none; stroke: #000000; stroke-linejoin: miter; stroke-linecap: square"/>
   </g>
   <g id="legend_1">
    <g id="patch_5">
     <path d="M 385.230354 39.119646 
L 425.165354 39.119646 
L 425.165354 6.834646 
L 385.230354 6.834646 
z
" style="fill: #ffffff; stroke: #000000; stroke-linejoin: miter"/>
    </g>
    <g id="line2d_23">
     <path d="M 391.630354 16.513396 
L 399.630354 16.513396 
L 407.630354 16.513396 
" style="fill: none; stroke: #009afa; stroke-linejoin: miter"/>
    </g>
    <g id="text_12">
     <!-- x -->
     <g transform="translate(414.030354 19.313396)scale(0.08 -0.08)">
      <defs>
       <path id="DejaVuSans-78" d="M 3513 3500 
L 2247 1797 
L 3578 0 
L 2900 0 
L 1881 1375 
L 863 0 
L 184 0 
L 1544 1831 
L 300 3500 
L 978 3500 
L 1906 2253 
L 2834 3500 
L 3513 3500 
z
" transform="scale(0.015625)"/>
      </defs>
      <use xlink:href="#DejaVuSans-78"/>
     </g>
    </g>
    <g id="line2d_24">
     <path d="M 391.630354 28.255896 
L 399.630354 28.255896 
L 407.630354 28.255896 
" style="fill: none; stroke: #e36f47; stroke-linejoin: miter"/>
    </g>
    <g id="text_13">
     <!-- y -->
     <g transform="translate(414.030354 31.055896)scale(0.08 -0.08)">
      <defs>
       <path id="DejaVuSans-79" d="M 2059 -325 
Q 1816 -950 1584 -1140 
Q 1353 -1331 966 -1331 
L 506 -1331 
L 506 -850 
L 844 -850 
Q 1081 -850 1212 -737 
Q 1344 -625 1503 -206 
L 1606 56 
L 191 3500 
L 800 3500 
L 1894 763 
L 2988 3500 
L 3597 3500 
L 2059 -325 
z
" transform="scale(0.015625)"/>
      </defs>
      <use xlink:href="#DejaVuSans-79"/>
     </g>
    </g>
   </g>
  </g>
 </g>
 <defs>
  <clipPath id="p64c0610235">
   <rect x="26.644609" y="2.834646" width="402.520745" height="255.390709"/>
  </clipPath>
 </defs>
</svg>
