<?xml version="1.0" encoding="utf-8"?>
<svg xmlns="http://www.w3.org/2000/svg" xmlns:xlink="http://www.w3.org/1999/xlink" width="600" height="400" viewBox="0 0 2400 1600">
<defs>
  <clipPath id="clip290">
    <rect x="0" y="0" width="2400" height="1600"/>
  </clipPath>
</defs>
<path clip-path="url(#clip290)" d="M0 1600 L2400 1600 L2400 0 L0 0  Z" fill="#ffffff" fill-rule="evenodd" fill-opacity="1"/>
<defs>
  <clipPath id="clip291">
    <rect x="480" y="0" width="1681" height="1600"/>
  </clipPath>
</defs>
<path clip-path="url(#clip290)" d="M482.992 1521.01 L1956.76 1521.01 L1956.76 47.2441 L482.992 47.2441  Z" fill="#ffffff" fill-rule="evenodd" fill-opacity="1"/>
<defs>
  <clipPath id="clip292">
    <rect x="482" y="47" width="1475" height="1475"/>
  </clipPath>
</defs>
<polyline clip-path="url(#clip290)" style="stroke:#000000; stroke-linecap:round; stroke-linejoin:round; stroke-width:4; stroke-opacity:1; fill:none" points="482.992,1521.01 1956.76,1521.01 "/>
<polyline clip-path="url(#clip290)" style="stroke:#000000; stroke-linecap:round; stroke-linejoin:round; stroke-width:4; stroke-opacity:1; fill:none" points="482.992,47.2441 1956.76,47.2441 "/>
<polyline clip-path="url(#clip290)" style="stroke:#000000; stroke-linecap:round; stroke-linejoin:round; stroke-width:4; stroke-opacity:1; fill:none" points="490.288,1521.01 490.288,1502.11 "/>
<polyline clip-path="url(#clip290)" style="stroke:#000000; stroke-linecap:round; stroke-linejoin:round; stroke-width:4; stroke-opacity:1; fill:none" points="855.081,1521.01 855.081,1502.11 "/>
<polyline clip-path="url(#clip290)" style="stroke:#000000; stroke-linecap:round; stroke-linejoin:round; stroke-width:4; stroke-opacity:1; fill:none" points="1219.87,1521.01 1219.87,1502.11 "/>
<polyline clip-path="url(#clip290)" style="stroke:#000000; stroke-linecap:round; stroke-linejoin:round; stroke-width:4; stroke-opacity:1; fill:none" points="1584.67,1521.01 1584.67,1502.11 "/>
<polyline clip-path="url(#clip290)" style="stroke:#000000; stroke-linecap:round; stroke-linejoin:round; stroke-width:4; stroke-opacity:1; fill:none" points="1949.46,1521.01 1949.46,1502.11 "/>
<path clip-path="url(#clip290)" d="M467.672 1551.93 Q464.061 1551.93 462.233 1555.49 Q460.427 1559.03 460.427 1566.16 Q460.427 1573.27 462.233 1576.83 Q464.061 1580.38 467.672 1580.38 Q471.307 1580.38 473.112 1576.83 Q474.941 1573.27 474.941 1566.16 Q474.941 1559.03 473.112 1555.49 Q471.307 1551.93 467.672 1551.93 M467.672 1548.22 Q473.483 1548.22 476.538 1552.83 Q479.617 1557.41 479.617 1566.16 Q479.617 1574.89 476.538 1579.5 Q473.483 1584.08 467.672 1584.08 Q461.862 1584.08 458.784 1579.5 Q455.728 1574.89 455.728 1566.16 Q455.728 1557.41 458.784 1552.83 Q461.862 1548.22 467.672 1548.22 Z" fill="#000000" fill-rule="nonzero" fill-opacity="1" /><path clip-path="url(#clip290)" d="M487.834 1577.53 L492.719 1577.53 L492.719 1583.41 L487.834 1583.41 L487.834 1577.53 Z" fill="#000000" fill-rule="nonzero" fill-opacity="1" /><path clip-path="url(#clip290)" d="M512.904 1551.93 Q509.293 1551.93 507.464 1555.49 Q505.658 1559.03 505.658 1566.16 Q505.658 1573.27 507.464 1576.83 Q509.293 1580.38 512.904 1580.38 Q516.538 1580.38 518.343 1576.83 Q520.172 1573.27 520.172 1566.16 Q520.172 1559.03 518.343 1555.49 Q516.538 1551.93 512.904 1551.93 M512.904 1548.22 Q518.714 1548.22 521.769 1552.83 Q524.848 1557.41 524.848 1566.16 Q524.848 1574.89 521.769 1579.5 Q518.714 1584.08 512.904 1584.08 Q507.093 1584.08 504.015 1579.5 Q500.959 1574.89 500.959 1566.16 Q500.959 1557.41 504.015 1552.83 Q507.093 1548.22 512.904 1548.22 Z" fill="#000000" fill-rule="nonzero" fill-opacity="1" /><path clip-path="url(#clip290)" d="M832.963 1551.93 Q829.352 1551.93 827.523 1555.49 Q825.718 1559.03 825.718 1566.16 Q825.718 1573.27 827.523 1576.83 Q829.352 1580.38 832.963 1580.38 Q836.597 1580.38 838.403 1576.83 Q840.232 1573.27 840.232 1566.16 Q840.232 1559.03 838.403 1555.49 Q836.597 1551.93 832.963 1551.93 M832.963 1548.22 Q838.773 1548.22 841.829 1552.83 Q844.907 1557.41 844.907 1566.16 Q844.907 1574.89 841.829 1579.5 Q838.773 1584.08 832.963 1584.08 Q827.153 1584.08 824.074 1579.5 Q821.019 1574.89 821.019 1566.16 Q821.019 1557.41 824.074 1552.83 Q827.153 1548.22 832.963 1548.22 Z" fill="#000000" fill-rule="nonzero" fill-opacity="1" /><path clip-path="url(#clip290)" d="M853.125 1577.53 L858.009 1577.53 L858.009 1583.41 L853.125 1583.41 L853.125 1577.53 Z" fill="#000000" fill-rule="nonzero" fill-opacity="1" /><path clip-path="url(#clip290)" d="M868.241 1548.85 L886.597 1548.85 L886.597 1552.78 L872.523 1552.78 L872.523 1561.26 Q873.542 1560.91 874.56 1560.75 Q875.579 1560.56 876.597 1560.56 Q882.384 1560.56 885.764 1563.73 Q889.143 1566.9 889.143 1572.32 Q889.143 1577.9 885.671 1581 Q882.199 1584.08 875.88 1584.08 Q873.704 1584.08 871.435 1583.71 Q869.19 1583.34 866.782 1582.6 L866.782 1577.9 Q868.866 1579.03 871.088 1579.59 Q873.31 1580.14 875.787 1580.14 Q879.792 1580.14 882.129 1578.04 Q884.467 1575.93 884.467 1572.32 Q884.467 1568.71 882.129 1566.6 Q879.792 1564.5 875.787 1564.5 Q873.912 1564.5 872.037 1564.91 Q870.185 1565.33 868.241 1566.21 L868.241 1548.85 Z" fill="#000000" fill-rule="nonzero" fill-opacity="1" /><path clip-path="url(#clip290)" d="M1187.03 1579.47 L1194.67 1579.47 L1194.67 1553.11 L1186.36 1554.77 L1186.36 1550.51 L1194.62 1548.85 L1199.3 1548.85 L1199.3 1579.47 L1206.93 1579.47 L1206.93 1583.41 L1187.03 1583.41 L1187.03 1579.47 Z" fill="#000000" fill-rule="nonzero" fill-opacity="1" /><path clip-path="url(#clip290)" d="M1216.38 1577.53 L1221.26 1577.53 L1221.26 1583.41 L1216.38 1583.41 L1216.38 1577.53 Z" fill="#000000" fill-rule="nonzero" fill-opacity="1" /><path clip-path="url(#clip290)" d="M1241.45 1551.93 Q1237.84 1551.93 1236.01 1555.49 Q1234.2 1559.03 1234.2 1566.16 Q1234.2 1573.27 1236.01 1576.83 Q1237.84 1580.38 1241.45 1580.38 Q1245.08 1580.38 1246.89 1576.83 Q1248.72 1573.27 1248.72 1566.16 Q1248.72 1559.03 1246.89 1555.49 Q1245.08 1551.93 1241.45 1551.93 M1241.45 1548.22 Q1247.26 1548.22 1250.31 1552.83 Q1253.39 1557.41 1253.39 1566.16 Q1253.39 1574.89 1250.31 1579.5 Q1247.26 1584.08 1241.45 1584.08 Q1235.64 1584.08 1232.56 1579.5 Q1229.5 1574.89 1229.5 1566.16 Q1229.5 1557.41 1232.56 1552.83 Q1235.64 1548.22 1241.45 1548.22 Z" fill="#000000" fill-rule="nonzero" fill-opacity="1" /><path clip-path="url(#clip290)" d="M1552.32 1579.47 L1559.96 1579.47 L1559.96 1553.11 L1551.65 1554.77 L1551.65 1550.51 L1559.91 1548.85 L1564.59 1548.85 L1564.59 1579.47 L1572.22 1579.47 L1572.22 1583.41 L1552.32 1583.41 L1552.32 1579.47 Z" fill="#000000" fill-rule="nonzero" fill-opacity="1" /><path clip-path="url(#clip290)" d="M1581.67 1577.53 L1586.55 1577.53 L1586.55 1583.41 L1581.67 1583.41 L1581.67 1577.53 Z" fill="#000000" fill-rule="nonzero" fill-opacity="1" /><path clip-path="url(#clip290)" d="M1596.79 1548.85 L1615.14 1548.85 L1615.14 1552.78 L1601.07 1552.78 L1601.07 1561.26 Q1602.09 1560.91 1603.1 1560.75 Q1604.12 1560.56 1605.14 1560.56 Q1610.93 1560.56 1614.31 1563.73 Q1617.69 1566.9 1617.69 1572.32 Q1617.69 1577.9 1614.22 1581 Q1610.74 1584.08 1604.42 1584.08 Q1602.25 1584.08 1599.98 1583.71 Q1597.73 1583.34 1595.33 1582.6 L1595.33 1577.9 Q1597.41 1579.03 1599.63 1579.59 Q1601.85 1580.14 1604.33 1580.14 Q1608.34 1580.14 1610.67 1578.04 Q1613.01 1575.93 1613.01 1572.32 Q1613.01 1568.71 1610.67 1566.6 Q1608.34 1564.5 1604.33 1564.5 Q1602.46 1564.5 1600.58 1564.91 Q1598.73 1565.33 1596.79 1566.21 L1596.79 1548.85 Z" fill="#000000" fill-rule="nonzero" fill-opacity="1" /><path clip-path="url(#clip290)" d="M1920.7 1579.47 L1937.02 1579.47 L1937.02 1583.41 L1915.07 1583.41 L1915.07 1579.47 Q1917.74 1576.72 1922.32 1572.09 Q1926.93 1567.44 1928.11 1566.09 Q1930.35 1563.57 1931.23 1561.83 Q1932.13 1560.07 1932.13 1558.38 Q1932.13 1555.63 1930.19 1553.89 Q1928.27 1552.16 1925.17 1552.16 Q1922.97 1552.16 1920.51 1552.92 Q1918.08 1553.69 1915.31 1555.24 L1915.31 1550.51 Q1918.13 1549.38 1920.58 1548.8 Q1923.04 1548.22 1925.07 1548.22 Q1930.44 1548.22 1933.64 1550.91 Q1936.83 1553.59 1936.83 1558.08 Q1936.83 1560.21 1936.02 1562.13 Q1935.24 1564.03 1933.13 1566.63 Q1932.55 1567.3 1929.45 1570.51 Q1926.35 1573.71 1920.7 1579.47 Z" fill="#000000" fill-rule="nonzero" fill-opacity="1" /><path clip-path="url(#clip290)" d="M1946.83 1577.53 L1951.72 1577.53 L1951.72 1583.41 L1946.83 1583.41 L1946.83 1577.53 Z" fill="#000000" fill-rule="nonzero" fill-opacity="1" /><path clip-path="url(#clip290)" d="M1971.9 1551.93 Q1968.29 1551.93 1966.46 1555.49 Q1964.66 1559.03 1964.66 1566.16 Q1964.66 1573.27 1966.46 1576.83 Q1968.29 1580.38 1971.9 1580.38 Q1975.54 1580.38 1977.34 1576.83 Q1979.17 1573.27 1979.17 1566.16 Q1979.17 1559.03 1977.34 1555.49 Q1975.54 1551.93 1971.9 1551.93 M1971.9 1548.22 Q1977.71 1548.22 1980.77 1552.83 Q1983.85 1557.41 1983.85 1566.16 Q1983.85 1574.89 1980.77 1579.5 Q1977.71 1584.08 1971.9 1584.08 Q1966.09 1584.08 1963.01 1579.5 Q1959.96 1574.89 1959.96 1566.16 Q1959.96 1557.41 1963.01 1552.83 Q1966.09 1548.22 1971.9 1548.22 Z" fill="#000000" fill-rule="nonzero" fill-opacity="1" /><polyline clip-path="url(#clip290)" style="stroke:#000000; stroke-linecap:round; stroke-linejoin:round; stroke-width:4; stroke-opacity:1; fill:none" points="482.992,1521.01 482.992,47.2441 "/>
<polyline clip-path="url(#clip290)" style="stroke:#000000; stroke-linecap:round; stroke-linejoin:round; stroke-width:4; stroke-opacity:1; fill:none" points="1956.76,1521.01 1956.76,47.2441 "/>
<polyline clip-path="url(#clip290)" style="stroke:#000000; stroke-linecap:round; stroke-linejoin:round; stroke-width:4; stroke-opacity:1; fill:none" points="482.992,1513.71 495.284,1513.71 "/>
<polyline clip-path="url(#clip290)" style="stroke:#000000; stroke-linecap:round; stroke-linejoin:round; stroke-width:4; stroke-opacity:1; fill:none" points="482.992,1148.92 495.284,1148.92 "/>
<polyline clip-path="url(#clip290)" style="stroke:#000000; stroke-linecap:round; stroke-linejoin:round; stroke-width:4; stroke-opacity:1; fill:none" points="482.992,784.126 495.284,784.126 "/>
<polyline clip-path="url(#clip290)" style="stroke:#000000; stroke-linecap:round; stroke-linejoin:round; stroke-width:4; stroke-opacity:1; fill:none" points="482.992,419.333 495.284,419.333 "/>
<polyline clip-path="url(#clip290)" style="stroke:#000000; stroke-linecap:round; stroke-linejoin:round; stroke-width:4; stroke-opacity:1; fill:none" points="482.992,54.54 495.284,54.54 "/>
<path clip-path="url(#clip290)" d="M389.817 1499.51 Q386.205 1499.51 384.377 1503.08 Q382.571 1506.62 382.571 1513.75 Q382.571 1520.85 384.377 1524.42 Q386.205 1527.96 389.817 1527.96 Q393.451 1527.96 395.256 1524.42 Q397.085 1520.85 397.085 1513.75 Q397.085 1506.62 395.256 1503.08 Q393.451 1499.51 389.817 1499.51 M389.817 1495.81 Q395.627 1495.81 398.682 1500.41 Q401.761 1505 401.761 1513.75 Q401.761 1522.47 398.682 1527.08 Q395.627 1531.66 389.817 1531.66 Q384.006 1531.66 380.928 1527.08 Q377.872 1522.47 377.872 1513.75 Q377.872 1505 380.928 1500.41 Q384.006 1495.81 389.817 1495.81 Z" fill="#000000" fill-rule="nonzero" fill-opacity="1" /><path clip-path="url(#clip290)" d="M409.978 1525.11 L414.863 1525.11 L414.863 1530.99 L409.978 1530.99 L409.978 1525.11 Z" fill="#000000" fill-rule="nonzero" fill-opacity="1" /><path clip-path="url(#clip290)" d="M435.048 1499.51 Q431.437 1499.51 429.608 1503.08 Q427.802 1506.62 427.802 1513.75 Q427.802 1520.85 429.608 1524.42 Q431.437 1527.96 435.048 1527.96 Q438.682 1527.96 440.488 1524.42 Q442.316 1520.85 442.316 1513.75 Q442.316 1506.62 440.488 1503.08 Q438.682 1499.51 435.048 1499.51 M435.048 1495.81 Q440.858 1495.81 443.913 1500.41 Q446.992 1505 446.992 1513.75 Q446.992 1522.47 443.913 1527.08 Q440.858 1531.66 435.048 1531.66 Q429.238 1531.66 426.159 1527.08 Q423.103 1522.47 423.103 1513.75 Q423.103 1505 426.159 1500.41 Q429.238 1495.81 435.048 1495.81 Z" fill="#000000" fill-rule="nonzero" fill-opacity="1" /><path clip-path="url(#clip290)" d="M390.812 1134.72 Q387.201 1134.72 385.372 1138.28 Q383.567 1141.82 383.567 1148.95 Q383.567 1156.06 385.372 1159.62 Q387.201 1163.17 390.812 1163.17 Q394.446 1163.17 396.252 1159.62 Q398.08 1156.06 398.08 1148.95 Q398.08 1141.82 396.252 1138.28 Q394.446 1134.72 390.812 1134.72 M390.812 1131.01 Q396.622 1131.01 399.678 1135.62 Q402.756 1140.2 402.756 1148.95 Q402.756 1157.68 399.678 1162.29 Q396.622 1166.87 390.812 1166.87 Q385.002 1166.87 381.923 1162.29 Q378.867 1157.68 378.867 1148.95 Q378.867 1140.2 381.923 1135.62 Q385.002 1131.01 390.812 1131.01 Z" fill="#000000" fill-rule="nonzero" fill-opacity="1" /><path clip-path="url(#clip290)" d="M410.974 1160.32 L415.858 1160.32 L415.858 1166.2 L410.974 1166.2 L410.974 1160.32 Z" fill="#000000" fill-rule="nonzero" fill-opacity="1" /><path clip-path="url(#clip290)" d="M426.089 1131.64 L444.446 1131.64 L444.446 1135.57 L430.372 1135.57 L430.372 1144.05 Q431.39 1143.7 432.409 1143.54 Q433.427 1143.35 434.446 1143.35 Q440.233 1143.35 443.613 1146.52 Q446.992 1149.69 446.992 1155.11 Q446.992 1160.69 443.52 1163.79 Q440.048 1166.87 433.728 1166.87 Q431.552 1166.87 429.284 1166.5 Q427.039 1166.13 424.631 1165.39 L424.631 1160.69 Q426.714 1161.82 428.937 1162.38 Q431.159 1162.94 433.636 1162.94 Q437.64 1162.94 439.978 1160.83 Q442.316 1158.72 442.316 1155.11 Q442.316 1151.5 439.978 1149.39 Q437.64 1147.29 433.636 1147.29 Q431.761 1147.29 429.886 1147.7 Q428.034 1148.12 426.089 1149 L426.089 1131.64 Z" fill="#000000" fill-rule="nonzero" fill-opacity="1" /><path clip-path="url(#clip290)" d="M380.627 797.471 L388.266 797.471 L388.266 771.105 L379.955 772.772 L379.955 768.513 L388.219 766.846 L392.895 766.846 L392.895 797.471 L400.534 797.471 L400.534 801.406 L380.627 801.406 L380.627 797.471 Z" fill="#000000" fill-rule="nonzero" fill-opacity="1" /><path clip-path="url(#clip290)" d="M409.978 795.526 L414.863 795.526 L414.863 801.406 L409.978 801.406 L409.978 795.526 Z" fill="#000000" fill-rule="nonzero" fill-opacity="1" /><path clip-path="url(#clip290)" d="M435.048 769.925 Q431.437 769.925 429.608 773.489 Q427.802 777.031 427.802 784.161 Q427.802 791.267 429.608 794.832 Q431.437 798.374 435.048 798.374 Q438.682 798.374 440.488 794.832 Q442.316 791.267 442.316 784.161 Q442.316 777.031 440.488 773.489 Q438.682 769.925 435.048 769.925 M435.048 766.221 Q440.858 766.221 443.913 770.827 Q446.992 775.411 446.992 784.161 Q446.992 792.888 443.913 797.494 Q440.858 802.077 435.048 802.077 Q429.238 802.077 426.159 797.494 Q423.103 792.888 423.103 784.161 Q423.103 775.411 426.159 770.827 Q429.238 766.221 435.048 766.221 Z" fill="#000000" fill-rule="nonzero" fill-opacity="1" /><path clip-path="url(#clip290)" d="M381.622 432.678 L389.261 432.678 L389.261 406.312 L380.951 407.979 L380.951 403.72 L389.215 402.053 L393.891 402.053 L393.891 432.678 L401.529 432.678 L401.529 436.613 L381.622 436.613 L381.622 432.678 Z" fill="#000000" fill-rule="nonzero" fill-opacity="1" /><path clip-path="url(#clip290)" d="M410.974 430.733 L415.858 430.733 L415.858 436.613 L410.974 436.613 L410.974 430.733 Z" fill="#000000" fill-rule="nonzero" fill-opacity="1" /><path clip-path="url(#clip290)" d="M426.089 402.053 L444.446 402.053 L444.446 405.988 L430.372 405.988 L430.372 414.46 Q431.39 414.113 432.409 413.951 Q433.427 413.766 434.446 413.766 Q440.233 413.766 443.613 416.937 Q446.992 420.108 446.992 425.525 Q446.992 431.104 443.52 434.206 Q440.048 437.284 433.728 437.284 Q431.552 437.284 429.284 436.914 Q427.039 436.544 424.631 435.803 L424.631 431.104 Q426.714 432.238 428.937 432.794 Q431.159 433.349 433.636 433.349 Q437.64 433.349 439.978 431.243 Q442.316 429.136 442.316 425.525 Q442.316 421.914 439.978 419.808 Q437.64 417.701 433.636 417.701 Q431.761 417.701 429.886 418.118 Q428.034 418.534 426.089 419.414 L426.089 402.053 Z" fill="#000000" fill-rule="nonzero" fill-opacity="1" /><path clip-path="url(#clip290)" d="M383.844 67.8848 L400.164 67.8848 L400.164 71.82 L378.219 71.82 L378.219 67.8848 Q380.881 65.1302 385.465 60.5006 Q390.071 55.8478 391.252 54.5052 Q393.497 51.9821 394.377 50.246 Q395.279 48.4867 395.279 46.7969 Q395.279 44.0423 393.335 42.3062 Q391.414 40.5701 388.312 40.5701 Q386.113 40.5701 383.659 41.334 Q381.229 42.0979 378.451 43.6488 L378.451 38.9266 Q381.275 37.7924 383.729 37.2137 Q386.182 36.635 388.219 36.635 Q393.59 36.635 396.784 39.3201 Q399.978 42.0053 399.978 46.496 Q399.978 48.6256 399.168 50.5469 Q398.381 52.4451 396.275 55.0376 Q395.696 55.7089 392.594 58.9265 Q389.492 62.1209 383.844 67.8848 Z" fill="#000000" fill-rule="nonzero" fill-opacity="1" /><path clip-path="url(#clip290)" d="M409.978 65.9404 L414.863 65.9404 L414.863 71.82 L409.978 71.82 L409.978 65.9404 Z" fill="#000000" fill-rule="nonzero" fill-opacity="1" /><path clip-path="url(#clip290)" d="M435.048 40.3386 Q431.437 40.3386 429.608 43.9034 Q427.802 47.4451 427.802 54.5747 Q427.802 61.6811 429.608 65.2459 Q431.437 68.7876 435.048 68.7876 Q438.682 68.7876 440.488 65.2459 Q442.316 61.6811 442.316 54.5747 Q442.316 47.4451 440.488 43.9034 Q438.682 40.3386 435.048 40.3386 M435.048 36.635 Q440.858 36.635 443.913 41.2414 Q446.992 45.8247 446.992 54.5747 Q446.992 63.3015 443.913 67.9079 Q440.858 72.4912 435.048 72.4912 Q429.238 72.4912 426.159 67.9079 Q423.103 63.3015 423.103 54.5747 Q423.103 45.8247 426.159 41.2414 Q429.238 36.635 435.048 36.635 Z" fill="#000000" fill-rule="nonzero" fill-opacity="1" /><polyline clip-path="url(#clip292)" style="stroke:#ed6825; stroke-linecap:round; stroke-linejoin:round; stroke-width:4; stroke-opacity:1; fill:none" points="482.992,1315.71 486.133,1316.72 497.584,1320.35 512.176,1324.56 526.767,1328.33 539.767,1331.32 541.359,1331.68 555.951,1334.65 570.542,1337.21 585.134,1339.38 599.726,1341.14 614.318,1342.52 628.909,1343.51 643.501,1344.13 658.093,1344.36 672.684,1344.22 687.276,1343.7 701.868,1342.81 716.46,1341.53 731.051,1339.86 745.643,1337.8 760.235,1335.33 774.827,1332.44 779.71,1331.32 789.418,1329.2 804.01,1325.56 818.602,1321.45 833.193,1316.86 833.58,1316.72 847.785,1311.96 862.377,1306.53 873.03,1302.13 876.969,1300.6 891.56,1294.28 905.624,1287.54 906.152,1287.3 920.744,1279.99 933.423,1272.95 935.335,1271.95 949.927,1263.48 957.883,1258.36 964.519,1254.33 979.111,1244.46 980.037,1243.77 993.702,1234.07 999.874,1229.17 1008.29,1222.87 1018.15,1214.58 1022.89,1210.83 1035.01,1199.99 1037.48,1197.9 1050.57,1185.4 1052.07,1184.04 1064.97,1170.81 1066.66,1169.16 1078.33,1156.21 1081.25,1153.13 1090.73,1141.62 1095.84,1133.92 1099.39,1127.03 1101.09,1112.44 1101.13,1097.85 1101.13,1083.26 1101.13,1068.66 1101.13,1054.07 1101.13,1039.48 1101.13,1024.89 1101.13,1010.3 1101.13,995.706 1101.12,981.114 1101.12,966.522 1101.12,951.931 1101.11,937.339 1101.11,922.747 1101.11,908.156 1101.11,893.564 1101.1,878.972 1101.1,864.38 1101.1,849.789 1101.1,835.197 1101.09,820.605 1101.09,806.014 1101.09,791.422 1101.09,776.83 1101.09,762.238 1101.09,747.647 1101.1,733.055 1101.1,718.463 1101.1,703.872 1101.1,689.28 1101.11,674.688 1101.11,660.096 1101.11,645.505 1101.11,630.913 1101.12,616.321 1101.12,601.729 1101.12,587.138 1101.13,572.546 1101.13,557.954 1101.13,543.363 1101.13,528.771 1101.13,514.179 1101.13,499.587 1101.13,484.996 1101.13,470.404 1101.09,455.812 1099.39,441.221 1095.84,434.337 1090.73,426.629 1081.25,415.126 1078.33,412.037 1066.66,399.092 1064.97,397.445 1052.07,384.208 1050.57,382.854 1037.48,370.347 1035.01,368.262 1022.89,357.425 1018.15,353.67 1008.29,345.383 999.874,339.079 993.702,334.181 980.037,324.487 979.111,323.791 964.519,313.923 957.883,309.895 949.927,304.767 935.335,296.302 933.423,295.303 920.744,288.265 906.152,280.95 905.624,280.712 891.56,273.975 876.969,267.653 873.03,266.12 862.377,261.718 847.785,256.291 833.58,251.528 833.193,251.391 818.602,246.797 804.01,242.696 789.418,239.055 779.71,236.936 774.827,235.808 760.235,232.918 745.643,230.449 731.051,228.388 716.46,226.723 701.868,225.446 687.276,224.55 672.684,224.032 658.093,223.891 643.501,224.126 628.909,224.738 614.318,225.731 599.726,227.109 585.134,228.876 570.542,231.039 555.951,233.603 541.359,236.576 539.767,236.936 526.767,239.924 512.176,243.694 497.584,247.901 486.133,251.528 482.992,252.545 "/>
<polyline clip-path="url(#clip292)" style="stroke:#f7850e; stroke-linecap:round; stroke-linejoin:round; stroke-width:4; stroke-opacity:1; fill:none" points="482.992,568.161 489.662,557.954 497.584,546.93 500.174,543.363 511.732,528.771 512.176,528.251 524.417,514.179 526.767,511.68 538.446,499.587 541.359,496.782 554.022,484.996 555.951,483.317 570.542,471.111 571.422,470.404 585.134,460.034 591.044,455.812 599.726,449.947 613.569,441.221 614.318,440.772 628.909,432.444 640.045,426.629 643.501,424.902 658.093,418.088 672.571,412.037 672.684,411.992 687.276,406.522 701.868,401.707 716.46,397.526 716.774,397.445 731.051,393.884 745.643,390.831 760.235,388.35 774.827,386.427 789.418,385.051 804.01,384.21 818.602,383.897 833.193,384.109 847.785,384.846 862.377,386.112 876.969,387.919 891.56,390.284 906.152,393.235 920.744,396.808 922.893,397.445 935.335,400.846 949.927,405.519 964.519,410.941 967.044,412.037 979.111,416.858 993.702,423.579 999.425,426.629 1008.29,430.975 1022.89,439.243 1025.91,441.221 1037.48,448.342 1046.62,455.812 1052.07,466.582 1053.28,470.404 1053.65,484.996 1053.65,499.587 1053.65,514.179 1053.65,528.771 1053.64,543.363 1053.64,557.954 1053.63,572.546 1053.63,587.138 1053.62,601.729 1053.62,616.321 1053.61,630.913 1053.6,645.505 1053.6,660.096 1053.59,674.688 1053.59,689.28 1053.59,703.872 1053.58,718.463 1053.58,733.055 1053.58,747.647 1053.58,762.238 1053.58,776.83 1053.58,791.422 1053.58,806.014 1053.58,820.605 1053.58,835.197 1053.58,849.789 1053.59,864.38 1053.59,878.972 1053.59,893.564 1053.6,908.156 1053.6,922.747 1053.61,937.339 1053.62,951.931 1053.62,966.522 1053.63,981.114 1053.63,995.706 1053.64,1010.3 1053.64,1024.89 1053.65,1039.48 1053.65,1054.07 1053.65,1068.66 1053.65,1083.26 1053.28,1097.85 1052.07,1101.67 1046.62,1112.44 1037.48,1119.91 1025.91,1127.03 1022.89,1129.01 1008.29,1137.28 999.425,1141.62 993.702,1144.67 979.111,1151.39 967.044,1156.21 964.519,1157.31 949.927,1162.73 935.335,1167.41 922.893,1170.81 920.744,1171.44 906.152,1175.02 891.56,1177.97 876.969,1180.33 862.377,1182.14 847.785,1183.41 833.193,1184.14 818.602,1184.35 804.01,1184.04 789.418,1183.2 774.827,1181.82 760.235,1179.9 745.643,1177.42 731.051,1174.37 716.774,1170.81 716.46,1170.73 701.868,1166.54 687.276,1161.73 672.684,1156.26 672.571,1156.21 658.093,1150.16 643.501,1143.35 640.045,1141.62 628.909,1135.81 614.318,1127.48 613.569,1127.03 599.726,1118.3 591.044,1112.44 585.134,1108.22 571.422,1097.85 570.542,1097.14 555.951,1084.94 554.022,1083.26 541.359,1071.47 538.446,1068.66 526.767,1056.57 524.417,1054.07 512.176,1040 511.732,1039.48 500.174,1024.89 497.584,1021.32 489.662,1010.3 482.992,1000.09 "/>
<polyline clip-path="url(#clip292)" style="stroke:#dc5039; stroke-linecap:round; stroke-linejoin:round; stroke-width:4; stroke-opacity:1; fill:none" points="859.647,1521.01 862.377,1518.96 876.969,1507.27 877.959,1506.42 891.56,1495.14 895.285,1491.82 906.152,1482.47 911.822,1477.23 920.744,1469.25 927.614,1462.64 935.335,1455.45 942.705,1448.05 949.927,1441.02 957.139,1433.46 964.519,1425.95 970.96,1418.87 979.111,1410.16 984.207,1404.27 993.702,1393.6 996.921,1389.68 1008.29,1376.18 1009.14,1375.09 1020.8,1360.5 1022.89,1357.95 1031.97,1345.91 1037.48,1338.76 1042.74,1331.32 1052.07,1318.34 1053.13,1316.72 1063.01,1302.13 1066.66,1296.84 1072.52,1287.54 1081.25,1273.78 1081.74,1272.95 1090.43,1258.36 1095.84,1249.34 1098.88,1243.77 1106.93,1229.17 1110.44,1222.93 1114.66,1214.58 1122.07,1199.99 1125.03,1194.28 1129.14,1185.4 1135.91,1170.81 1139.62,1162.87 1142.39,1156.21 1147.35,1141.62 1148.59,1127.03 1148.61,1112.44 1148.62,1097.85 1148.62,1083.26 1148.62,1068.66 1148.62,1054.07 1148.63,1039.48 1148.63,1024.89 1148.62,1010.3 1148.62,995.706 1148.62,981.114 1148.62,966.522 1148.62,951.931 1148.62,937.339 1148.62,922.747 1148.61,908.156 1148.61,893.564 1148.61,878.972 1148.61,864.38 1148.61,849.789 1148.61,835.197 1148.61,820.605 1148.61,806.014 1148.61,791.422 1148.61,776.83 1148.61,762.238 1148.61,747.647 1148.61,733.055 1148.61,718.463 1148.61,703.872 1148.61,689.28 1148.61,674.688 1148.61,660.096 1148.62,645.505 1148.62,630.913 1148.62,616.321 1148.62,601.729 1148.62,587.138 1148.62,572.546 1148.62,557.954 1148.63,543.363 1148.63,528.771 1148.62,514.179 1148.62,499.587 1148.62,484.996 1148.62,470.404 1148.61,455.812 1148.59,441.221 1147.35,426.629 1142.39,412.037 1139.62,405.386 1135.91,397.445 1129.14,382.854 1125.03,373.976 1122.07,368.262 1114.66,353.67 1110.44,345.321 1106.93,339.079 1098.88,324.487 1095.84,318.912 1090.43,309.895 1081.74,295.303 1081.25,294.469 1072.52,280.712 1066.66,271.409 1063.01,266.12 1053.13,251.528 1052.07,249.916 1042.74,236.936 1037.48,229.494 1031.97,222.345 1022.89,210.298 1020.8,207.753 1009.14,193.161 1008.29,192.072 996.921,178.57 993.702,174.65 984.207,163.978 979.111,158.09 970.96,149.386 964.519,142.305 957.139,134.794 949.927,127.227 942.705,120.203 935.335,112.806 927.614,105.611 920.744,98.9999 911.822,91.0193 906.152,85.7777 895.285,76.4275 891.56,73.1135 877.959,61.8358 876.969,60.9867 862.377,49.2881 859.647,47.2441 "/>
<polyline clip-path="url(#clip292)" style="stroke:#c73e4c; stroke-linecap:round; stroke-linejoin:round; stroke-width:4; stroke-opacity:1; fill:none" points="1121.23,47.2441 1125.03,61.2064 1125.19,61.8358 1129.02,76.4275 1132.78,91.0193 1136.47,105.611 1139.62,118.208 1140.09,120.203 1143.59,134.794 1147.02,149.386 1150.37,163.978 1153.66,178.57 1154.21,180.961 1156.84,193.161 1159.93,207.753 1162.96,222.345 1165.91,236.936 1168.79,251.528 1168.8,251.569 1171.56,266.12 1174.25,280.712 1176.87,295.303 1179.42,309.895 1181.9,324.487 1183.39,333.375 1184.28,339.079 1186.58,353.67 1188.79,368.262 1190.93,382.854 1193,397.445 1194.95,412.037 1196.02,426.629 1196.12,441.221 1196.12,455.812 1196.12,470.404 1196.12,484.996 1196.12,499.587 1196.12,514.179 1196.12,528.771 1196.12,543.363 1196.12,557.954 1196.12,572.546 1196.12,587.138 1196.12,601.729 1196.12,616.321 1196.12,630.913 1196.12,645.505 1196.12,660.096 1196.12,674.688 1196.12,689.28 1196.12,703.872 1196.12,718.463 1196.12,733.055 1196.12,747.647 1196.12,762.238 1196.12,776.83 1196.12,791.422 1196.12,806.014 1196.12,820.605 1196.12,835.197 1196.12,849.789 1196.12,864.38 1196.12,878.972 1196.12,893.564 1196.12,908.156 1196.12,922.747 1196.12,937.339 1196.12,951.931 1196.12,966.522 1196.12,981.114 1196.12,995.706 1196.12,1010.3 1196.12,1024.89 1196.12,1039.48 1196.12,1054.07 1196.12,1068.66 1196.12,1083.26 1196.12,1097.85 1196.12,1112.44 1196.12,1127.03 1196.02,1141.62 1194.95,1156.21 1193,1170.81 1190.93,1185.4 1188.79,1199.99 1186.58,1214.58 1184.28,1229.17 1183.39,1234.88 1181.9,1243.77 1179.42,1258.36 1176.87,1272.95 1174.25,1287.54 1171.56,1302.13 1168.8,1316.68 1168.79,1316.72 1165.91,1331.32 1162.96,1345.91 1159.93,1360.5 1156.84,1375.09 1154.21,1387.29 1153.66,1389.68 1150.37,1404.27 1147.02,1418.87 1143.59,1433.46 1140.09,1448.05 1139.62,1450.04 1136.47,1462.64 1132.78,1477.23 1129.02,1491.82 1125.19,1506.42 1125.03,1507.05 1121.23,1521.01 "/>
<polyline clip-path="url(#clip292)" style="stroke:#ae305b; stroke-linecap:round; stroke-linejoin:round; stroke-width:4; stroke-opacity:1; fill:none" points="1318.52,1521.01 1314.72,1507.05 1314.56,1506.42 1310.73,1491.82 1306.97,1477.23 1303.27,1462.64 1300.13,1450.04 1299.66,1448.05 1296.16,1433.46 1292.73,1418.87 1289.37,1404.27 1286.09,1389.68 1285.54,1387.29 1282.91,1375.09 1279.81,1360.5 1276.79,1345.91 1273.84,1331.32 1270.95,1316.72 1270.95,1316.68 1268.19,1302.13 1265.49,1287.54 1262.87,1272.95 1260.33,1258.36 1257.85,1243.77 1256.35,1234.88 1255.46,1229.17 1253.17,1214.58 1250.96,1199.99 1248.81,1185.4 1246.75,1170.81 1244.79,1156.21 1243.72,1141.62 1243.63,1127.03 1243.63,1112.44 1243.63,1097.85 1243.63,1083.26 1243.62,1068.66 1243.62,1054.07 1243.62,1039.48 1243.62,1024.89 1243.62,1010.3 1243.62,995.706 1243.62,981.114 1243.63,966.522 1243.63,951.931 1243.63,937.339 1243.63,922.747 1243.63,908.156 1243.63,893.564 1243.63,878.972 1243.63,864.38 1243.63,849.789 1243.63,835.197 1243.63,820.605 1243.63,806.014 1243.63,791.422 1243.63,776.83 1243.63,762.238 1243.63,747.647 1243.63,733.055 1243.63,718.463 1243.63,703.872 1243.63,689.28 1243.63,674.688 1243.63,660.096 1243.63,645.505 1243.63,630.913 1243.63,616.321 1243.63,601.729 1243.62,587.138 1243.62,572.546 1243.62,557.954 1243.62,543.363 1243.62,528.771 1243.62,514.179 1243.62,499.587 1243.63,484.996 1243.63,470.404 1243.63,455.812 1243.63,441.221 1243.72,426.629 1244.79,412.037 1246.75,397.445 1248.81,382.854 1250.96,368.262 1253.17,353.67 1255.46,339.079 1256.35,333.375 1257.85,324.487 1260.33,309.895 1262.87,295.303 1265.49,280.712 1268.19,266.12 1270.95,251.569 1270.95,251.528 1273.84,236.936 1276.79,222.345 1279.81,207.753 1282.91,193.161 1285.54,180.961 1286.09,178.57 1289.37,163.978 1292.73,149.386 1296.16,134.794 1299.66,120.203 1300.13,118.208 1303.27,105.611 1306.97,91.0193 1310.73,76.4275 1314.56,61.8358 1314.72,61.2064 1318.52,47.2441 "/>
<polyline clip-path="url(#clip292)" style="stroke:#932567; stroke-linecap:round; stroke-linejoin:round; stroke-width:4; stroke-opacity:1; fill:none" points="1580.1,47.2441 1577.37,49.2881 1562.78,60.9867 1561.79,61.8358 1548.19,73.1135 1544.46,76.4275 1533.6,85.7777 1527.93,91.0193 1519,98.9999 1512.13,105.611 1504.41,112.806 1497.04,120.203 1489.82,127.227 1482.61,134.794 1475.23,142.305 1468.79,149.386 1460.64,158.09 1455.54,163.978 1446.05,174.65 1442.83,178.57 1431.45,192.072 1430.61,193.161 1418.95,207.753 1416.86,210.298 1407.78,222.345 1402.27,229.494 1397.01,236.936 1387.68,249.916 1386.62,251.528 1376.74,266.12 1373.09,271.409 1367.23,280.712 1358.5,294.469 1358.01,295.303 1349.31,309.895 1343.9,318.912 1340.87,324.487 1332.81,339.079 1329.31,345.321 1325.09,353.67 1317.67,368.262 1314.72,373.976 1310.6,382.854 1303.83,397.445 1300.13,405.386 1297.36,412.037 1292.4,426.629 1291.16,441.221 1291.13,455.812 1291.13,470.404 1291.13,484.996 1291.12,499.587 1291.12,514.179 1291.12,528.771 1291.12,543.363 1291.12,557.954 1291.12,572.546 1291.13,587.138 1291.13,601.729 1291.13,616.321 1291.13,630.913 1291.13,645.505 1291.13,660.096 1291.13,674.688 1291.14,689.28 1291.14,703.872 1291.14,718.463 1291.14,733.055 1291.14,747.647 1291.14,762.238 1291.14,776.83 1291.14,791.422 1291.14,806.014 1291.14,820.605 1291.14,835.197 1291.14,849.789 1291.14,864.38 1291.14,878.972 1291.13,893.564 1291.13,908.156 1291.13,922.747 1291.13,937.339 1291.13,951.931 1291.13,966.522 1291.13,981.114 1291.12,995.706 1291.12,1010.3 1291.12,1024.89 1291.12,1039.48 1291.12,1054.07 1291.12,1068.66 1291.13,1083.26 1291.13,1097.85 1291.13,1112.44 1291.16,1127.03 1292.4,1141.62 1297.36,1156.21 1300.13,1162.87 1303.83,1170.81 1310.6,1185.4 1314.72,1194.28 1317.67,1199.99 1325.09,1214.58 1329.31,1222.93 1332.81,1229.17 1340.87,1243.77 1343.9,1249.34 1349.31,1258.36 1358.01,1272.95 1358.5,1273.78 1367.23,1287.54 1373.09,1296.84 1376.74,1302.13 1386.62,1316.72 1387.68,1318.34 1397.01,1331.32 1402.27,1338.76 1407.78,1345.91 1416.86,1357.95 1418.95,1360.5 1430.61,1375.09 1431.45,1376.18 1442.83,1389.68 1446.05,1393.6 1455.54,1404.27 1460.64,1410.16 1468.79,1418.87 1475.23,1425.95 1482.61,1433.46 1489.82,1441.02 1497.04,1448.05 1504.41,1455.45 1512.13,1462.64 1519,1469.25 1527.93,1477.23 1533.6,1482.47 1544.46,1491.82 1548.19,1495.14 1561.79,1506.42 1562.78,1507.27 1577.37,1518.96 1580.1,1521.01 "/>
<polyline clip-path="url(#clip292)" style="stroke:#781c6d; stroke-linecap:round; stroke-linejoin:round; stroke-width:4; stroke-opacity:1; fill:none" points="1956.76,1315.71 1953.62,1316.72 1942.16,1320.35 1927.57,1324.56 1912.98,1328.33 1899.98,1331.32 1898.39,1331.68 1883.8,1334.65 1869.21,1337.21 1854.61,1339.38 1840.02,1341.14 1825.43,1342.52 1810.84,1343.51 1796.25,1344.13 1781.66,1344.36 1767.06,1344.22 1752.47,1343.7 1737.88,1342.81 1723.29,1341.53 1708.7,1339.86 1694.1,1337.8 1679.51,1335.33 1664.92,1332.44 1660.04,1331.32 1650.33,1329.2 1635.74,1325.56 1621.15,1321.45 1606.55,1316.86 1606.17,1316.72 1591.96,1311.96 1577.37,1306.53 1566.72,1302.13 1562.78,1300.6 1548.19,1294.28 1534.12,1287.54 1533.6,1287.3 1519,1279.99 1506.32,1272.95 1504.41,1271.95 1489.82,1263.48 1481.86,1258.36 1475.23,1254.33 1460.64,1244.46 1459.71,1243.77 1446.05,1234.07 1439.87,1229.17 1431.45,1222.87 1421.59,1214.58 1416.86,1210.83 1404.74,1199.99 1402.27,1197.9 1389.18,1185.4 1387.68,1184.04 1374.78,1170.81 1373.09,1169.16 1361.42,1156.21 1358.5,1153.13 1349.02,1141.62 1343.9,1133.92 1340.36,1127.03 1338.66,1112.44 1338.62,1097.85 1338.62,1083.26 1338.62,1068.66 1338.62,1054.07 1338.62,1039.48 1338.62,1024.89 1338.62,1010.3 1338.62,995.706 1338.62,981.114 1338.63,966.522 1338.63,951.931 1338.63,937.339 1338.64,922.747 1338.64,908.156 1338.64,893.564 1338.65,878.972 1338.65,864.38 1338.65,849.789 1338.65,835.197 1338.65,820.605 1338.65,806.014 1338.65,791.422 1338.65,776.83 1338.65,762.238 1338.65,747.647 1338.65,733.055 1338.65,718.463 1338.65,703.872 1338.65,689.28 1338.64,674.688 1338.64,660.096 1338.64,645.505 1338.63,630.913 1338.63,616.321 1338.63,601.729 1338.62,587.138 1338.62,572.546 1338.62,557.954 1338.62,543.363 1338.62,528.771 1338.62,514.179 1338.62,499.587 1338.62,484.996 1338.62,470.404 1338.66,455.812 1340.36,441.221 1343.9,434.337 1349.02,426.629 1358.5,415.126 1361.42,412.037 1373.09,399.092 1374.78,397.445 1387.68,384.208 1389.18,382.854 1402.27,370.347 1404.74,368.262 1416.86,357.425 1421.59,353.67 1431.45,345.383 1439.87,339.079 1446.05,334.181 1459.71,324.487 1460.64,323.791 1475.23,313.923 1481.86,309.895 1489.82,304.767 1504.41,296.302 1506.32,295.303 1519,288.265 1533.6,280.95 1534.12,280.712 1548.19,273.975 1562.78,267.653 1566.72,266.12 1577.37,261.718 1591.96,256.291 1606.17,251.528 1606.55,251.391 1621.15,246.797 1635.74,242.696 1650.33,239.055 1660.04,236.936 1664.92,235.808 1679.51,232.918 1694.1,230.449 1708.7,228.388 1723.29,226.723 1737.88,225.446 1752.47,224.55 1767.06,224.032 1781.66,223.891 1796.25,224.126 1810.84,224.738 1825.43,225.731 1840.02,227.109 1854.61,228.876 1869.21,231.039 1883.8,233.603 1898.39,236.576 1899.98,236.936 1912.98,239.924 1927.57,243.694 1942.16,247.901 1953.62,251.528 1956.76,252.545 "/>
<polyline clip-path="url(#clip292)" style="stroke:#5d126e; stroke-linecap:round; stroke-linejoin:round; stroke-width:4; stroke-opacity:1; fill:none" points="1956.76,568.161 1950.09,557.954 1942.16,546.93 1939.57,543.363 1928.02,528.771 1927.57,528.251 1915.33,514.179 1912.98,511.68 1901.3,499.587 1898.39,496.782 1885.73,484.996 1883.8,483.317 1869.21,471.111 1868.33,470.404 1854.61,460.034 1848.7,455.812 1840.02,449.947 1826.18,441.221 1825.43,440.772 1810.84,432.444 1799.7,426.629 1796.25,424.902 1781.66,418.088 1767.18,412.037 1767.06,411.992 1752.47,406.522 1737.88,401.707 1723.29,397.526 1722.97,397.445 1708.7,393.884 1694.1,390.831 1679.51,388.35 1664.92,386.427 1650.33,385.051 1635.74,384.21 1621.15,383.897 1606.55,384.109 1591.96,384.846 1577.37,386.112 1562.78,387.919 1548.19,390.284 1533.6,393.235 1519,396.808 1516.86,397.445 1504.41,400.846 1489.82,405.519 1475.23,410.941 1472.7,412.037 1460.64,416.858 1446.05,423.579 1440.32,426.629 1431.45,430.975 1416.86,439.243 1413.84,441.221 1402.27,448.342 1393.13,455.812 1387.68,466.582 1386.46,470.404 1386.1,484.996 1386.1,499.587 1386.1,514.179 1386.1,528.771 1386.11,543.363 1386.11,557.954 1386.11,572.546 1386.12,587.138 1386.13,601.729 1386.13,616.321 1386.14,630.913 1386.14,645.505 1386.15,660.096 1386.15,674.688 1386.16,689.28 1386.16,703.872 1386.17,718.463 1386.17,733.055 1386.17,747.647 1386.17,762.238 1386.17,776.83 1386.17,791.422 1386.17,806.014 1386.17,820.605 1386.17,835.197 1386.17,849.789 1386.16,864.38 1386.16,878.972 1386.15,893.564 1386.15,908.156 1386.14,922.747 1386.14,937.339 1386.13,951.931 1386.13,966.522 1386.12,981.114 1386.11,995.706 1386.11,1010.3 1386.11,1024.89 1386.1,1039.48 1386.1,1054.07 1386.1,1068.66 1386.1,1083.26 1386.46,1097.85 1387.68,1101.67 1393.13,1112.44 1402.27,1119.91 1413.84,1127.03 1416.86,1129.01 1431.45,1137.28 1440.32,1141.62 1446.05,1144.67 1460.64,1151.39 1472.7,1156.21 1475.23,1157.31 1489.82,1162.73 1504.41,1167.41 1516.86,1170.81 1519,1171.44 1533.6,1175.02 1548.19,1177.97 1562.78,1180.33 1577.37,1182.14 1591.96,1183.41 1606.55,1184.14 1621.15,1184.35 1635.74,1184.04 1650.33,1183.2 1664.92,1181.82 1679.51,1179.9 1694.1,1177.42 1708.7,1174.37 1722.97,1170.81 1723.29,1170.73 1737.88,1166.54 1752.47,1161.73 1767.06,1156.26 1767.18,1156.21 1781.66,1150.16 1796.25,1143.35 1799.7,1141.62 1810.84,1135.81 1825.43,1127.48 1826.18,1127.03 1840.02,1118.3 1848.7,1112.44 1854.61,1108.22 1868.33,1097.85 1869.21,1097.14 1883.8,1084.94 1885.73,1083.26 1898.39,1071.47 1901.3,1068.66 1912.98,1056.57 1915.33,1054.07 1927.57,1040 1928.02,1039.48 1939.57,1024.89 1942.16,1021.32 1950.09,1010.3 1956.76,1000.09 "/>
<polyline clip-path="url(#clip292)" style="stroke:#410967; stroke-linecap:round; stroke-linejoin:round; stroke-width:4; stroke-opacity:1; fill:none" points="1827.45,878.972 1825.43,884.742 1822.4,893.564 1816.51,908.156 1810.84,920.232 1809.67,922.747 1801.97,937.339 1796.25,946.823 1793.16,951.931 1783.2,966.522 1781.66,968.571 1772.01,981.114 1767.06,986.892 1759.31,995.706 1752.47,1002.75 1744.86,1010.3 1737.88,1016.63 1728.29,1024.89 1723.29,1028.86 1708.98,1039.48 1708.7,1039.68 1694.1,1049.24 1685.99,1054.07 1679.51,1057.7 1664.92,1065.14 1657.22,1068.66 1650.33,1071.66 1635.74,1077.32 1621.15,1082.12 1617.16,1083.26 1606.55,1086.18 1591.96,1089.49 1577.37,1092.06 1562.78,1093.91 1548.19,1095.07 1533.6,1095.53 1519,1095.33 1504.41,1094.44 1489.82,1092.87 1475.23,1090.59 1460.64,1087.54 1446.23,1083.26 1446.05,1083.18 1434.56,1068.66 1433.6,1054.07 1433.58,1039.48 1433.59,1024.89 1433.6,1010.3 1433.61,995.706 1433.61,981.114 1433.62,966.522 1433.63,951.931 1433.64,937.339 1433.65,922.747 1433.66,908.156 1433.67,893.564 1433.68,878.972 1433.68,864.38 1433.69,849.789 1433.69,835.197 1433.7,820.605 1433.7,806.014 1433.7,791.422 1433.7,776.83 1433.7,762.238 1433.7,747.647 1433.69,733.055 1433.69,718.463 1433.68,703.872 1433.68,689.28 1433.67,674.688 1433.66,660.096 1433.65,645.505 1433.64,630.913 1433.63,616.321 1433.62,601.729 1433.61,587.138 1433.61,572.546 1433.6,557.954 1433.59,543.363 1433.58,528.771 1433.6,514.179 1434.56,499.587 1446.05,485.069 1446.23,484.996 1460.64,480.713 1475.23,477.665 1489.82,475.381 1504.41,473.809 1519,472.925 1533.6,472.718 1548.19,473.186 1562.78,474.339 1577.37,476.19 1591.96,478.76 1606.55,482.072 1617.16,484.996 1621.15,486.132 1635.74,490.936 1650.33,496.591 1657.22,499.587 1664.92,503.108 1679.51,510.555 1685.99,514.179 1694.1,519.017 1708.7,528.573 1708.98,528.771 1723.29,539.393 1728.29,543.363 1737.88,551.624 1744.86,557.954 1752.47,565.5 1759.31,572.546 1767.06,581.36 1772.01,587.138 1781.66,599.681 1783.2,601.729 1793.16,616.321 1796.25,621.429 1801.97,630.913 1809.67,645.505 1810.84,648.02 1816.51,660.096 1822.4,674.688 1825.43,683.51 1827.45,689.28 1831.78,703.872 1835.29,718.463 1838.04,733.055 1840.02,747.274 1840.08,747.647 1841.48,762.238 1842.18,776.83 1842.18,791.422 1841.48,806.014 1840.08,820.605 1840.02,820.978 1838.04,835.197 1835.29,849.789 1831.78,864.38 1827.45,878.972 "/>
<polyline clip-path="url(#clip292)" style="stroke:#240b4e; stroke-linecap:round; stroke-linejoin:round; stroke-width:4; stroke-opacity:1; fill:none" points="1728.98,776.83 1728.98,791.422 1728.14,806.014 1726.43,820.605 1723.83,835.197 1723.29,837.47 1720.45,849.789 1716.12,864.38 1710.72,878.972 1708.7,883.581 1704.37,893.564 1696.82,908.156 1694.1,912.695 1688.07,922.747 1679.51,934.966 1677.83,937.339 1665.98,951.931 1664.92,953.085 1652.17,966.522 1650.33,968.259 1635.87,981.114 1635.74,981.219 1621.15,992.324 1616.28,995.706 1606.55,1001.92 1591.96,1010.16 1591.7,1010.3 1577.37,1017.22 1562.78,1023.15 1557.81,1024.89 1548.19,1028.09 1533.6,1032.08 1519,1035.12 1504.41,1037.07 1489.82,1035.6 1482.56,1024.89 1481.18,1010.3 1481.08,995.706 1481.1,981.114 1481.12,966.522 1481.14,951.931 1481.15,937.339 1481.17,922.747 1481.18,908.156 1481.19,893.564 1481.2,878.972 1481.21,864.38 1481.22,849.789 1481.23,835.197 1481.23,820.605 1481.24,806.014 1481.24,791.422 1481.24,776.83 1481.24,762.238 1481.23,747.647 1481.23,733.055 1481.22,718.463 1481.21,703.872 1481.2,689.28 1481.19,674.688 1481.18,660.096 1481.17,645.505 1481.15,630.913 1481.14,616.321 1481.12,601.729 1481.1,587.138 1481.08,572.546 1481.18,557.954 1482.56,543.363 1489.82,532.652 1504.41,531.182 1519,533.128 1533.6,536.169 1548.19,540.16 1557.81,543.363 1562.78,545.104 1577.37,551.036 1591.7,557.954 1591.96,558.093 1606.55,566.335 1616.28,572.546 1621.15,575.927 1635.74,587.033 1635.87,587.138 1650.33,599.993 1652.17,601.729 1664.92,615.167 1665.98,616.321 1677.83,630.913 1679.51,633.286 1688.07,645.505 1694.1,655.557 1696.82,660.096 1704.37,674.688 1708.7,684.671 1710.72,689.28 1716.12,703.872 1720.45,718.463 1723.29,730.782 1723.83,733.055 1726.43,747.647 1728.14,762.238 1728.98,776.83 "/>
<polyline clip-path="url(#clip292)" style="stroke:#0b0726; stroke-linecap:round; stroke-linejoin:round; stroke-width:4; stroke-opacity:1; fill:none" points="1650.44,776.83 1650.44,791.422 1650.33,792.981 1649.47,806.014 1647.53,820.605 1644.54,835.197 1640.42,849.789 1635.74,862.577 1635.1,864.38 1628.71,878.972 1621.15,892.88 1620.78,893.564 1611.47,908.156 1606.55,914.652 1600.29,922.747 1591.96,931.965 1586.89,937.339 1577.37,946.138 1570.62,951.931 1562.78,957.941 1549.55,966.522 1548.19,967.345 1533.6,968.675 1532.14,966.522 1529.14,951.931 1528.73,937.339 1528.69,922.747 1528.72,908.156 1528.73,893.564 1528.75,878.972 1528.77,864.38 1528.78,849.789 1528.79,835.197 1528.79,820.605 1528.79,806.014 1528.79,791.422 1528.79,776.83 1528.79,762.238 1528.79,747.647 1528.79,733.055 1528.78,718.463 1528.77,703.872 1528.75,689.28 1528.73,674.688 1528.72,660.096 1528.69,645.505 1528.73,630.913 1529.14,616.321 1532.14,601.729 1533.6,599.577 1548.19,600.907 1549.55,601.729 1562.78,610.311 1570.62,616.321 1577.37,622.114 1586.89,630.913 1591.96,636.287 1600.29,645.505 1606.55,653.6 1611.47,660.096 1620.78,674.688 1621.15,675.372 1628.71,689.28 1635.1,703.872 1635.74,705.675 1640.42,718.463 1644.54,733.055 1647.53,747.647 1649.47,762.238 1650.33,775.271 1650.44,776.83 "/>
<polyline clip-path="url(#clip292)" style="stroke:#fba40a; stroke-linecap:round; stroke-linejoin:round; stroke-width:4; stroke-opacity:1; fill:none" points="1005.18,499.587 1006.15,514.179 1006.17,528.771 1006.16,543.363 1006.15,557.954 1006.14,572.546 1006.13,587.138 1006.12,601.729 1006.11,616.321 1006.1,630.913 1006.1,645.505 1006.09,660.096 1006.08,674.688 1006.07,689.28 1006.06,703.872 1006.06,718.463 1006.06,733.055 1006.05,747.647 1006.05,762.238 1006.05,776.83 1006.05,791.422 1006.05,806.014 1006.05,820.605 1006.06,835.197 1006.06,849.789 1006.06,864.38 1006.07,878.972 1006.08,893.564 1006.09,908.156 1006.1,922.747 1006.1,937.339 1006.11,951.931 1006.12,966.522 1006.13,981.114 1006.14,995.706 1006.15,1010.3 1006.16,1024.89 1006.17,1039.48 1006.15,1054.07 1005.18,1068.66 993.702,1083.18 993.516,1083.26 979.111,1087.54 964.519,1090.59 949.927,1092.87 935.335,1094.44 920.744,1095.33 906.152,1095.53 891.56,1095.07 876.969,1093.91 862.377,1092.06 847.785,1089.49 833.193,1086.18 822.586,1083.26 818.602,1082.12 804.01,1077.32 789.418,1071.66 782.525,1068.66 774.827,1065.14 760.235,1057.7 753.761,1054.07 745.643,1049.24 731.051,1039.68 730.765,1039.48 716.46,1028.86 711.459,1024.89 701.868,1016.63 694.883,1010.3 687.276,1002.75 680.435,995.706 672.684,986.892 667.736,981.114 658.093,968.571 656.544,966.522 646.589,951.931 643.501,946.823 637.781,937.339 630.08,922.747 628.909,920.232 623.236,908.156 617.35,893.564 614.318,884.742 612.294,878.972 607.973,864.38 604.46,849.789 601.707,835.197 599.726,820.978 599.672,820.605 598.268,806.014 597.571,791.422 597.571,776.83 598.268,762.238 599.672,747.647 599.726,747.274 601.707,733.055 604.46,718.463 607.973,703.872 612.294,689.28 614.318,683.51 617.35,674.688 623.236,660.096 628.909,648.02 630.08,645.505 637.781,630.913 643.501,621.429 646.589,616.321 656.544,601.729 658.093,599.681 667.736,587.138 672.684,581.36 680.435,572.546 687.276,565.5 694.883,557.954 701.868,551.624 711.459,543.363 716.46,539.393 730.765,528.771 731.051,528.573 745.643,519.017 753.761,514.179 760.235,510.555 774.827,503.108 782.525,499.587 789.418,496.591 804.01,490.936 818.602,486.132 822.586,484.996 833.193,482.072 847.785,478.76 862.377,476.19 876.969,474.339 891.56,473.186 906.152,472.718 920.744,472.925 935.335,473.809 949.927,475.381 964.519,477.665 979.111,480.713 993.516,484.996 993.702,485.069 1005.18,499.587 "/>
<polyline clip-path="url(#clip292)" style="stroke:#f9c52c; stroke-linecap:round; stroke-linejoin:round; stroke-width:4; stroke-opacity:1; fill:none" points="957.19,543.363 958.571,557.954 958.663,572.546 958.649,587.138 958.628,601.729 958.611,616.321 958.595,630.913 958.581,645.505 958.567,660.096 958.554,674.688 958.543,689.28 958.533,703.872 958.525,718.463 958.519,733.055 958.515,747.647 958.512,762.238 958.511,776.83 958.511,791.422 958.512,806.014 958.515,820.605 958.519,835.197 958.525,849.789 958.533,864.38 958.543,878.972 958.554,893.564 958.567,908.156 958.581,922.747 958.595,937.339 958.611,951.931 958.628,966.522 958.649,981.114 958.663,995.706 958.571,1010.3 957.19,1024.89 949.927,1035.6 935.335,1037.07 920.744,1035.12 906.152,1032.08 891.56,1028.09 881.941,1024.89 876.969,1023.15 862.377,1017.22 848.052,1010.3 847.785,1010.16 833.193,1001.92 823.464,995.706 818.602,992.324 804.01,981.219 803.88,981.114 789.418,968.259 787.574,966.522 774.827,953.085 773.773,951.931 761.921,937.339 760.235,934.966 751.675,922.747 745.643,912.695 742.925,908.156 735.377,893.564 731.051,883.581 729.024,878.972 723.63,864.38 719.302,849.789 716.46,837.47 715.916,835.197 713.316,820.605 711.61,806.014 710.765,791.422 710.765,776.83 711.61,762.238 713.316,747.647 715.916,733.055 716.46,730.782 719.302,718.463 723.63,703.872 729.024,689.28 731.051,684.671 735.377,674.688 742.925,660.096 745.643,655.557 751.675,645.505 760.235,633.286 761.921,630.913 773.773,616.321 774.827,615.167 787.574,601.729 789.418,599.993 803.88,587.138 804.01,587.033 818.602,575.927 823.464,572.546 833.193,566.335 847.785,558.093 848.052,557.954 862.377,551.036 876.969,545.104 881.941,543.363 891.56,540.16 906.152,536.169 920.744,533.128 935.335,531.182 949.927,532.652 957.19,543.363 "/>
<polyline clip-path="url(#clip292)" style="stroke:#f2e660; stroke-linecap:round; stroke-linejoin:round; stroke-width:4; stroke-opacity:1; fill:none" points="891.56,600.907 890.203,601.729 876.969,610.311 869.125,616.321 862.377,622.114 852.859,630.913 847.785,636.287 839.462,645.505 833.193,653.6 828.28,660.096 818.972,674.688 818.602,675.372 811.037,689.28 804.653,703.872 804.01,705.675 799.328,718.463 795.21,733.055 792.221,747.647 790.275,762.238 789.418,775.271 789.309,776.83 789.309,791.422 789.418,792.981 790.275,806.014 792.221,820.605 795.21,835.197 799.328,849.789 804.01,862.577 804.653,864.38 811.037,878.972 818.602,892.88 818.972,893.564 828.28,908.156 833.193,914.652 839.462,922.747 847.785,931.965 852.859,937.339 862.377,946.138 869.125,951.931 876.969,957.941 890.203,966.522 891.56,967.345 906.152,968.675 907.604,966.522 910.608,951.931 911.021,937.339 911.059,922.747 911.032,908.156 911.017,893.564 911.002,878.972 910.981,864.38 910.968,849.789 910.963,835.197 910.961,820.605 910.96,806.014 910.96,791.422 910.96,776.83 910.96,762.238 910.961,747.647 910.963,733.055 910.968,718.463 910.981,703.872 911.002,689.28 911.017,674.688 911.032,660.096 911.059,645.505 911.021,630.913 910.608,616.321 907.604,601.729 906.152,599.577 891.56,600.907 "/>
<path clip-path="url(#clip292)" d="M1584.67 784.126 L1584.23 766.226 L1582.91 748.37 L1580.72 730.6 L1577.66 712.958 L1573.73 695.489 L1568.96 678.232 L1563.34 661.231 L1556.9 644.526 L1549.64 628.157 L1541.59 612.164 L1532.77 596.585 L1523.19 581.458 L1512.88 566.819 L1501.86 552.704 L1490.17 539.146 L1477.82 526.178 L1464.85 513.832 L1451.3 502.137 L1437.18 491.121 L1422.54 480.812 L1407.42 471.233 L1391.84 462.407 L1375.84 454.357 L1359.47 447.101 L1342.77 440.657 L1325.77 435.041 L1308.51 430.265 L1291.04 426.342 L1273.4 423.281 L1255.63 421.09 L1237.77 419.772 L1219.87 419.333 L1201.97 419.772 L1184.12 421.09 L1166.35 423.281 L1148.71 426.342 L1131.24 430.265 L1113.98 435.041 L1096.98 440.657 L1080.27 447.101 L1063.9 454.357 L1047.91 462.407 L1032.33 471.233 L1017.21 480.812 L1002.57 491.121 L988.452 502.137 L974.894 513.832 L961.926 526.178 L949.58 539.146 L937.885 552.704 L926.87 566.819 L916.56 581.458 L906.981 596.585 L898.155 612.164 L890.105 628.157 L882.849 644.526 L876.405 661.231 L870.789 678.232 L866.013 695.489 L862.09 712.958 L859.029 730.6 L856.838 748.37 L855.52 766.226 L855.081 784.126 L855.52 802.026 L856.838 819.882 L859.029 837.652 L862.09 855.294 L866.013 872.763 L870.789 890.02 L876.405 907.021 L882.849 923.726 L890.105 940.095 L898.155 956.088 L906.981 971.667 L916.56 986.794 L926.87 1001.43 L937.885 1015.55 L949.58 1029.11 L961.926 1042.07 L974.894 1054.42 L988.452 1066.11 L1002.57 1077.13 L1017.21 1087.44 L1032.33 1097.02 L1047.91 1105.84 L1063.9 1113.89 L1080.27 1121.15 L1096.98 1127.59 L1113.98 1133.21 L1131.24 1137.99 L1148.71 1141.91 L1166.35 1144.97 L1184.12 1147.16 L1201.97 1148.48 L1219.87 1148.92 L1237.77 1148.48 L1255.63 1147.16 L1273.4 1144.97 L1291.04 1141.91 L1308.51 1137.99 L1325.77 1133.21 L1342.77 1127.59 L1359.47 1121.15 L1375.84 1113.89 L1391.84 1105.84 L1407.42 1097.02 L1422.54 1087.44 L1437.18 1077.13 L1451.3 1066.11 L1464.85 1054.42 L1477.82 1042.07 L1490.17 1029.11 L1501.86 1015.55 L1512.88 1001.43 L1523.19 986.794 L1532.77 971.667 L1541.59 956.088 L1549.64 940.095 L1556.9 923.726 L1563.34 907.021 L1568.96 890.02 L1573.73 872.763 L1577.66 855.294 L1580.72 837.652 L1582.91 819.882 L1584.23 802.026 L1584.23 1513.71 L1582.91 1513.71 L1580.72 1513.71 L1577.66 1513.71 L1573.73 1513.71 L1568.96 1513.71 L1563.34 1513.71 L1556.9 1513.71 L1549.64 1513.71 L1541.59 1513.71 L1532.77 1513.71 L1523.19 1513.71 L1512.88 1513.71 L1501.86 1513.71 L1490.17 1513.71 L1477.82 1513.71 L1464.85 1513.71 L1451.3 1513.71 L1437.18 1513.71 L1422.54 1513.71 L1407.42 1513.71 L1391.84 1513.71 L1375.84 1513.71 L1359.47 1513.71 L1342.77 1513.71 L1325.77 1513.71 L1308.51 1513.71 L1291.04 1513.71 L1273.4 1513.71 L1255.63 1513.71 L1237.77 1513.71 L1219.87 1513.71 L1201.97 1513.71 L1184.12 1513.71 L1166.35 1513.71 L1148.71 1513.71 L1131.24 1513.71 L1113.98 1513.71 L1096.98 1513.71 L1080.27 1513.71 L1063.9 1513.71 L1047.91 1513.71 L1032.33 1513.71 L1017.21 1513.71 L1002.57 1513.71 L988.452 1513.71 L974.894 1513.71 L961.926 1513.71 L949.58 1513.71 L937.885 1513.71 L926.87 1513.71 L916.56 1513.71 L906.981 1513.71 L898.155 1513.71 L890.105 1513.71 L882.849 1513.71 L876.405 1513.71 L870.789 1513.71 L866.013 1513.71 L862.09 1513.71 L859.029 1513.71 L856.838 1513.71 L855.52 1513.71 L855.081 1513.71 L855.52 1513.71 L856.838 1513.71 L859.029 1513.71 L862.09 1513.71 L866.013 1513.71 L870.789 1513.71 L876.405 1513.71 L882.849 1513.71 L890.105 1513.71 L898.155 1513.71 L906.981 1513.71 L916.56 1513.71 L926.87 1513.71 L937.885 1513.71 L949.58 1513.71 L961.926 1513.71 L974.894 1513.71 L988.452 1513.71 L1002.57 1513.71 L1017.21 1513.71 L1032.33 1513.71 L1047.91 1513.71 L1063.9 1513.71 L1080.27 1513.71 L1096.98 1513.71 L1113.98 1513.71 L1131.24 1513.71 L1148.71 1513.71 L1166.35 1513.71 L1184.12 1513.71 L1201.97 1513.71 L1219.87 1513.71 L1237.77 1513.71 L1255.63 1513.71 L1273.4 1513.71 L1291.04 1513.71 L1308.51 1513.71 L1325.77 1513.71 L1342.77 1513.71 L1359.47 1513.71 L1375.84 1513.71 L1391.84 1513.71 L1407.42 1513.71 L1422.54 1513.71 L1437.18 1513.71 L1451.3 1513.71 L1464.85 1513.71 L1477.82 1513.71 L1490.17 1513.71 L1501.86 1513.71 L1512.88 1513.71 L1523.19 1513.71 L1532.77 1513.71 L1541.59 1513.71 L1549.64 1513.71 L1556.9 1513.71 L1563.34 1513.71 L1568.96 1513.71 L1573.73 1513.71 L1577.66 1513.71 L1580.72 1513.71 L1582.91 1513.71 L1584.23 1513.71 L1584.67 1513.71  Z" fill="#000000" fill-rule="evenodd" fill-opacity="0.25"/>
<polyline clip-path="url(#clip292)" style="stroke:#000000; stroke-linecap:round; stroke-linejoin:round; stroke-width:4; stroke-opacity:1; fill:none" points="1584.67,784.126 1584.23,766.226 1582.91,748.37 1580.72,730.6 1577.66,712.958 1573.73,695.489 1568.96,678.232 1563.34,661.231 1556.9,644.526 1549.64,628.157 1541.59,612.164 1532.77,596.585 1523.19,581.458 1512.88,566.819 1501.86,552.704 1490.17,539.146 1477.82,526.178 1464.85,513.832 1451.3,502.137 1437.18,491.121 1422.54,480.812 1407.42,471.233 1391.84,462.407 1375.84,454.357 1359.47,447.101 1342.77,440.657 1325.77,435.041 1308.51,430.265 1291.04,426.342 1273.4,423.281 1255.63,421.09 1237.77,419.772 1219.87,419.333 1201.97,419.772 1184.12,421.09 1166.35,423.281 1148.71,426.342 1131.24,430.265 1113.98,435.041 1096.98,440.657 1080.27,447.101 1063.9,454.357 1047.91,462.407 1032.33,471.233 1017.21,480.812 1002.57,491.121 988.452,502.137 974.894,513.832 961.926,526.178 949.58,539.146 937.885,552.704 926.87,566.819 916.56,581.458 906.981,596.585 898.155,612.164 890.105,628.157 882.849,644.526 876.405,661.231 870.789,678.232 866.013,695.489 862.09,712.958 859.029,730.6 856.838,748.37 855.52,766.226 855.081,784.126 855.52,802.026 856.838,819.882 859.029,837.652 862.09,855.294 866.013,872.763 870.789,890.02 876.405,907.021 882.849,923.726 890.105,940.095 898.155,956.088 906.981,971.667 916.56,986.794 926.87,1001.43 937.885,1015.55 949.58,1029.11 961.926,1042.07 974.894,1054.42 988.452,1066.11 1002.57,1077.13 1017.21,1087.44 1032.33,1097.02 1047.91,1105.84 1063.9,1113.89 1080.27,1121.15 1096.98,1127.59 1113.98,1133.21 1131.24,1137.99 1148.71,1141.91 1166.35,1144.97 1184.12,1147.16 1201.97,1148.48 1219.87,1148.92 1237.77,1148.48 1255.63,1147.16 1273.4,1144.97 1291.04,1141.91 1308.51,1137.99 1325.77,1133.21 1342.77,1127.59 1359.47,1121.15 1375.84,1113.89 1391.84,1105.84 1407.42,1097.02 1422.54,1087.44 1437.18,1077.13 1451.3,1066.11 1464.85,1054.42 1477.82,1042.07 1490.17,1029.11 1501.86,1015.55 1512.88,1001.43 1523.19,986.794 1532.77,971.667 1541.59,956.088 1549.64,940.095 1556.9,923.726 1563.34,907.021 1568.96,890.02 1573.73,872.763 1577.66,855.294 1580.72,837.652 1582.91,819.882 1584.23,802.026 "/>
</svg>
