<?xml version="1.0" encoding="utf-8"?>
<svg xmlns="http://www.w3.org/2000/svg" xmlns:xlink="http://www.w3.org/1999/xlink" width="600" height="400" viewBox="0 0 2400 1600">
<defs>
  <clipPath id="clip830">
    <rect x="0" y="0" width="2400" height="1600"/>
  </clipPath>
</defs>
<path clip-path="url(#clip830)" d="M0 1600 L2400 1600 L2400 0 L0 0  Z" fill="#ffffff" fill-rule="evenodd" fill-opacity="1"/>
<defs>
  <clipPath id="clip831">
    <rect x="480" y="0" width="1681" height="1600"/>
  </clipPath>
</defs>
<path clip-path="url(#clip830)" d="M102.74 1505.26 L2352.76 1505.26 L2352.76 47.2441 L102.74 47.2441  Z" fill="#ffffff" fill-rule="evenodd" fill-opacity="1"/>
<defs>
  <clipPath id="clip832">
    <rect x="102" y="47" width="2251" height="1459"/>
  </clipPath>
</defs>
<polyline clip-path="url(#clip832)" style="stroke:#000000; stroke-linecap:round; stroke-linejoin:round; stroke-width:2; stroke-opacity:0.1; fill:none" points="174.711,1505.26 174.711,47.2441 "/>
<polyline clip-path="url(#clip832)" style="stroke:#000000; stroke-linecap:round; stroke-linejoin:round; stroke-width:2; stroke-opacity:0.1; fill:none" points="701.23,1505.26 701.23,47.2441 "/>
<polyline clip-path="url(#clip832)" style="stroke:#000000; stroke-linecap:round; stroke-linejoin:round; stroke-width:2; stroke-opacity:0.1; fill:none" points="1227.75,1505.26 1227.75,47.2441 "/>
<polyline clip-path="url(#clip832)" style="stroke:#000000; stroke-linecap:round; stroke-linejoin:round; stroke-width:2; stroke-opacity:0.1; fill:none" points="1754.27,1505.26 1754.27,47.2441 "/>
<polyline clip-path="url(#clip832)" style="stroke:#000000; stroke-linecap:round; stroke-linejoin:round; stroke-width:2; stroke-opacity:0.1; fill:none" points="2280.78,1505.26 2280.78,47.2441 "/>
<polyline clip-path="url(#clip830)" style="stroke:#000000; stroke-linecap:round; stroke-linejoin:round; stroke-width:4; stroke-opacity:1; fill:none" points="102.74,1505.26 2352.76,1505.26 "/>
<polyline clip-path="url(#clip830)" style="stroke:#000000; stroke-linecap:round; stroke-linejoin:round; stroke-width:4; stroke-opacity:1; fill:none" points="174.711,1505.26 174.711,1486.36 "/>
<polyline clip-path="url(#clip830)" style="stroke:#000000; stroke-linecap:round; stroke-linejoin:round; stroke-width:4; stroke-opacity:1; fill:none" points="701.23,1505.26 701.23,1486.36 "/>
<polyline clip-path="url(#clip830)" style="stroke:#000000; stroke-linecap:round; stroke-linejoin:round; stroke-width:4; stroke-opacity:1; fill:none" points="1227.75,1505.26 1227.75,1486.36 "/>
<polyline clip-path="url(#clip830)" style="stroke:#000000; stroke-linecap:round; stroke-linejoin:round; stroke-width:4; stroke-opacity:1; fill:none" points="1754.27,1505.26 1754.27,1486.36 "/>
<polyline clip-path="url(#clip830)" style="stroke:#000000; stroke-linecap:round; stroke-linejoin:round; stroke-width:4; stroke-opacity:1; fill:none" points="2280.78,1505.26 2280.78,1486.36 "/>
<path clip-path="url(#clip830)" d="M152.096 1536.18 Q148.485 1536.18 146.656 1539.74 Q144.851 1543.28 144.851 1550.41 Q144.851 1557.52 146.656 1561.09 Q148.485 1564.63 152.096 1564.63 Q155.73 1564.63 157.536 1561.09 Q159.364 1557.52 159.364 1550.41 Q159.364 1543.28 157.536 1539.74 Q155.73 1536.18 152.096 1536.18 M152.096 1532.47 Q157.906 1532.47 160.962 1537.08 Q164.04 1541.66 164.04 1550.41 Q164.04 1559.14 160.962 1563.75 Q157.906 1568.33 152.096 1568.33 Q146.286 1568.33 143.207 1563.75 Q140.151 1559.14 140.151 1550.41 Q140.151 1541.66 143.207 1537.08 Q146.286 1532.47 152.096 1532.47 Z" fill="#000000" fill-rule="nonzero" fill-opacity="1" /><path clip-path="url(#clip830)" d="M172.258 1561.78 L177.142 1561.78 L177.142 1567.66 L172.258 1567.66 L172.258 1561.78 Z" fill="#000000" fill-rule="nonzero" fill-opacity="1" /><path clip-path="url(#clip830)" d="M197.327 1536.18 Q193.716 1536.18 191.887 1539.74 Q190.082 1543.28 190.082 1550.41 Q190.082 1557.52 191.887 1561.09 Q193.716 1564.63 197.327 1564.63 Q200.961 1564.63 202.767 1561.09 Q204.596 1557.52 204.596 1550.41 Q204.596 1543.28 202.767 1539.74 Q200.961 1536.18 197.327 1536.18 M197.327 1532.47 Q203.137 1532.47 206.193 1537.08 Q209.271 1541.66 209.271 1550.41 Q209.271 1559.14 206.193 1563.75 Q203.137 1568.33 197.327 1568.33 Q191.517 1568.33 188.438 1563.75 Q185.383 1559.14 185.383 1550.41 Q185.383 1541.66 188.438 1537.08 Q191.517 1532.47 197.327 1532.47 Z" fill="#000000" fill-rule="nonzero" fill-opacity="1" /><path clip-path="url(#clip830)" d="M679.112 1536.18 Q675.501 1536.18 673.672 1539.74 Q671.866 1543.28 671.866 1550.41 Q671.866 1557.52 673.672 1561.09 Q675.501 1564.63 679.112 1564.63 Q682.746 1564.63 684.552 1561.09 Q686.38 1557.52 686.38 1550.41 Q686.38 1543.28 684.552 1539.74 Q682.746 1536.18 679.112 1536.18 M679.112 1532.47 Q684.922 1532.47 687.978 1537.08 Q691.056 1541.66 691.056 1550.41 Q691.056 1559.14 687.978 1563.75 Q684.922 1568.33 679.112 1568.33 Q673.302 1568.33 670.223 1563.75 Q667.167 1559.14 667.167 1550.41 Q667.167 1541.66 670.223 1537.08 Q673.302 1532.47 679.112 1532.47 Z" fill="#000000" fill-rule="nonzero" fill-opacity="1" /><path clip-path="url(#clip830)" d="M699.274 1561.78 L704.158 1561.78 L704.158 1567.66 L699.274 1567.66 L699.274 1561.78 Z" fill="#000000" fill-rule="nonzero" fill-opacity="1" /><path clip-path="url(#clip830)" d="M714.389 1533.1 L732.746 1533.1 L732.746 1537.04 L718.672 1537.04 L718.672 1545.51 Q719.69 1545.16 720.709 1545 Q721.727 1544.81 722.746 1544.81 Q728.533 1544.81 731.912 1547.98 Q735.292 1551.16 735.292 1556.57 Q735.292 1562.15 731.82 1565.25 Q728.348 1568.33 722.028 1568.33 Q719.852 1568.33 717.584 1567.96 Q715.338 1567.59 712.931 1566.85 L712.931 1562.15 Q715.014 1563.28 717.237 1563.84 Q719.459 1564.4 721.936 1564.4 Q725.94 1564.4 728.278 1562.29 Q730.616 1560.18 730.616 1556.57 Q730.616 1552.96 728.278 1550.85 Q725.94 1548.75 721.936 1548.75 Q720.061 1548.75 718.186 1549.16 Q716.334 1549.58 714.389 1550.46 L714.389 1533.1 Z" fill="#000000" fill-rule="nonzero" fill-opacity="1" /><path clip-path="url(#clip830)" d="M1194.9 1563.72 L1202.54 1563.72 L1202.54 1537.36 L1194.23 1539.03 L1194.23 1534.77 L1202.49 1533.1 L1207.17 1533.1 L1207.17 1563.72 L1214.81 1563.72 L1214.81 1567.66 L1194.9 1567.66 L1194.9 1563.72 Z" fill="#000000" fill-rule="nonzero" fill-opacity="1" /><path clip-path="url(#clip830)" d="M1224.25 1561.78 L1229.14 1561.78 L1229.14 1567.66 L1224.25 1567.66 L1224.25 1561.78 Z" fill="#000000" fill-rule="nonzero" fill-opacity="1" /><path clip-path="url(#clip830)" d="M1249.32 1536.18 Q1245.71 1536.18 1243.88 1539.74 Q1242.08 1543.28 1242.08 1550.41 Q1242.08 1557.52 1243.88 1561.09 Q1245.71 1564.63 1249.32 1564.63 Q1252.96 1564.63 1254.76 1561.09 Q1256.59 1557.52 1256.59 1550.41 Q1256.59 1543.28 1254.76 1539.74 Q1252.96 1536.18 1249.32 1536.18 M1249.32 1532.47 Q1255.13 1532.47 1258.19 1537.08 Q1261.27 1541.66 1261.27 1550.41 Q1261.27 1559.14 1258.19 1563.75 Q1255.13 1568.33 1249.32 1568.33 Q1243.51 1568.33 1240.43 1563.75 Q1237.38 1559.14 1237.38 1550.41 Q1237.38 1541.66 1240.43 1537.08 Q1243.51 1532.47 1249.32 1532.47 Z" fill="#000000" fill-rule="nonzero" fill-opacity="1" /><path clip-path="url(#clip830)" d="M1721.92 1563.72 L1729.56 1563.72 L1729.56 1537.36 L1721.25 1539.03 L1721.25 1534.77 L1729.51 1533.1 L1734.19 1533.1 L1734.19 1563.72 L1741.82 1563.72 L1741.82 1567.66 L1721.92 1567.66 L1721.92 1563.72 Z" fill="#000000" fill-rule="nonzero" fill-opacity="1" /><path clip-path="url(#clip830)" d="M1751.27 1561.78 L1756.15 1561.78 L1756.15 1567.66 L1751.27 1567.66 L1751.27 1561.78 Z" fill="#000000" fill-rule="nonzero" fill-opacity="1" /><path clip-path="url(#clip830)" d="M1766.38 1533.1 L1784.74 1533.1 L1784.74 1537.04 L1770.67 1537.04 L1770.67 1545.51 Q1771.69 1545.16 1772.7 1545 Q1773.72 1544.81 1774.74 1544.81 Q1780.53 1544.81 1783.91 1547.98 Q1787.29 1551.16 1787.29 1556.57 Q1787.29 1562.15 1783.81 1565.25 Q1780.34 1568.33 1774.02 1568.33 Q1771.85 1568.33 1769.58 1567.96 Q1767.33 1567.59 1764.93 1566.85 L1764.93 1562.15 Q1767.01 1563.28 1769.23 1563.84 Q1771.45 1564.4 1773.93 1564.4 Q1777.94 1564.4 1780.27 1562.29 Q1782.61 1560.18 1782.61 1556.57 Q1782.61 1552.96 1780.27 1550.85 Q1777.94 1548.75 1773.93 1548.75 Q1772.06 1548.75 1770.18 1549.16 Q1768.33 1549.58 1766.38 1550.46 L1766.38 1533.1 Z" fill="#000000" fill-rule="nonzero" fill-opacity="1" /><path clip-path="url(#clip830)" d="M2252.02 1563.72 L2268.34 1563.72 L2268.34 1567.66 L2246.4 1567.66 L2246.4 1563.72 Q2249.06 1560.97 2253.64 1556.34 Q2258.25 1551.69 2259.43 1550.35 Q2261.68 1547.82 2262.56 1546.09 Q2263.46 1544.33 2263.46 1542.64 Q2263.46 1539.88 2261.51 1538.15 Q2259.59 1536.41 2256.49 1536.41 Q2254.29 1536.41 2251.84 1537.17 Q2249.41 1537.94 2246.63 1539.49 L2246.63 1534.77 Q2249.45 1533.63 2251.91 1533.05 Q2254.36 1532.47 2256.4 1532.47 Q2261.77 1532.47 2264.96 1535.16 Q2268.16 1537.85 2268.16 1542.34 Q2268.16 1544.47 2267.35 1546.39 Q2266.56 1548.28 2264.45 1550.88 Q2263.87 1551.55 2260.77 1554.77 Q2257.67 1557.96 2252.02 1563.72 Z" fill="#000000" fill-rule="nonzero" fill-opacity="1" /><path clip-path="url(#clip830)" d="M2278.16 1561.78 L2283.04 1561.78 L2283.04 1567.66 L2278.16 1567.66 L2278.16 1561.78 Z" fill="#000000" fill-rule="nonzero" fill-opacity="1" /><path clip-path="url(#clip830)" d="M2303.23 1536.18 Q2299.62 1536.18 2297.79 1539.74 Q2295.98 1543.28 2295.98 1550.41 Q2295.98 1557.52 2297.79 1561.09 Q2299.62 1564.63 2303.23 1564.63 Q2306.86 1564.63 2308.67 1561.09 Q2310.5 1557.52 2310.5 1550.41 Q2310.5 1543.28 2308.67 1539.74 Q2306.86 1536.18 2303.23 1536.18 M2303.23 1532.47 Q2309.04 1532.47 2312.09 1537.08 Q2315.17 1541.66 2315.17 1550.41 Q2315.17 1559.14 2312.09 1563.75 Q2309.04 1568.33 2303.23 1568.33 Q2297.42 1568.33 2294.34 1563.75 Q2291.28 1559.14 2291.28 1550.41 Q2291.28 1541.66 2294.34 1537.08 Q2297.42 1532.47 2303.23 1532.47 Z" fill="#000000" fill-rule="nonzero" fill-opacity="1" /><path clip-path="url(#clip830)" d="M1244.36 1614.48 L1231.47 1631.82 L1245.03 1650.12 L1238.12 1650.12 L1227.75 1636.12 L1217.37 1650.12 L1210.47 1650.12 L1224.31 1631.47 L1211.64 1614.48 L1218.55 1614.48 L1228 1627.18 L1237.46 1614.48 L1244.36 1614.48 Z" fill="#000000" fill-rule="nonzero" fill-opacity="1" /><polyline clip-path="url(#clip832)" style="stroke:#000000; stroke-linecap:round; stroke-linejoin:round; stroke-width:2; stroke-opacity:0.1; fill:none" points="102.74,1464 2352.76,1464 "/>
<polyline clip-path="url(#clip832)" style="stroke:#000000; stroke-linecap:round; stroke-linejoin:round; stroke-width:2; stroke-opacity:0.1; fill:none" points="102.74,1180.28 2352.76,1180.28 "/>
<polyline clip-path="url(#clip832)" style="stroke:#000000; stroke-linecap:round; stroke-linejoin:round; stroke-width:2; stroke-opacity:0.1; fill:none" points="102.74,896.568 2352.76,896.568 "/>
<polyline clip-path="url(#clip832)" style="stroke:#000000; stroke-linecap:round; stroke-linejoin:round; stroke-width:2; stroke-opacity:0.1; fill:none" points="102.74,612.855 2352.76,612.855 "/>
<polyline clip-path="url(#clip832)" style="stroke:#000000; stroke-linecap:round; stroke-linejoin:round; stroke-width:2; stroke-opacity:0.1; fill:none" points="102.74,329.141 2352.76,329.141 "/>
<polyline clip-path="url(#clip830)" style="stroke:#000000; stroke-linecap:round; stroke-linejoin:round; stroke-width:4; stroke-opacity:1; fill:none" points="102.74,1505.26 102.74,47.2441 "/>
<polyline clip-path="url(#clip830)" style="stroke:#000000; stroke-linecap:round; stroke-linejoin:round; stroke-width:4; stroke-opacity:1; fill:none" points="102.74,1464 121.638,1464 "/>
<polyline clip-path="url(#clip830)" style="stroke:#000000; stroke-linecap:round; stroke-linejoin:round; stroke-width:4; stroke-opacity:1; fill:none" points="102.74,1180.28 121.638,1180.28 "/>
<polyline clip-path="url(#clip830)" style="stroke:#000000; stroke-linecap:round; stroke-linejoin:round; stroke-width:4; stroke-opacity:1; fill:none" points="102.74,896.568 121.638,896.568 "/>
<polyline clip-path="url(#clip830)" style="stroke:#000000; stroke-linecap:round; stroke-linejoin:round; stroke-width:4; stroke-opacity:1; fill:none" points="102.74,612.855 121.638,612.855 "/>
<polyline clip-path="url(#clip830)" style="stroke:#000000; stroke-linecap:round; stroke-linejoin:round; stroke-width:4; stroke-opacity:1; fill:none" points="102.74,329.141 121.638,329.141 "/>
<path clip-path="url(#clip830)" d="M9.56454 1449.79 Q5.95345 1449.79 4.12475 1453.36 Q2.31921 1456.9 2.31921 1464.03 Q2.31921 1471.14 4.12475 1474.7 Q5.95345 1478.24 9.56454 1478.24 Q13.1988 1478.24 15.0043 1474.7 Q16.833 1471.14 16.833 1464.03 Q16.833 1456.9 15.0043 1453.36 Q13.1988 1449.79 9.56454 1449.79 M9.56454 1446.09 Q15.3747 1446.09 18.4302 1450.7 Q21.5089 1455.28 21.5089 1464.03 Q21.5089 1472.76 18.4302 1477.36 Q15.3747 1481.95 9.56454 1481.95 Q3.75438 1481.95 0.675697 1477.36 Q-2.37984 1472.76 -2.37984 1464.03 Q-2.37984 1455.28 0.675697 1450.7 Q3.75438 1446.09 9.56454 1446.09 Z" fill="#000000" fill-rule="nonzero" fill-opacity="1" /><path clip-path="url(#clip830)" d="M29.7265 1475.4 L34.6107 1475.4 L34.6107 1481.28 L29.7265 1481.28 L29.7265 1475.4 Z" fill="#000000" fill-rule="nonzero" fill-opacity="1" /><path clip-path="url(#clip830)" d="M54.7958 1449.79 Q51.1847 1449.79 49.356 1453.36 Q47.5504 1456.9 47.5504 1464.03 Q47.5504 1471.14 49.356 1474.7 Q51.1847 1478.24 54.7958 1478.24 Q58.43 1478.24 60.2356 1474.7 Q62.0643 1471.14 62.0643 1464.03 Q62.0643 1456.9 60.2356 1453.36 Q58.43 1449.79 54.7958 1449.79 M54.7958 1446.09 Q60.6059 1446.09 63.6615 1450.7 Q66.7402 1455.28 66.7402 1464.03 Q66.7402 1472.76 63.6615 1477.36 Q60.6059 1481.95 54.7958 1481.95 Q48.9856 1481.95 45.9069 1477.36 Q42.8514 1472.76 42.8514 1464.03 Q42.8514 1455.28 45.9069 1450.7 Q48.9856 1446.09 54.7958 1446.09 Z" fill="#000000" fill-rule="nonzero" fill-opacity="1" /><path clip-path="url(#clip830)" d="M11.1618 1166.08 Q7.55066 1166.08 5.72197 1169.65 Q3.91642 1173.19 3.91642 1180.32 Q3.91642 1187.42 5.72197 1190.99 Q7.55066 1194.53 11.1618 1194.53 Q14.796 1194.53 16.6015 1190.99 Q18.4302 1187.42 18.4302 1180.32 Q18.4302 1173.19 16.6015 1169.65 Q14.796 1166.08 11.1618 1166.08 M11.1618 1162.38 Q16.9719 1162.38 20.0274 1166.98 Q23.1061 1171.57 23.1061 1180.32 Q23.1061 1189.04 20.0274 1193.65 Q16.9719 1198.23 11.1618 1198.23 Q5.3516 1198.23 2.27291 1193.65 Q-0.782629 1189.04 -0.782629 1180.32 Q-0.782629 1171.57 2.27291 1166.98 Q5.3516 1162.38 11.1618 1162.38 Z" fill="#000000" fill-rule="nonzero" fill-opacity="1" /><path clip-path="url(#clip830)" d="M31.3237 1191.68 L36.2079 1191.68 L36.2079 1197.56 L31.3237 1197.56 L31.3237 1191.68 Z" fill="#000000" fill-rule="nonzero" fill-opacity="1" /><path clip-path="url(#clip830)" d="M50.4208 1193.63 L66.7402 1193.63 L66.7402 1197.56 L44.7958 1197.56 L44.7958 1193.63 Q47.4579 1190.87 52.0412 1186.24 Q56.6476 1181.59 57.8282 1180.25 Q60.0735 1177.72 60.9532 1175.99 Q61.8559 1174.23 61.8559 1172.54 Q61.8559 1169.78 59.9115 1168.05 Q57.9902 1166.31 54.8884 1166.31 Q52.6893 1166.31 50.2356 1167.08 Q47.8051 1167.84 45.0273 1169.39 L45.0273 1164.67 Q47.8514 1163.53 50.3051 1162.96 Q52.7588 1162.38 54.7958 1162.38 Q60.1661 1162.38 63.3605 1165.06 Q66.555 1167.75 66.555 1172.24 Q66.555 1174.37 65.7448 1176.29 Q64.9578 1178.19 62.8513 1180.78 Q62.2726 1181.45 59.1708 1184.67 Q56.0689 1187.86 50.4208 1193.63 Z" fill="#000000" fill-rule="nonzero" fill-opacity="1" /><path clip-path="url(#clip830)" d="M9.07843 882.367 Q5.46734 882.367 3.63864 885.932 Q1.8331 889.474 1.8331 896.603 Q1.8331 903.71 3.63864 907.274 Q5.46734 910.816 9.07843 910.816 Q12.7127 910.816 14.5182 907.274 Q16.3469 903.71 16.3469 896.603 Q16.3469 889.474 14.5182 885.932 Q12.7127 882.367 9.07843 882.367 M9.07843 878.664 Q14.8886 878.664 17.9441 883.27 Q21.0228 887.853 21.0228 896.603 Q21.0228 905.33 17.9441 909.936 Q14.8886 914.52 9.07843 914.52 Q3.26828 914.52 0.189588 909.936 Q-2.86595 905.33 -2.86595 896.603 Q-2.86595 887.853 0.189588 883.27 Q3.26828 878.664 9.07843 878.664 Z" fill="#000000" fill-rule="nonzero" fill-opacity="1" /><path clip-path="url(#clip830)" d="M29.2404 907.969 L34.1246 907.969 L34.1246 913.848 L29.2404 913.848 L29.2404 907.969 Z" fill="#000000" fill-rule="nonzero" fill-opacity="1" /><path clip-path="url(#clip830)" d="M57.1569 883.363 L45.3514 901.812 L57.1569 901.812 L57.1569 883.363 M55.93 879.288 L61.8096 879.288 L61.8096 901.812 L66.7402 901.812 L66.7402 905.7 L61.8096 905.7 L61.8096 913.848 L57.1569 913.848 L57.1569 905.7 L41.5551 905.7 L41.5551 901.187 L55.93 879.288 Z" fill="#000000" fill-rule="nonzero" fill-opacity="1" /><path clip-path="url(#clip830)" d="M9.4025 598.653 Q5.79141 598.653 3.96272 602.218 Q2.15717 605.76 2.15717 612.889 Q2.15717 619.996 3.96272 623.561 Q5.79141 627.102 9.4025 627.102 Q13.0367 627.102 14.8423 623.561 Q16.671 619.996 16.671 612.889 Q16.671 605.76 14.8423 602.218 Q13.0367 598.653 9.4025 598.653 M9.4025 594.95 Q15.2127 594.95 18.2682 599.556 Q21.3469 604.139 21.3469 612.889 Q21.3469 621.616 18.2682 626.223 Q15.2127 630.806 9.4025 630.806 Q3.59235 630.806 0.51366 626.223 Q-2.54188 621.616 -2.54188 612.889 Q-2.54188 604.139 0.51366 599.556 Q3.59235 594.95 9.4025 594.95 Z" fill="#000000" fill-rule="nonzero" fill-opacity="1" /><path clip-path="url(#clip830)" d="M29.5644 624.255 L34.4487 624.255 L34.4487 630.135 L29.5644 630.135 L29.5644 624.255 Z" fill="#000000" fill-rule="nonzero" fill-opacity="1" /><path clip-path="url(#clip830)" d="M55.2124 610.991 Q52.0643 610.991 50.2125 613.144 Q48.3838 615.297 48.3838 619.047 Q48.3838 622.774 50.2125 624.95 Q52.0643 627.102 55.2124 627.102 Q58.3606 627.102 60.1893 624.95 Q62.0411 622.774 62.0411 619.047 Q62.0411 615.297 60.1893 613.144 Q58.3606 610.991 55.2124 610.991 M64.4948 596.339 L64.4948 600.598 Q62.7355 599.764 60.93 599.325 Q59.1476 598.885 57.3884 598.885 Q52.7588 598.885 50.3051 602.01 Q47.8745 605.135 47.5273 611.454 Q48.893 609.44 50.9532 608.376 Q53.0134 607.288 55.4902 607.288 Q60.6985 607.288 63.7078 610.459 Q66.7402 613.607 66.7402 619.047 Q66.7402 624.371 63.592 627.588 Q60.4439 630.806 55.2124 630.806 Q49.2171 630.806 46.0458 626.223 Q42.8745 621.616 42.8745 612.889 Q42.8745 604.695 46.7634 599.834 Q50.6523 594.95 57.2032 594.95 Q58.9624 594.95 60.7448 595.297 Q62.5504 595.644 64.4948 596.339 Z" fill="#000000" fill-rule="nonzero" fill-opacity="1" /><path clip-path="url(#clip830)" d="M9.65713 314.94 Q6.04604 314.94 4.21734 318.504 Q2.4118 322.046 2.4118 329.176 Q2.4118 336.282 4.21734 339.847 Q6.04604 343.388 9.65713 343.388 Q13.2914 343.388 15.0969 339.847 Q16.9256 336.282 16.9256 329.176 Q16.9256 322.046 15.0969 318.504 Q13.2914 314.94 9.65713 314.94 M9.65713 311.236 Q15.4673 311.236 18.5228 315.842 Q21.6015 320.426 21.6015 329.176 Q21.6015 337.902 18.5228 342.509 Q15.4673 347.092 9.65713 347.092 Q3.84698 347.092 0.768289 342.509 Q-2.28725 337.902 -2.28725 329.176 Q-2.28725 320.426 0.768289 315.842 Q3.84698 311.236 9.65713 311.236 Z" fill="#000000" fill-rule="nonzero" fill-opacity="1" /><path clip-path="url(#clip830)" d="M29.8191 340.541 L34.7033 340.541 L34.7033 346.421 L29.8191 346.421 L29.8191 340.541 Z" fill="#000000" fill-rule="nonzero" fill-opacity="1" /><path clip-path="url(#clip830)" d="M54.8884 330.009 Q51.5551 330.009 49.6338 331.791 Q47.7356 333.574 47.7356 336.699 Q47.7356 339.824 49.6338 341.606 Q51.5551 343.388 54.8884 343.388 Q58.2217 343.388 60.143 341.606 Q62.0643 339.801 62.0643 336.699 Q62.0643 333.574 60.143 331.791 Q58.2448 330.009 54.8884 330.009 M50.2125 328.018 Q47.2032 327.277 45.5134 325.217 Q43.8468 323.157 43.8468 320.194 Q43.8468 316.051 46.7866 313.643 Q49.7495 311.236 54.8884 311.236 Q60.0504 311.236 62.9902 313.643 Q65.93 316.051 65.93 320.194 Q65.93 323.157 64.2402 325.217 Q62.5735 327.277 59.5874 328.018 Q62.967 328.805 64.842 331.097 Q66.7402 333.389 66.7402 336.699 Q66.7402 341.722 63.6615 344.407 Q60.6059 347.092 54.8884 347.092 Q49.1708 347.092 46.0921 344.407 Q43.0366 341.722 43.0366 336.699 Q43.0366 333.389 44.9347 331.097 Q46.8329 328.805 50.2125 328.018 M48.4995 320.634 Q48.4995 323.319 50.1662 324.824 Q51.856 326.328 54.8884 326.328 Q57.8976 326.328 59.5874 324.824 Q61.3004 323.319 61.3004 320.634 Q61.3004 317.949 59.5874 316.444 Q57.8976 314.94 54.8884 314.94 Q51.856 314.94 50.1662 316.444 Q48.4995 317.949 48.4995 320.634 Z" fill="#000000" fill-rule="nonzero" fill-opacity="1" /><path clip-path="url(#clip830)" d="M-67.1902 867.154 L-88.7699 867.154 L-88.7699 861.298 L-67.413 861.298 Q-62.3522 861.298 -59.8059 859.324 Q-57.2915 857.351 -57.2915 853.404 Q-57.2915 848.662 -60.3152 845.925 Q-63.3389 843.156 -68.5588 843.156 L-88.7699 843.156 L-88.7699 837.299 L-53.122 837.299 L-53.122 843.156 L-58.5965 843.156 Q-55.3499 845.288 -53.7585 848.121 Q-52.1989 850.922 -52.1989 854.646 Q-52.1989 860.789 -56.0183 863.971 Q-59.8378 867.154 -67.1902 867.154 M-89.6293 852.418 L-89.6293 852.418 Z" fill="#000000" fill-rule="nonzero" fill-opacity="1" /><path clip-path="url(#clip830)" d="M-102.583 811.168 Q-95.2629 815.433 -88.1015 817.502 Q-80.9401 819.571 -73.5877 819.571 Q-66.2353 819.571 -59.0102 817.502 Q-51.817 815.401 -44.5282 811.168 L-44.5282 816.26 Q-52.008 821.035 -59.233 823.422 Q-66.4581 825.777 -73.5877 825.777 Q-80.6855 825.777 -87.8787 823.422 Q-95.072 821.067 -102.583 816.26 L-102.583 811.168 Z" fill="#000000" fill-rule="nonzero" fill-opacity="1" /><path clip-path="url(#clip830)" d="M-88.7699 770.173 L-71.4234 783.063 L-53.122 769.504 L-53.122 776.411 L-67.1265 786.787 L-53.122 797.163 L-53.122 804.07 L-71.7735 790.225 L-88.7699 802.892 L-88.7699 795.986 L-76.0703 786.533 L-88.7699 777.08 L-88.7699 770.173 Z" fill="#000000" fill-rule="nonzero" fill-opacity="1" /><path clip-path="url(#clip830)" d="M-61.2064 759.733 L-61.2064 753.017 L-55.7319 753.017 L-45.5468 758.237 L-45.5468 762.343 L-55.7319 759.733 L-61.2064 759.733 Z" fill="#000000" fill-rule="nonzero" fill-opacity="1" /><path clip-path="url(#clip830)" d="M-58.5328 738.567 L-58.5328 728.064 L-94.7855 728.064 L-92.4938 739.49 L-98.3503 739.49 L-100.642 728.127 L-100.642 721.698 L-58.5328 721.698 L-58.5328 711.194 L-53.122 711.194 L-53.122 738.567 L-58.5328 738.567 Z" fill="#000000" fill-rule="nonzero" fill-opacity="1" /><path clip-path="url(#clip830)" d="M-102.583 699.959 L-102.583 694.866 Q-95.072 690.092 -87.8787 687.737 Q-80.6855 685.35 -73.5877 685.35 Q-66.4581 685.35 -59.233 687.737 Q-52.008 690.092 -44.5282 694.866 L-44.5282 699.959 Q-51.817 695.726 -59.0102 693.657 Q-66.2353 691.556 -73.5877 691.556 Q-80.9401 691.556 -88.1015 693.657 Q-95.2629 695.726 -102.583 699.959 Z" fill="#000000" fill-rule="nonzero" fill-opacity="1" /><polyline clip-path="url(#clip832)" style="stroke:#009af9; stroke-linecap:round; stroke-linejoin:round; stroke-width:4; stroke-opacity:1; fill:none" points="166.42,1464 183.003,1463.99 199.586,1463.99 216.17,1463.99 232.753,1463.98 249.336,1463.96 265.919,1463.93 282.503,1463.87 299.086,1463.77 315.669,1463.58 332.252,1463.25 348.836,1462.68 365.419,1461.75 382.002,1460.22 398.585,1457.79 415.169,1453.99 431.752,1448.21 448.335,1439.59 464.918,1427.05 481.502,1409.22 498.085,1384.44 514.668,1350.82 531.251,1306.28 547.835,1248.66 564.418,1175.88 581.001,1086.13 597.584,978.096 614.168,851.133 630.751,705.43 647.334,542.352 663.917,366.935 680.501,198.557 697.084,88.5087 713.667,98.046 730.25,209.73 746.834,361.559 763.417,517.945 780,667.15 796.583,805.021 813.167,929.171 829.75,1038.16 846.333,1131.45 862.916,1209.34 879.5,1272.8 896.083,1323.26 912.666,1362.44 929.249,1392.14 945.833,1414.15 962.416,1430.08 978.999,1441.36 995.582,1449.18 1012.17,1454.47 1028.75,1457.99 1045.33,1460.27 1061.92,1461.72 1078.5,1462.63 1095.08,1463.19 1111.67,1463.52 1128.25,1463.72 1144.83,1463.84 1161.42,1463.9 1178,1463.94 1194.58,1463.96 1211.16,1463.97 1227.75,1463.97 1244.33,1463.97 1260.91,1463.96 1277.5,1463.94 1294.08,1463.9 1310.66,1463.84 1327.25,1463.72 1343.83,1463.52 1360.41,1463.19 1377,1462.63 1393.58,1461.72 1410.16,1460.27 1426.75,1457.99 1443.33,1454.47 1459.91,1449.18 1476.5,1441.36 1493.08,1430.08 1509.66,1414.15 1526.25,1392.14 1542.83,1362.44 1559.41,1323.26 1576,1272.8 1592.58,1209.34 1609.16,1131.45 1625.75,1038.16 1642.33,929.171 1658.91,805.021 1675.5,667.15 1692.08,517.945 1708.66,361.559 1725.25,209.73 1741.83,98.046 1758.41,88.5087 1775,198.557 1791.58,366.935 1808.16,542.352 1824.75,705.43 1841.33,851.133 1857.91,978.096 1874.49,1086.13 1891.08,1175.88 1907.66,1248.66 1924.24,1306.28 1940.83,1350.82 1957.41,1384.44 1973.99,1409.22 1990.58,1427.05 2007.16,1439.59 2023.74,1448.21 2040.33,1453.99 2056.91,1457.79 2073.49,1460.22 2090.08,1461.75 2106.66,1462.68 2123.24,1463.25 2139.83,1463.58 2156.41,1463.77 2172.99,1463.87 2189.58,1463.93 2206.16,1463.96 2222.74,1463.98 2239.33,1463.99 2255.91,1463.99 2272.49,1463.99 2289.08,1464 "/>
<path clip-path="url(#clip830)" d="M2000.32 199.525 L2277.76 199.525 L2277.76 95.8446 L2000.32 95.8446  Z" fill="#ffffff" fill-rule="evenodd" fill-opacity="1"/>
<polyline clip-path="url(#clip830)" style="stroke:#000000; stroke-linecap:round; stroke-linejoin:round; stroke-width:4; stroke-opacity:1; fill:none" points="2000.32,199.525 2277.76,199.525 2277.76,95.8446 2000.32,95.8446 2000.32,199.525 "/>
<polyline clip-path="url(#clip830)" style="stroke:#009af9; stroke-linecap:round; stroke-linejoin:round; stroke-width:4; stroke-opacity:1; fill:none" points="2025.32,147.685 2175.32,147.685 "/>
<path clip-path="url(#clip830)" d="M2214.17 167.372 Q2212.36 172.002 2210.65 173.414 Q2208.94 174.826 2206.07 174.826 L2202.66 174.826 L2202.66 171.261 L2205.16 171.261 Q2206.92 171.261 2207.89 170.428 Q2208.87 169.594 2210.05 166.492 L2210.81 164.548 L2200.32 139.039 L2204.84 139.039 L2212.94 159.317 L2221.04 139.039 L2225.56 139.039 L2214.17 167.372 Z" fill="#000000" fill-rule="nonzero" fill-opacity="1" /><path clip-path="url(#clip830)" d="M2232.85 161.029 L2240.49 161.029 L2240.49 134.664 L2232.18 136.331 L2232.18 132.071 L2240.44 130.405 L2245.12 130.405 L2245.12 161.029 L2252.76 161.029 L2252.76 164.965 L2232.85 164.965 L2232.85 161.029 Z" fill="#000000" fill-rule="nonzero" fill-opacity="1" /></svg>
