<?xml version="1.0" encoding="utf-8" standalone="no"?>
<!DOCTYPE svg PUBLIC "-//W3C//DTD SVG 1.1//EN"
  "http://www.w3.org/Graphics/SVG/1.1/DTD/svg11.dtd">
<svg height="288pt" version="1.1" viewBox="0 0 432 288" width="432pt" xmlns="http://www.w3.org/2000/svg" xmlns:xlink="http://www.w3.org/1999/xlink">
 <metadata>
  <rdf:RDF xmlns:cc="http://creativecommons.org/ns#" xmlns:dc="http://purl.org/dc/elements/1.1/" xmlns:rdf="http://www.w3.org/1999/02/22-rdf-syntax-ns#">
   <cc:Work>
    <dc:type rdf:resource="http://purl.org/dc/dcmitype/StillImage"/>
    <dc:date>2021-10-01T22:49:09.120569</dc:date>
    <dc:format>image/svg+xml</dc:format>
    <dc:creator>
     <cc:Agent>
      <dc:title>Matplotlib v3.4.2, https://matplotlib.org/</dc:title>
     </cc:Agent>
    </dc:creator>
   </cc:Work>
  </rdf:RDF>
 </metadata>
 <defs>
  <style type="text/css">*{stroke-linecap:butt;stroke-linejoin:round;}</style>
 </defs>
 <g id="figure_1">
  <g id="patch_1">
   <path d="M 0 288 
L 432 288 
L 432 0 
L 0 0 
z
" style="fill:#ffffff;"/>
  </g>
  <g id="axes_1">
   <g id="patch_2">
    <path d="M 46.534553 234.584536 
L 429.165354 234.584536 
L 429.165354 43.275464 
L 46.534553 43.275464 
z
" style="fill:#ffffff;"/>
   </g>
   <g id="matplotlib.axis_1">
    <g id="xtick_1">
     <g id="line2d_1">
      <path clip-path="url(#p002167a815)" d="M 57.363562 234.584536 
L 57.363562 43.275464 
" style="fill:none;stroke:#000000;stroke-linecap:square;stroke-opacity:0.1;stroke-width:0.5;"/>
     </g>
     <g id="line2d_2">
      <defs>
       <path d="M 0 0 
L 0 -2.5 
" id="m6e9175a260" style="stroke:#000000;stroke-width:0.5;"/>
      </defs>
      <g>
       <use style="stroke:#000000;stroke-width:0.5;" x="57.363562" xlink:href="#m6e9175a260" y="234.584536"/>
      </g>
     </g>
     <g id="text_1">
      <!-- $-1.0$ -->
      <g transform="translate(47.643562 244.163286)scale(0.08 -0.08)">
       <defs>
        <path d="M 678 2272 
L 4684 2272 
L 4684 1741 
L 678 1741 
L 678 2272 
z
" id="DejaVuSans-2212" transform="scale(0.015625)"/>
        <path d="M 794 531 
L 1825 531 
L 1825 4091 
L 703 3866 
L 703 4441 
L 1819 4666 
L 2450 4666 
L 2450 531 
L 3481 531 
L 3481 0 
L 794 0 
L 794 531 
z
" id="DejaVuSans-31" transform="scale(0.015625)"/>
        <path d="M 684 794 
L 1344 794 
L 1344 0 
L 684 0 
L 684 794 
z
" id="DejaVuSans-2e" transform="scale(0.015625)"/>
        <path d="M 2034 4250 
Q 1547 4250 1301 3770 
Q 1056 3291 1056 2328 
Q 1056 1369 1301 889 
Q 1547 409 2034 409 
Q 2525 409 2770 889 
Q 3016 1369 3016 2328 
Q 3016 3291 2770 3770 
Q 2525 4250 2034 4250 
z
M 2034 4750 
Q 2819 4750 3233 4129 
Q 3647 3509 3647 2328 
Q 3647 1150 3233 529 
Q 2819 -91 2034 -91 
Q 1250 -91 836 529 
Q 422 1150 422 2328 
Q 422 3509 836 4129 
Q 1250 4750 2034 4750 
z
" id="DejaVuSans-30" transform="scale(0.015625)"/>
       </defs>
       <use transform="translate(0 0.78125)" xlink:href="#DejaVuSans-2212"/>
       <use transform="translate(83.789062 0.78125)" xlink:href="#DejaVuSans-31"/>
       <use transform="translate(147.412109 0.78125)" xlink:href="#DejaVuSans-2e"/>
       <use transform="translate(179.199219 0.78125)" xlink:href="#DejaVuSans-30"/>
      </g>
     </g>
    </g>
    <g id="xtick_2">
     <g id="line2d_3">
      <path clip-path="url(#p002167a815)" d="M 147.606717 234.584536 
L 147.606717 43.275464 
" style="fill:none;stroke:#000000;stroke-linecap:square;stroke-opacity:0.1;stroke-width:0.5;"/>
     </g>
     <g id="line2d_4">
      <g>
       <use style="stroke:#000000;stroke-width:0.5;" x="147.606717" xlink:href="#m6e9175a260" y="234.584536"/>
      </g>
     </g>
     <g id="text_2">
      <!-- $-0.5$ -->
      <g transform="translate(137.886717 244.163286)scale(0.08 -0.08)">
       <defs>
        <path d="M 691 4666 
L 3169 4666 
L 3169 4134 
L 1269 4134 
L 1269 2991 
Q 1406 3038 1543 3061 
Q 1681 3084 1819 3084 
Q 2600 3084 3056 2656 
Q 3513 2228 3513 1497 
Q 3513 744 3044 326 
Q 2575 -91 1722 -91 
Q 1428 -91 1123 -41 
Q 819 9 494 109 
L 494 744 
Q 775 591 1075 516 
Q 1375 441 1709 441 
Q 2250 441 2565 725 
Q 2881 1009 2881 1497 
Q 2881 1984 2565 2268 
Q 2250 2553 1709 2553 
Q 1456 2553 1204 2497 
Q 953 2441 691 2322 
L 691 4666 
z
" id="DejaVuSans-35" transform="scale(0.015625)"/>
       </defs>
       <use transform="translate(0 0.78125)" xlink:href="#DejaVuSans-2212"/>
       <use transform="translate(83.789062 0.78125)" xlink:href="#DejaVuSans-30"/>
       <use transform="translate(147.412109 0.78125)" xlink:href="#DejaVuSans-2e"/>
       <use transform="translate(179.199219 0.78125)" xlink:href="#DejaVuSans-35"/>
      </g>
     </g>
    </g>
    <g id="xtick_3">
     <g id="line2d_5">
      <path clip-path="url(#p002167a815)" d="M 237.849871 234.584536 
L 237.849871 43.275464 
" style="fill:none;stroke:#000000;stroke-linecap:square;stroke-opacity:0.1;stroke-width:0.5;"/>
     </g>
     <g id="line2d_6">
      <g>
       <use style="stroke:#000000;stroke-width:0.5;" x="237.849871" xlink:href="#m6e9175a260" y="234.584536"/>
      </g>
     </g>
     <g id="text_3">
      <!-- $0.0$ -->
      <g transform="translate(231.449871 244.163286)scale(0.08 -0.08)">
       <use transform="translate(0 0.78125)" xlink:href="#DejaVuSans-30"/>
       <use transform="translate(63.623047 0.78125)" xlink:href="#DejaVuSans-2e"/>
       <use transform="translate(95.410156 0.78125)" xlink:href="#DejaVuSans-30"/>
      </g>
     </g>
    </g>
    <g id="xtick_4">
     <g id="line2d_7">
      <path clip-path="url(#p002167a815)" d="M 328.093026 234.584536 
L 328.093026 43.275464 
" style="fill:none;stroke:#000000;stroke-linecap:square;stroke-opacity:0.1;stroke-width:0.5;"/>
     </g>
     <g id="line2d_8">
      <g>
       <use style="stroke:#000000;stroke-width:0.5;" x="328.093026" xlink:href="#m6e9175a260" y="234.584536"/>
      </g>
     </g>
     <g id="text_4">
      <!-- $0.5$ -->
      <g transform="translate(321.693026 244.163286)scale(0.08 -0.08)">
       <use transform="translate(0 0.78125)" xlink:href="#DejaVuSans-30"/>
       <use transform="translate(63.623047 0.78125)" xlink:href="#DejaVuSans-2e"/>
       <use transform="translate(95.410156 0.78125)" xlink:href="#DejaVuSans-35"/>
      </g>
     </g>
    </g>
    <g id="xtick_5">
     <g id="line2d_9">
      <path clip-path="url(#p002167a815)" d="M 418.336181 234.584536 
L 418.336181 43.275464 
" style="fill:none;stroke:#000000;stroke-linecap:square;stroke-opacity:0.1;stroke-width:0.5;"/>
     </g>
     <g id="line2d_10">
      <g>
       <use style="stroke:#000000;stroke-width:0.5;" x="418.336181" xlink:href="#m6e9175a260" y="234.584536"/>
      </g>
     </g>
     <g id="text_5">
      <!-- $1.0$ -->
      <g transform="translate(411.936181 244.163286)scale(0.08 -0.08)">
       <use transform="translate(0 0.78125)" xlink:href="#DejaVuSans-31"/>
       <use transform="translate(63.623047 0.78125)" xlink:href="#DejaVuSans-2e"/>
       <use transform="translate(95.410156 0.78125)" xlink:href="#DejaVuSans-30"/>
      </g>
     </g>
    </g>
    <g id="text_6">
     <!-- x -->
     <g transform="translate(234.594641 258.185317)scale(0.11 -0.11)">
      <defs>
       <path d="M 3513 3500 
L 2247 1797 
L 3578 0 
L 2900 0 
L 1881 1375 
L 863 0 
L 184 0 
L 1544 1831 
L 300 3500 
L 978 3500 
L 1906 2253 
L 2834 3500 
L 3513 3500 
z
" id="DejaVuSans-78" transform="scale(0.015625)"/>
      </defs>
      <use xlink:href="#DejaVuSans-78"/>
     </g>
    </g>
   </g>
   <g id="matplotlib.axis_2">
    <g id="ytick_1">
     <g id="line2d_11">
      <path clip-path="url(#p002167a815)" d="M 46.534553 229.176181 
L 429.165354 229.176181 
" style="fill:none;stroke:#000000;stroke-linecap:square;stroke-opacity:0.1;stroke-width:0.5;"/>
     </g>
     <g id="line2d_12">
      <defs>
       <path d="M 0 0 
L 2.5 0 
" id="m121b9939ca" style="stroke:#000000;stroke-width:0.5;"/>
      </defs>
      <g>
       <use style="stroke:#000000;stroke-width:0.5;" x="46.534553" xlink:href="#m121b9939ca" y="229.176181"/>
      </g>
     </g>
     <g id="text_7">
      <!-- $-1.00$ -->
      <g transform="translate(18.474553 232.215556)scale(0.08 -0.08)">
       <use transform="translate(0 0.78125)" xlink:href="#DejaVuSans-2212"/>
       <use transform="translate(83.789062 0.78125)" xlink:href="#DejaVuSans-31"/>
       <use transform="translate(147.412109 0.78125)" xlink:href="#DejaVuSans-2e"/>
       <use transform="translate(179.199219 0.78125)" xlink:href="#DejaVuSans-30"/>
       <use transform="translate(242.822266 0.78125)" xlink:href="#DejaVuSans-30"/>
      </g>
     </g>
    </g>
    <g id="ytick_2">
     <g id="line2d_13">
      <path clip-path="url(#p002167a815)" d="M 46.534553 184.054604 
L 429.165354 184.054604 
" style="fill:none;stroke:#000000;stroke-linecap:square;stroke-opacity:0.1;stroke-width:0.5;"/>
     </g>
     <g id="line2d_14">
      <g>
       <use style="stroke:#000000;stroke-width:0.5;" x="46.534553" xlink:href="#m121b9939ca" y="184.054604"/>
      </g>
     </g>
     <g id="text_8">
      <!-- $-0.75$ -->
      <g transform="translate(19.114553 187.093979)scale(0.08 -0.08)">
       <defs>
        <path d="M 525 4666 
L 3525 4666 
L 3525 4397 
L 1831 0 
L 1172 0 
L 2766 4134 
L 525 4134 
L 525 4666 
z
" id="DejaVuSans-37" transform="scale(0.015625)"/>
       </defs>
       <use transform="translate(0 0.78125)" xlink:href="#DejaVuSans-2212"/>
       <use transform="translate(83.789062 0.78125)" xlink:href="#DejaVuSans-30"/>
       <use transform="translate(147.412109 0.78125)" xlink:href="#DejaVuSans-2e"/>
       <use transform="translate(171.449219 0.78125)" xlink:href="#DejaVuSans-37"/>
       <use transform="translate(235.072266 0.78125)" xlink:href="#DejaVuSans-35"/>
      </g>
     </g>
    </g>
    <g id="ytick_3">
     <g id="line2d_15">
      <path clip-path="url(#p002167a815)" d="M 46.534553 138.933027 
L 429.165354 138.933027 
" style="fill:none;stroke:#000000;stroke-linecap:square;stroke-opacity:0.1;stroke-width:0.5;"/>
     </g>
     <g id="line2d_16">
      <g>
       <use style="stroke:#000000;stroke-width:0.5;" x="46.534553" xlink:href="#m121b9939ca" y="138.933027"/>
      </g>
     </g>
     <g id="text_9">
      <!-- $-0.50$ -->
      <g transform="translate(18.474553 141.972402)scale(0.08 -0.08)">
       <use transform="translate(0 0.78125)" xlink:href="#DejaVuSans-2212"/>
       <use transform="translate(83.789062 0.78125)" xlink:href="#DejaVuSans-30"/>
       <use transform="translate(147.412109 0.78125)" xlink:href="#DejaVuSans-2e"/>
       <use transform="translate(179.199219 0.78125)" xlink:href="#DejaVuSans-35"/>
       <use transform="translate(242.822266 0.78125)" xlink:href="#DejaVuSans-30"/>
      </g>
     </g>
    </g>
    <g id="ytick_4">
     <g id="line2d_17">
      <path clip-path="url(#p002167a815)" d="M 46.534553 93.811449 
L 429.165354 93.811449 
" style="fill:none;stroke:#000000;stroke-linecap:square;stroke-opacity:0.1;stroke-width:0.5;"/>
     </g>
     <g id="line2d_18">
      <g>
       <use style="stroke:#000000;stroke-width:0.5;" x="46.534553" xlink:href="#m121b9939ca" y="93.811449"/>
      </g>
     </g>
     <g id="text_10">
      <!-- $-0.25$ -->
      <g transform="translate(18.954553 96.850824)scale(0.08 -0.08)">
       <defs>
        <path d="M 1228 531 
L 3431 531 
L 3431 0 
L 469 0 
L 469 531 
Q 828 903 1448 1529 
Q 2069 2156 2228 2338 
Q 2531 2678 2651 2914 
Q 2772 3150 2772 3378 
Q 2772 3750 2511 3984 
Q 2250 4219 1831 4219 
Q 1534 4219 1204 4116 
Q 875 4013 500 3803 
L 500 4441 
Q 881 4594 1212 4672 
Q 1544 4750 1819 4750 
Q 2544 4750 2975 4387 
Q 3406 4025 3406 3419 
Q 3406 3131 3298 2873 
Q 3191 2616 2906 2266 
Q 2828 2175 2409 1742 
Q 1991 1309 1228 531 
z
" id="DejaVuSans-32" transform="scale(0.015625)"/>
       </defs>
       <use transform="translate(0 0.78125)" xlink:href="#DejaVuSans-2212"/>
       <use transform="translate(83.789062 0.78125)" xlink:href="#DejaVuSans-30"/>
       <use transform="translate(147.412109 0.78125)" xlink:href="#DejaVuSans-2e"/>
       <use transform="translate(173.699219 0.78125)" xlink:href="#DejaVuSans-32"/>
       <use transform="translate(237.322266 0.78125)" xlink:href="#DejaVuSans-35"/>
      </g>
     </g>
    </g>
    <g id="ytick_5">
     <g id="line2d_19">
      <path clip-path="url(#p002167a815)" d="M 46.534553 48.689872 
L 429.165354 48.689872 
" style="fill:none;stroke:#000000;stroke-linecap:square;stroke-opacity:0.1;stroke-width:0.5;"/>
     </g>
     <g id="line2d_20">
      <g>
       <use style="stroke:#000000;stroke-width:0.5;" x="46.534553" xlink:href="#m121b9939ca" y="48.689872"/>
      </g>
     </g>
     <g id="text_11">
      <!-- $0.00$ -->
      <g transform="translate(25.194553 51.729247)scale(0.08 -0.08)">
       <use transform="translate(0 0.78125)" xlink:href="#DejaVuSans-30"/>
       <use transform="translate(63.623047 0.78125)" xlink:href="#DejaVuSans-2e"/>
       <use transform="translate(95.410156 0.78125)" xlink:href="#DejaVuSans-30"/>
       <use transform="translate(159.033203 0.78125)" xlink:href="#DejaVuSans-30"/>
      </g>
     </g>
    </g>
    <g id="text_12">
     <!-- y -->
     <g transform="translate(12.186897 142.185313)rotate(-90)scale(0.11 -0.11)">
      <defs>
       <path d="M 2059 -325 
Q 1816 -950 1584 -1140 
Q 1353 -1331 966 -1331 
L 506 -1331 
L 506 -850 
L 844 -850 
Q 1081 -850 1212 -737 
Q 1344 -625 1503 -206 
L 1606 56 
L 191 3500 
L 800 3500 
L 1894 763 
L 2988 3500 
L 3597 3500 
L 2059 -325 
z
" id="DejaVuSans-79" transform="scale(0.015625)"/>
      </defs>
      <use xlink:href="#DejaVuSans-79"/>
     </g>
    </g>
   </g>
   <g id="line2d_21">
    <path clip-path="url(#p002167a815)" d="M 418.336181 48.689872 
L 418.232917 54.788908 
L 417.913277 61.032558 
L 417.411914 66.926624 
L 416.6904 73.002505 
L 415.792979 78.876349 
L 414.573708 85.344834 
L 413.264216 91.170963 
L 411.64494 97.372932 
L 409.673996 103.927203 
L 407.815324 109.405405 
L 405.682219 115.074136 
L 403.252847 120.914225 
L 400.505836 126.904138 
L 397.420579 133.019906 
L 393.977572 139.235089 
L 391.149618 143.944423 
L 388.103277 148.680384 
L 384.832253 153.429139 
L 381.331005 158.17615 
L 377.594839 162.906207 
L 373.619993 167.603488 
L 369.403725 172.251615 
L 364.944397 176.833737 
L 360.241545 181.332608 
L 355.295953 185.730686 
L 350.109713 190.010238 
L 344.686272 194.153454 
L 339.030478 198.142571 
L 333.148601 201.960001 
L 327.048349 205.588469 
L 320.738867 209.011151 
L 314.230716 212.21182 
L 307.535844 215.17498 
L 300.667532 217.886017 
L 293.640332 220.331328 
L 286.469979 222.498456 
L 279.1733 224.376213 
L 271.768093 225.954789 
L 264.273008 227.225858 
L 256.707403 228.182661 
L 249.091202 228.820078 
L 241.444732 229.134684 
L 233.788567 229.124784 
L 226.143356 228.79043 
L 218.529663 228.133424 
L 210.967796 227.157298 
L 203.477647 225.867272 
L 196.078537 224.270203 
L 188.789065 222.374511 
L 181.626976 220.190091 
L 174.609032 217.728215 
L 167.750898 215.001411 
L 161.067051 212.023349 
L 154.570693 208.8087 
L 148.273687 205.373008 
L 142.186511 201.732542 
L 136.318219 197.904157 
L 130.676434 193.905151 
L 125.267338 189.753126 
L 120.095691 185.465851 
L 115.164858 181.061136 
L 110.476849 176.556704 
L 106.032369 171.970083 
L 101.830883 167.318497 
L 97.870681 162.618771 
L 94.148956 157.88725 
L 90.661888 153.139721 
L 87.404729 148.391353 
L 84.371889 143.656644 
L 80.665991 137.388668 
L 77.330728 131.200007 
L 74.347581 125.118838 
L 71.696683 119.170867 
L 69.35717 113.379338 
L 67.3075 107.765078 
L 65.119609 101.024492 
L 63.307405 94.620858 
L 61.828439 88.580365 
L 60.435496 81.841215 
L 59.394885 75.685418 
L 58.541589 69.270298 
L 57.930749 62.979535 
L 57.542279 56.710374 
L 57.369868 50.172917 
L 57.363727 48.690768 
L 57.527574 56.373207 
L 57.89552 62.529212 
L 58.480468 68.730932 
L 59.302838 75.070035 
L 60.310022 81.162781 
L 61.662587 87.841557 
L 63.102282 93.834377 
L 64.869902 100.193321 
L 67.007786 106.892809 
L 69.013526 112.477221 
L 71.305655 118.241986 
L 73.905792 124.166653 
L 76.83493 130.228366 
L 80.113117 136.40181 
L 83.759109 142.659198 
L 86.745338 147.389232 
L 89.954607 152.1359 
L 93.39267 156.88485 
L 97.064462 161.62105 
L 100.974006 166.328839 
L 105.12433 170.991984 
L 109.517381 175.593755 
L 114.15395 180.117004 
L 119.033599 184.54426 
L 124.154598 188.85783 
L 129.513872 193.039915 
L 135.106958 197.072725 
L 140.927975 200.938612 
L 146.969608 204.620202 
L 153.223102 208.100535 
L 159.678278 211.363206 
L 166.323562 214.392507 
L 173.146031 217.173569 
L 180.13147 219.692502 
L 187.264456 221.936523 
L 194.528452 223.894088 
L 201.905911 225.555001 
L 209.378401 226.910523 
L 216.926743 227.953461 
L 224.531153 228.678242 
L 232.171397 229.080975 
L 239.826952 229.159492 
L 247.477173 228.913368 
L 255.101456 228.343931 
L 262.679408 227.454243 
L 270.191007 226.24907 
L 277.616764 224.73483 
L 284.937866 222.919526 
L 292.136325 220.812661 
L 299.1951 218.425141 
L 306.098215 215.769166 
L 312.830862 212.858106 
L 319.379485 209.706374 
L 325.731851 206.32929 
L 331.877101 202.742939 
L 337.80579 198.964031 
L 343.509906 195.009757 
L 348.982875 190.89765 
L 354.219552 186.645447 
L 359.216196 182.270959 
L 363.970433 177.791944 
L 368.481206 173.225994 
L 372.748722 168.590425 
L 376.774378 163.90218 
L 380.560689 159.177743 
L 384.111207 154.433058 
L 387.430438 149.683469 
L 390.523751 144.943661 
L 393.397289 140.227618 
L 396.89869 133.999314 
L 400.039376 127.866009 
L 402.838646 121.854533 
L 405.316954 115.989244 
L 407.495571 110.29206 
L 409.396278 104.782521 
L 411.414863 98.185554 
L 413.076399 91.937569 
L 414.42291 86.062688 
L 415.679991 79.532821 
L 416.608456 73.595186 
L 417.358386 67.442702 
L 417.929342 60.790907 
L 418.252579 54.166108 
L 418.335853 48.692283 
L 417.982685 59.969713 
L 417.462338 66.419942 
L 416.768439 72.41903 
L 415.901299 78.228849 
L 414.719011 84.635635 
L 413.445809 90.412676 
L 411.868034 96.568216 
L 409.943957 103.079295 
L 408.126696 108.525695 
L 406.038481 114.165447 
L 403.657433 119.979748 
L 400.962087 125.94744 
L 397.931694 132.044944 
L 394.546552 138.246213 
L 391.763817 142.948199 
L 388.764112 147.679635 
L 385.540994 152.426846 
L 382.088756 157.175438 
L 378.402516 161.910339 
L 374.47831 166.615851 
L 370.313174 171.275708 
L 365.905228 175.873153 
L 361.253757 180.391014 
L 356.359275 184.811804 
L 351.223593 189.117822 
L 345.849869 193.291264 
L 340.242653 197.314345 
L 334.407913 201.169431 
L 328.353053 204.839168 
L 322.086915 208.306628 
L 315.619765 211.555443 
L 308.96326 214.569952 
L 302.130406 217.335344 
L 295.135492 219.837792 
L 287.994012 222.064585 
L 280.72257 224.004259 
L 273.33877 225.646704 
L 265.861093 226.983273 
L 258.30876 228.006871 
L 250.701588 228.712026 
L 243.059831 229.094951 
L 235.404025 229.153584 
L 227.754818 228.88761 
L 220.132805 228.298461 
L 212.558361 227.389305 
L 205.051479 226.165012 
L 197.631613 224.632098 
L 190.317527 222.798661 
L 183.127156 220.674292 
L 176.077479 218.26998 
L 169.184402 215.598 
L 162.462659 212.67179 
L 155.925727 209.505822 
L 149.585756 206.115467 
L 143.45352 202.516853 
L 137.538377 198.726722 
L 131.848249 194.762291 
L 126.389622 190.641109 
L 121.167557 186.380921 
L 116.185708 181.999539 
L 111.446368 177.514713 
L 106.950512 172.944021 
L 102.697862 168.30476 
L 98.686948 163.613847 
L 94.91519 158.887733 
L 91.378975 154.14233 
L 91.378975 154.14233 
" style="fill:none;stroke:#009afa;"/>
   </g>
   <g id="patch_3">
    <path d="M 46.534553 234.584536 
L 46.534553 43.275464 
" style="fill:none;stroke:#000000;stroke-linecap:square;stroke-linejoin:miter;"/>
   </g>
   <g id="patch_4">
    <path d="M 46.534553 234.584536 
L 429.165354 234.584536 
" style="fill:none;stroke:#000000;stroke-linecap:square;stroke-linejoin:miter;"/>
   </g>
   <g id="text_13">
    <!-- Trajectory -->
    <g transform="translate(203.290735 37.275464)scale(0.14 -0.14)">
     <defs>
      <path d="M -19 4666 
L 3928 4666 
L 3928 4134 
L 2272 4134 
L 2272 0 
L 1638 0 
L 1638 4134 
L -19 4134 
L -19 4666 
z
" id="DejaVuSans-54" transform="scale(0.015625)"/>
      <path d="M 2631 2963 
Q 2534 3019 2420 3045 
Q 2306 3072 2169 3072 
Q 1681 3072 1420 2755 
Q 1159 2438 1159 1844 
L 1159 0 
L 581 0 
L 581 3500 
L 1159 3500 
L 1159 2956 
Q 1341 3275 1631 3429 
Q 1922 3584 2338 3584 
Q 2397 3584 2469 3576 
Q 2541 3569 2628 3553 
L 2631 2963 
z
" id="DejaVuSans-72" transform="scale(0.015625)"/>
      <path d="M 2194 1759 
Q 1497 1759 1228 1600 
Q 959 1441 959 1056 
Q 959 750 1161 570 
Q 1363 391 1709 391 
Q 2188 391 2477 730 
Q 2766 1069 2766 1631 
L 2766 1759 
L 2194 1759 
z
M 3341 1997 
L 3341 0 
L 2766 0 
L 2766 531 
Q 2569 213 2275 61 
Q 1981 -91 1556 -91 
Q 1019 -91 701 211 
Q 384 513 384 1019 
Q 384 1609 779 1909 
Q 1175 2209 1959 2209 
L 2766 2209 
L 2766 2266 
Q 2766 2663 2505 2880 
Q 2244 3097 1772 3097 
Q 1472 3097 1187 3025 
Q 903 2953 641 2809 
L 641 3341 
Q 956 3463 1253 3523 
Q 1550 3584 1831 3584 
Q 2591 3584 2966 3190 
Q 3341 2797 3341 1997 
z
" id="DejaVuSans-61" transform="scale(0.015625)"/>
      <path d="M 603 3500 
L 1178 3500 
L 1178 -63 
Q 1178 -731 923 -1031 
Q 669 -1331 103 -1331 
L -116 -1331 
L -116 -844 
L 38 -844 
Q 366 -844 484 -692 
Q 603 -541 603 -63 
L 603 3500 
z
M 603 4863 
L 1178 4863 
L 1178 4134 
L 603 4134 
L 603 4863 
z
" id="DejaVuSans-6a" transform="scale(0.015625)"/>
      <path d="M 3597 1894 
L 3597 1613 
L 953 1613 
Q 991 1019 1311 708 
Q 1631 397 2203 397 
Q 2534 397 2845 478 
Q 3156 559 3463 722 
L 3463 178 
Q 3153 47 2828 -22 
Q 2503 -91 2169 -91 
Q 1331 -91 842 396 
Q 353 884 353 1716 
Q 353 2575 817 3079 
Q 1281 3584 2069 3584 
Q 2775 3584 3186 3129 
Q 3597 2675 3597 1894 
z
M 3022 2063 
Q 3016 2534 2758 2815 
Q 2500 3097 2075 3097 
Q 1594 3097 1305 2825 
Q 1016 2553 972 2059 
L 3022 2063 
z
" id="DejaVuSans-65" transform="scale(0.015625)"/>
      <path d="M 3122 3366 
L 3122 2828 
Q 2878 2963 2633 3030 
Q 2388 3097 2138 3097 
Q 1578 3097 1268 2742 
Q 959 2388 959 1747 
Q 959 1106 1268 751 
Q 1578 397 2138 397 
Q 2388 397 2633 464 
Q 2878 531 3122 666 
L 3122 134 
Q 2881 22 2623 -34 
Q 2366 -91 2075 -91 
Q 1284 -91 818 406 
Q 353 903 353 1747 
Q 353 2603 823 3093 
Q 1294 3584 2113 3584 
Q 2378 3584 2631 3529 
Q 2884 3475 3122 3366 
z
" id="DejaVuSans-63" transform="scale(0.015625)"/>
      <path d="M 1172 4494 
L 1172 3500 
L 2356 3500 
L 2356 3053 
L 1172 3053 
L 1172 1153 
Q 1172 725 1289 603 
Q 1406 481 1766 481 
L 2356 481 
L 2356 0 
L 1766 0 
Q 1100 0 847 248 
Q 594 497 594 1153 
L 594 3053 
L 172 3053 
L 172 3500 
L 594 3500 
L 594 4494 
L 1172 4494 
z
" id="DejaVuSans-74" transform="scale(0.015625)"/>
      <path d="M 1959 3097 
Q 1497 3097 1228 2736 
Q 959 2375 959 1747 
Q 959 1119 1226 758 
Q 1494 397 1959 397 
Q 2419 397 2687 759 
Q 2956 1122 2956 1747 
Q 2956 2369 2687 2733 
Q 2419 3097 1959 3097 
z
M 1959 3584 
Q 2709 3584 3137 3096 
Q 3566 2609 3566 1747 
Q 3566 888 3137 398 
Q 2709 -91 1959 -91 
Q 1206 -91 779 398 
Q 353 888 353 1747 
Q 353 2609 779 3096 
Q 1206 3584 1959 3584 
z
" id="DejaVuSans-6f" transform="scale(0.015625)"/>
     </defs>
     <use xlink:href="#DejaVuSans-54"/>
     <use x="46.333984" xlink:href="#DejaVuSans-72"/>
     <use x="87.447266" xlink:href="#DejaVuSans-61"/>
     <use x="148.726562" xlink:href="#DejaVuSans-6a"/>
     <use x="176.509766" xlink:href="#DejaVuSans-65"/>
     <use x="238.033203" xlink:href="#DejaVuSans-63"/>
     <use x="293.013672" xlink:href="#DejaVuSans-74"/>
     <use x="332.222656" xlink:href="#DejaVuSans-6f"/>
     <use x="393.404297" xlink:href="#DejaVuSans-72"/>
     <use x="434.517578" xlink:href="#DejaVuSans-79"/>
    </g>
   </g>
  </g>
 </g>
 <defs>
  <clipPath id="p002167a815">
   <rect height="191.309071" width="382.630801" x="46.534553" y="43.275464"/>
  </clipPath>
 </defs>
</svg>
